<?xml version="1.0" standalone="no"?>
<!DOCTYPE svg PUBLIC "-//W3C//DTD SVG 1.1//EN" "http://www.w3.org/Graphics/SVG/1.1/DTD/svg11.dtd" >
<svg xmlns="http://www.w3.org/2000/svg" xmlns:xlink="http://www.w3.org/1999/xlink" version="1.1">
<metadata>
Created by FontForge 20170731 at Fri Oct 22 02:42:00 2021
 By Aleksey,,,
Copyright  2013 by Frank Hemmekam. All rights reserved.
</metadata>
<defs>
<font id="BaronNeueBoldItalic" horiz-adv-x="1144" >
  <font-face 
    font-family="Baron Neue Bold Italic"
    font-weight="700"
    font-style="italic"
    font-stretch="normal"
    units-per-em="2048"
    panose-1="0 0 5 0 0 0 0 0 0 0"
    ascent="1536"
    descent="-512"
    x-height="1421"
    cap-height="1434"
    bbox="-348.381 -494 2078.19 2017"
    underline-thickness="102"
    underline-position="-307"
    unicode-range="U+0020-25CA"
  />
<missing-glyph horiz-adv-x="901" 
 />
    <glyph glyph-name=".notdef" horiz-adv-x="901" 
 />
    <glyph glyph-name=".null" horiz-adv-x="0" 
 />
    <glyph glyph-name="nonmarkingreturn" horiz-adv-x="682" 
 />
    <glyph glyph-name="space" unicode=" " horiz-adv-x="706" 
 />
    <glyph glyph-name="exclam" unicode="!" horiz-adv-x="565" 
d="M152 1434h233q9 0 18 -9.5t7 -15.5l-211 -993q0 -6 -1 -7t-10 -1h-233q-9 0 -19 9t-8 15l211 993q1 5 1.5 6t3 2t8.5 1zM12 283q72 0 113 -49t29 -115q-12 -57 -59 -96t-105 -39q-69 0 -110.5 48.5t-26.5 114.5q10 55 57.5 95.5t101.5 40.5z" />
    <glyph glyph-name="quotedbl" unicode="&#x22;" horiz-adv-x="651" 
d="M-51 979l94 446q2 8 4 8.5t8 0.5h193q9 0 17.5 -9.5t6.5 -15.5l-94 -446q-2 -8 -4 -8.5t-8 -0.5h-193q-9 0 -17.5 9.5t-6.5 15.5zM270 979l95 446q2 8 4 8.5t8 0.5h190q9 0 18 -9.5t7 -15.5l-94 -446q-1 -5 -1.5 -6t-3 -2t-8.5 -1h-190q-9 0 -18 9.5t-7 15.5z" />
    <glyph glyph-name="numbersign" unicode="#" horiz-adv-x="1339" 
d="M1090 852l-168 -8q-19 -37 -53 -103t-60.5 -119t-50.5 -104l141 8q11 0 21.5 -10.5t7.5 -17.5l-101 -201q-4 -6 -16 -6h-168l-137 -287q-4 -6 -14 -6h-213q-10 0 -19.5 10.5t-7.5 18.5l133 264h-188l-136 -287q-4 -6 -16 -6h-211q-9 0 -19.5 11t-7.5 18l132 264h-158
q-9 0 -19.5 10.5t-7.5 17.5l101 201q4 6 16 6l186 9q30 62 84 168.5t78 156.5l-160 -8q-10 0 -20.5 10.5t-7.5 18.5l96 196q4 6 16 6h187l166 344q5 7 16 7h211q11 0 21.5 -11t7.5 -18l-164 -322h188l166 344q5 7 16 7h211q11 0 21.5 -11t7.5 -18l-164 -322h140
q10 0 20.5 -10.5t7.5 -17.5l-98 -197q-2 -6 -14 -6zM469 879l-190 -379h229l190 379h-229z" />
    <glyph glyph-name="dollar" unicode="$" horiz-adv-x="1112" 
d="M707 1585l-43 -151q137 -36 207 -148.5t40 -265.5q0 -3 -0.5 -3.5t-9.5 -0.5h-229q-9 0 -18.5 11t-6.5 22q11 69 -25.5 103t-103.5 34q-88 0 -156.5 -51t-87.5 -144q-14 -70 25 -107.5t107 -37.5q115 0 202 -53q112 -53 157 -159.5t17 -240.5q-34 -161 -143.5 -264
t-261.5 -137l-43 -154v-2q0 -3 -1 -3.5t-9 -0.5h-195q-9 0 -19 9t-8 14l41 141q-148 31 -222.5 140.5t-39.5 281.5v1l10 -1h232q8 0 16.5 -9.5t7.5 -19.5q-13 -71 25.5 -107t106.5 -36q82 0 152 49.5t87 126.5q16 71 -25.5 117t-101.5 49q-116 0 -207 53
q-111 53 -157.5 150.5t-18.5 228.5q34 163 150 273.5t270 144.5l45 164q10 8 12 8h195q9 0 19 -9.5t8 -15.5z" />
    <glyph glyph-name="percent" unicode="%" horiz-adv-x="1359" 
d="M233 846q-134 0 -212 94t-50 223q26 121 129 206t222 85q134 0 212 -94.5t50 -224.5q-26 -120 -129 -204.5t-222 -84.5zM-63 4h-222q-14 0 -24 12t-4 21l1386 1397h12h222q14 0 24 -12t4 -21l-1386 -1397h-12zM324 1268q-54 0 -102 -39t-60 -94q-9 -44 11.5 -72.5
t59.5 -28.5q55 0 102.5 38t57.5 91q9 46 -11 75.5t-58 29.5zM711 -18q-137 0 -214 94.5t-48 226.5q26 123 128 208t224 85q138 0 215 -95t49 -227q-26 -123 -128.5 -207.5t-225.5 -84.5zM801 406q-55 0 -102 -39t-58 -93q-9 -44 10.5 -73t59.5 -29q54 0 102.5 38.5
t60.5 92.5q9 44 -12.5 73.5t-60.5 29.5z" />
    <glyph glyph-name="ampersand" unicode="&#x26;" horiz-adv-x="1337" 
d="M1018 164l-201 -164q-8 -6 -24 10l-123 137q-90 -81 -193 -122t-203 -41q-140 0 -237 55t-141 154q-45 102 -39 209.5t69.5 218t175.5 198.5q-44 45 -59.5 121t2.5 152q31 146 155 249t267 103q162 0 252.5 -112.5t58.5 -268.5q-20 -87 -80 -165.5t-145 -131.5l135 -188
l60 253q7 8 10 9h352q9 0 19 -9.5t8 -15.5l-41 -190q-1 -5 -1.5 -6t-3 -2t-8.5 -1h-165l-27 -131q-6 -30 -31 -90l-6 4l158 -211q12 -18 6 -24zM457 1204q-58 0 -108.5 -42t-61.5 -99q-11 -48 11 -81.5t64 -33.5q59 0 111 43t64 101q9 48 -13.5 80t-66.5 32zM520 346
l-244 301q-78 -52 -117.5 -122.5t-36 -130t49.5 -101t127 -41.5q116 0 221 94z" />
    <glyph glyph-name="quotesingle" unicode="'" horiz-adv-x="339" 
d="M-53 979l94 446q2 8 4 8.5t8 0.5h213q9 0 18 -9.5t7 -15.5l-94 -446q-1 -5 -1.5 -6t-3 -2t-8.5 -1h-213q-9 0 -17.5 9.5t-6.5 15.5z" />
    <glyph glyph-name="parenleft" unicode="(" horiz-adv-x="636" 
d="M2 0l-12 14q-111 342 -31 721q76 361 322 703q9 -6 16 -6h270q13 0 22 -13t3 -26q-292 -324 -367 -684q-78 -367 49 -697q15 -6 16 -9t-9 -3h-279z" />
    <glyph glyph-name="parenright" unicode=")" horiz-adv-x="630" 
d="M322 1432l12 -15q54 -167 59 -354q15 -175 -26 -365q-75 -353 -324 -704q-9 6 -16 6h-271q-14 0 -23 13t-3 26q292 321 368 684q29 133 29 303q-4 66 -16 134t-21 104t-26 92.5t-19 62.5q-20 9 -11 12q3 1 9 1h279z" />
    <glyph glyph-name="asterisk" unicode="*" horiz-adv-x="784" 
d="M649 1155l-22 -102q-7 -8 -11 -9h-153l84 -116q7 -5 12 -14t2 -13l-88 -67q-7 -4 -15 0t-12 10l-90 98l-34 -143q-1 -4 -1 -4.5t-1.5 -2t-3.5 -1.5h-7h-102q-7 0 -16 9t-7 15l31 127l-127 -108q-7 -4 -15 0.5t-10 9.5l-59 67q-7 5 -11 13.5t1 13.5l141 106h-127
q-9 0 -18.5 9.5t-7.5 15.5l22 102q2 8 4 8.5t8 0.5h156l-86 118q-7 3 -11.5 12t-0.5 13l88 70q9 6 26 -11l91 -100l34 143q1 6 1.5 6.5t2.5 1.5t7 1h102q9 0 18 -9.5t7 -15.5l-31 -127l127 111q11 8 24 -11l58 -69q6 -5 11.5 -13.5t2.5 -11.5l-143 -108h125q9 0 17.5 -9.5
t6.5 -15.5z" />
    <glyph glyph-name="plus" unicode="+" horiz-adv-x="956" 
d="M745 809l-43 -203q-10 -8 -12 -8h-295l-63 -299q-1 -4 -1 -4.5t-1.5 -2t-3.5 -1.5h-7h-202q-9 0 -18 9t-7 15l60 283h-261q-9 0 -17.5 9.5t-6.5 15.5l43 202q2 8 4 8.5t8 0.5h281l61 294q2 8 4 8.5t8 0.5h203q9 0 18 -9.5t9 -15.5l-60 -278h275q9 0 17.5 -9.5t6.5 -15.5z
" />
    <glyph glyph-name="comma" unicode="," horiz-adv-x="380" 
d="M-102 264q90 0 125 -48.5t20 -123.5q-17 -76 -75 -161t-122 -126q-16 -3 -29.5 8.5t-11.5 22.5l43 148q-53 6 -82.5 51.5t-17.5 103.5q10 52 54.5 88.5t95.5 36.5z" />
    <glyph glyph-name="hyphen" unicode="-" horiz-adv-x="907" 
d="M680 819l-45 -213q-1 -2 -1 -5t-9 -3h-705q-9 0 -17.5 9.5t-6.5 15.5l45 213q10 8 12 8h704q9 0 17 -9.5t6 -15.5z" />
    <glyph glyph-name="period" unicode="." horiz-adv-x="368" 
d="M-90 272q70 0 109.5 -46.5t25.5 -110.5q-11 -54 -55 -90.5t-99 -36.5q-66 0 -105 46t-26 109q12 54 55.5 91.5t94.5 37.5z" />
    <glyph glyph-name="slash" unicode="/" horiz-adv-x="925" 
d="M645 1434h240q11 0 19.5 -11t4.5 -20l-954 -1401q-2 -4 -12 -4h-234q-11 0 -19.5 11t-4.5 20l948 1401q2 4 12 4z" />
    <glyph glyph-name="zero" unicode="0" horiz-adv-x="1157" 
d="M913 1032l-137 -647q-21 -99 -72.5 -178.5t-120 -127.5t-145.5 -73.5t-155 -25.5q-86 0 -159.5 27t-126.5 80.5t-73.5 132t0.5 181.5l137 648q21 98 72 177t119.5 128t146 74.5t156.5 25.5q85 0 158.5 -27.5t126.5 -81.5t73.5 -132.5t-0.5 -180.5zM504 391l143 674
q16 73 -15.5 110t-86.5 37q-70 0 -131.5 -44.5t-77.5 -118.5l-143 -674q-16 -73 15.5 -111.5t86.5 -38.5q70 0 131 45.5t78 120.5z" />
    <glyph glyph-name="one" unicode="1" horiz-adv-x="679" 
d="M526 1409l-297 -1401q-1 -2 -1 -5t-9 -3h-235q-9 0 -17 9.5t-6 15.5l244 1099q-93 -27 -189 -69q-13 0 -24.5 8t-9.5 14l-43 166q-1 2 -3.5 7.5t-2 6.5t3.5 5l370 172h197q9 0 16.5 -9.5t5.5 -15.5z" />
    <glyph glyph-name="two" unicode="2" horiz-adv-x="1003" 
d="M469 1452q83 0 155 -30t121 -81t69.5 -125t2.5 -157q-27 -135 -149 -271l-516 -522h485q9 0 18 -9t7 -15l-50 -234q-10 -8 -12 -8h-817q-9 0 -18 9.5t-7 15.5l39 206l654 705q72 76 86 137q10 50 -14 81.5t-70 31.5q-69 0 -130 -43.5t-79 -124.5h-11h-219q-9 0 -17.5 10
t-6.5 19q37 181 160 293t319 112z" />
    <glyph glyph-name="three" unicode="3" horiz-adv-x="1009" 
d="M492 1176h-426q-9 0 -18 9t-7 15l47 225q2 8 4 8.5t8 0.5h824q12 0 23 -11t5 -20l-432 -529q134 -41 190 -163.5t19 -298.5q-19 -90 -59 -163.5t-92.5 -122.5t-116.5 -82.5t-130.5 -48.5t-135.5 -15q-92 0 -169 31t-128 88t-71.5 138t1.5 181q9 2 10 2h232
q8 0 15.5 -10.5t6.5 -20.5q-14 -66 22 -105.5t97 -39.5q94 0 163.5 64.5t88.5 148.5q19 90 -17.5 146t-121.5 63h-193q-13 0 -24 10.5t-5 19.5z" />
    <glyph glyph-name="four" unicode="4" horiz-adv-x="1054" 
d="M895 1409l-297 -1401q-10 -8 -12 -8h-234q-7 0 -15.5 9.5t-6.5 15.5l84 399h-549q-9 0 -18 9.5t-7 15.5l41 217l746 768h10h233q9 0 18 -9.5t7 -15.5zM467 662l86 389l-391 -389h305z" />
    <glyph glyph-name="five" unicode="5" horiz-adv-x="1026" 
d="M213 -14q-94 0 -169 28.5t-124.5 84t-67 137.5t4.5 188q9 2 10 2h231q10 0 19 -10.5t6 -20.5q-14 -73 15 -109t89 -36q89 0 156.5 62t85.5 145q43 200 -121 211h-397q-9 0 -19 9t-8 15l156 733q2 8 4 8.5t8 0.5h752q9 0 17.5 -9.5t6.5 -15.5l-45 -217q-10 -8 -12 -8h-508
l-59 -277h133q152 0 244 -62.5t115.5 -172t-5.5 -258.5q-21 -99 -73.5 -181t-123 -135.5t-153.5 -82.5t-168 -29z" />
    <glyph glyph-name="six" unicode="6" horiz-adv-x="966" 
d="M180 -16q-128 0 -217 61t-122 162t-7 221q12 62 43 139l490 863q1 4 10 4h250q9 0 18 -11t6 -20l-344 -578q13 4 64 4q117 0 196.5 -63.5t106 -162t2.5 -210.5q-37 -170 -182 -289.5t-314 -119.5zM309 582q-75 0 -144.5 -57.5t-84.5 -133.5q-15 -67 18 -113.5t95 -46.5
q78 0 147 56t86 133q14 68 -20 115t-97 47z" />
    <glyph glyph-name="seven" unicode="7" horiz-adv-x="892" 
d="M461 1176h-465q-9 0 -18 9t-7 15l47 225q1 5 1.5 6t3 2t8.5 1h837q11 0 21 -11t6 -20l-825 -1399q-3 -4 -13 -4h-250q-10 0 -19 11t-5 20z" />
    <glyph glyph-name="eight" unicode="8" horiz-adv-x="997" 
d="M827 1004q-18 -84 -73 -163.5t-138 -131.5q53 -56 77.5 -139.5t6.5 -168.5q-18 -83 -56 -153t-88 -118.5t-110 -83t-122 -50.5t-125 -16q-85 0 -158 28.5t-126 85t-72 141t3 195.5q18 79 73 161t132 138q-48 53 -72 136.5t-6 166.5q21 102 73.5 184t122 132t147 77
t155.5 27q86 0 159.5 -29t126.5 -85.5t72.5 -140t-2.5 -193.5zM229 1004q-13 -67 19 -112.5t94 -45.5q77 0 144.5 55t82.5 131q18 81 -16 124.5t-94 43.5q-75 0 -142 -52.5t-88 -143.5zM109 401q-18 -79 14 -121t90 -42q73 0 138.5 51.5t84.5 140.5q14 65 -17.5 112.5
t-90.5 47.5q-73 0 -138.5 -57.5t-80.5 -131.5z" />
    <glyph glyph-name="nine" unicode="9" horiz-adv-x="995" 
d="M461 1450q129 0 218 -61t122 -162t8 -221q-14 -70 -47 -142l-486 -860q-3 -4 -14 -4h-248q-10 0 -19 11t-7 20l346 577q-13 -4 -64 -4q-117 0 -196.5 63.5t-106 162t-2.5 210.5q37 170 182.5 290t313.5 120zM332 856q74 0 142 55t83 131q15 66 -18 111t-93 45
q-76 0 -143 -54.5t-84 -129.5q-14 -66 19 -112t94 -46z" />
    <glyph glyph-name="colon" unicode=":" horiz-adv-x="368" 
d="M35 856q69 0 108 -47t27 -111q-12 -54 -55.5 -90.5t-98.5 -36.5q-66 0 -105 46.5t-26 109.5q10 54 54.5 91.5t95.5 37.5zM-90 272q70 0 109.5 -46.5t25.5 -110.5q-11 -54 -55 -90.5t-99 -36.5q-66 0 -105 46t-26 109q12 54 55.5 91.5t94.5 37.5z" />
    <glyph glyph-name="semicolon" unicode=";" horiz-adv-x="370" 
d="M35 856q69 0 108 -47t27 -111q-12 -54 -55.5 -90.5t-98.5 -36.5q-66 0 -105 46.5t-26 109.5q10 54 54.5 91.5t95.5 37.5zM-102 264q90 0 125 -48.5t20 -123.5q-17 -76 -75 -161t-122 -126q-16 -3 -29.5 8.5t-11.5 22.5l43 148q-53 6 -82.5 51.5t-17.5 103.5
q10 52 54.5 88.5t95.5 36.5z" />
    <glyph glyph-name="less" unicode="&#x3c;" horiz-adv-x="714" 
d="M436 1174l107 -138q17 -17 10 -22l-375 -314l225 -317q19 -19 13 -25l-166 -139q-9 -4 -23 10l-344 463q-19 20 -12 27l541 465q12 7 24 -10z" />
    <glyph glyph-name="equal" unicode="=" horiz-adv-x="874" 
d="M678 866l-43 -200v-6q-2 -1 -8 -1h-701q-9 0 -18.5 9t-7.5 14l43 201q10 8 12 8h700q9 0 17 -9.5t6 -15.5zM602 512l-43 -203v-3q1 -2 0 -2.5t-8 -0.5h-701q-9 0 -18.5 9t-7.5 14l43 202q2 8 4 8.5t8 0.5h701q9 0 16.5 -9.5t5.5 -15.5z" />
    <glyph glyph-name="greater" unicode="&#x3e;" horiz-adv-x="708" 
d="M-25 1047l164 137q7 4 15 -0.5t10 -9.5l344 -465q20 -19 12 -27l-540 -463q-10 -5 -25 10l-109 140q-18 18 -10 24l375 307l-225 324q-18 18 -11 23z" />
    <glyph glyph-name="question" unicode="?" horiz-adv-x="1003" 
d="M455 1454q98 0 175.5 -29.5t128.5 -87t68 -142t-6 -194.5q-26 -124 -139 -226t-254 -140l-61 -240q0 -5 -1 -5.5t-10 -0.5h-211q-9 0 -18.5 9t-7.5 14l90 424l3 8h1q155 -9 239 49.5t101 136.5q20 90 -14 124t-101 34q-74 0 -134 -42.5t-73 -109.5q-9 -2 -10 -2h-231
q-10 0 -19 10.5t-6 20.5q36 170 177 279.5t313 109.5zM41 152q13 63 60.5 98t103.5 35q70 0 112.5 -44t26.5 -118q-13 -62 -61 -96.5t-105 -34.5q-69 0 -111 43.5t-26 116.5z" />
    <glyph glyph-name="at" unicode="@" horiz-adv-x="1832" 
d="M614 1083q160 0 252 -113t58 -268q-18 -87 -54 -133l127 6l31 150q24 114 7 202t-67 148t-124 91.5t-164 31.5q-114 0 -219 -41.5t-182 -110.5t-130.5 -158t-74.5 -186q-13 -74 -10 -142.5t31 -128t72.5 -103.5t115.5 -69.5t159 -25.5h701q9 0 18.5 -9t7.5 -15l-47 -217
q-7 -8 -10 -8h-700q-111 0 -207 27.5t-167 77t-125 118.5t-80 152t-32.5 177.5t17.5 194.5q31 146 110 277t191.5 230t261.5 157.5t311 58.5q153 0 280 -51.5t211.5 -147.5t117 -234t-4.5 -312l-75 -351q0 -6 -1 -7t-10 -1h-721q-76 0 -140.5 30t-104.5 82t-57 121.5
t1 147.5q31 147 155 249.5t271 102.5zM428 702q-10 -49 13.5 -81.5t66.5 -32.5q59 0 111.5 42.5t64.5 100.5q10 49 -13.5 82t-66.5 33q-59 0 -111.5 -43t-64.5 -101z" />
    <glyph glyph-name="A" unicode="A" horiz-adv-x="1167" 
d="M82 162l-86 -158q-3 -4 -14 -4h-252q-12 0 -21.5 11t-5.5 20l866 1439q6 10 19.5 3.5t13.5 -17.5l254 -1440q4 -13 2 -14.5t-8 -1.5h-254q-6 0 -16 6t-7 10l-24 146h-467zM510 403l-47 431l-242 -431h289z" />
    <glyph glyph-name="B" unicode="B" horiz-adv-x="1234" 
d="M1028 1010q-47 -217 -262 -299q56 -21 92.5 -60t49.5 -78.5t16 -80t0.5 -62t-4.5 -27.5q-17 -81 -54 -146t-80.5 -106t-100.5 -71.5t-103.5 -45t-101.5 -23t-83.5 -10t-58.5 -1.5h-467q-9 0 -18 9.5t-7 15.5l297 1400q1 5 1.5 6t3 2t8.5 1h487q19 0 50.5 -2.5t108.5 -25
t131.5 -62.5t87 -127.5t7.5 -206.5zM293 850h225q8 0 22 1.5t51 12t67 27t59 51t39 80.5t-4 79.5t-40.5 47.5t-54.5 21.5t-49 7.5h-20h-226zM168 262h205q38 0 78 8t83 26t75.5 54.5t43.5 87.5q10 46 -6 77.5t-46 44t-61 18.5t-54 5l-23 -1h-225z" />
    <glyph glyph-name="C" unicode="C" horiz-adv-x="1421" 
d="M549 246q97 0 189 38.5t163 104.5q10 0 18.5 -5.5t10.5 -10.5l131 -164q5 -5 8.5 -15t-0.5 -18q-117 -93 -256.5 -144.5t-280.5 -51.5q-152 0 -276.5 53t-204 151t-109.5 237t7 310q44 210 168.5 375t304 256.5t383.5 91.5q155 0 276.5 -59t190.5 -162q7 0 13 -4t7.5 -9
t-0.5 -8l-200 -161q-6 -4 -15.5 2t-9.5 14q-108 121 -279 121q-212 0 -367 -136.5t-200 -349.5q-43 -209 51.5 -332.5t276.5 -123.5z" />
    <glyph glyph-name="D" unicode="D" horiz-adv-x="1355" 
d="M156 1434h233q850 0 694 -732q-27 -126 -76.5 -229.5t-111 -175t-140.5 -126t-156.5 -86.5t-167.5 -51.5t-167 -26.5t-160 -7h-233q-9 0 -18 9.5t-7 15.5l297 1400q1 5 1.5 6t3 2t8.5 1zM375 1171l-213 -907q32 -4 73.5 -0.5t87.5 7t96 19.5t98 36.5t94 57.5t84.5 83.5
t69.5 114.5t48 149q24 125 6 212t-80.5 139.5t-153 73.5t-210.5 15z" />
    <glyph glyph-name="E" unicode="E" horiz-adv-x="1204" 
d="M295 850h553q7 0 16.5 -9.5t7.5 -15.5l-49 -227q-8 -8 -10 -8h-573l-68 -324h670q9 0 17.5 -9t6.5 -15l-49 -234q-10 -8 -12 -8h-934q-9 0 -18 9.5t-7 15.5l297 1400q1 5 1.5 6t3 2t8.5 1h915q9 0 18 -9.5t7 -15.5l-47 -227q-1 -4 -1 -4.5t-1.5 -2t-3.5 -1.5h-7h-671z
" />
    <glyph glyph-name="F" unicode="F" horiz-adv-x="1187" 
d="M295 844h553q7 0 15.5 -9.5t6.5 -15.5l-47 -227q-8 -8 -10 -8h-573l-123 -576q-1 -4 -1 -4.5t-1.5 -2t-3.5 -1.5h-7h-233q-9 0 -18 9.5t-7 15.5l297 1400q1 5 1.5 6t3 2t8.5 1h934q9 0 17.5 -9.5t6.5 -15.5l-49 -233q-2 -8 -4 -8.5t-8 -0.5h-691z" />
    <glyph glyph-name="G" unicode="G" horiz-adv-x="1583" 
d="M784 829h488q8 0 17 -9t7 -15l-172 -803q-5 -8 -8 -8h-205q-8 0 -17.5 8t-8.5 14l22 119q-166 -155 -401 -155q-149 0 -267.5 50.5t-194.5 147t-101 236t12 317.5q33 154 117 289.5t198.5 230t254.5 149t284 54.5q155 0 276.5 -59t190.5 -162q7 0 13 -4t7.5 -9t-0.5 -8
l-200 -161q-6 -5 -16 2t-9 14q-105 121 -278 121q-129 0 -246 -57.5t-204.5 -169.5t-119.5 -259q-23 -122 -10.5 -208t61.5 -141.5t118.5 -81t160.5 -25.5q202 0 377 155l45 181h-221q-9 0 -19 8t-8 14l45 217q10 8 12 8z" />
    <glyph glyph-name="H" unicode="H" horiz-adv-x="1404" 
d="M977 1434h233q9 0 18 -9.5t7 -15.5l-297 -1401q-10 -8 -12 -8h-234q-9 0 -17.5 9.5t-6.5 15.5l118 559h-542l-123 -576q-10 -8 -12 -8h-234q-9 0 -18 9.5t-7 15.5l297 1400q1 5 1.5 6t3 2t8.5 1h233q9 0 18 -9.5t7 -15.5l-117 -557h543l121 573q2 8 4 8.5t8 0.5z" />
    <glyph glyph-name="I" unicode="I" horiz-adv-x="716" 
d="M238 246h133q9 0 17.5 -9.5t6.5 -15.5l-45 -213q-10 -8 -12 -8h-563q-9 0 -18 9.5t-7 15.5l45 213q10 8 12 8h156l199 942h-127q-9 0 -18 9t-7 15l45 213q1 5 1.5 6t3 2t8.5 1h546q9 0 18 -9.5t7 -15.5l-45 -213q-10 -8 -12 -8h-146z" />
    <glyph glyph-name="J" unicode="J" horiz-adv-x="831" 
d="M162 1436h487q9 0 18 -9.5t7 -15.5l-213 -995q-18 -87 -56 -156.5t-84 -111.5t-97.5 -73t-99 -45t-86.5 -21.5t-62 -8.5h-23h-176q-9 0 -18 9.5t-7 15.5l49 233q1 4 1 4.5t1.5 2t3.5 1.5h7h176q44 0 81.5 17t59 41.5t36.5 49t21 41.5l5 17l161 758h-223q-9 0 -19 9t-8 15
l46 213q2 8 4 8.5t8 0.5z" />
    <glyph glyph-name="K" unicode="K" horiz-adv-x="1323" 
d="M557 705l424 -685q17 -20 -4 -20h-307q-3 0 -16 5.5t-13 6.5l-299 504q-5 -4 -57 -53t-80 -72l-88 -383q-1 -5 -1.5 -6t-2.5 -1.5t-7 -0.5h-235q-9 0 -18 9.5t-7 15.5l297 1400q1 5 1.5 6t3 2t8.5 1h235q7 0 16 -9.5t7 -15.5l-140 -643l678 668h13h292q14 0 26 -12t5 -21
z" />
    <glyph glyph-name="L" unicode="L" horiz-adv-x="1026" 
d="M170 266h489q9 0 18 -9t7 -15l-49 -234q-10 -8 -12 -8h-754q-9 0 -18 9.5t-7 15.5l297 1400q1 5 1.5 6t3 2t8.5 1h235q7 0 16 -9.5t7 -15.5z" />
    <glyph glyph-name="M" unicode="M" horiz-adv-x="1875" 
d="M1702 1411l-299 -1403q-10 -8 -12 -8h-234q-9 0 -17.5 9.5t-6.5 15.5l170 778l-523 -742q-4 -4 -12 -4h-221q-3 0 -10 3.5t-12 7.5t-3 6l-227 747l-176 -813q-1 -4 -1 -4.5t-1.5 -2t-3.5 -1.5h-7h-235q-9 0 -17 9.5t-6 15.5l297 1402q0 2 1 4q0 5 10 5h239q3 0 10 -3.5
t12.5 -7.5t4.5 -6l285 -1046l718 1059q2 4 13 4h237q9 0 19 -9.5t8 -15.5z" />
    <glyph glyph-name="N" unicode="N" horiz-adv-x="1519" 
d="M1348 1409l-297 -1401q-1 -4 -1 -4.5t-1.5 -2t-3.5 -1.5h-7h-235q-2 0 -8.5 2t-12 5t-4.5 5l-454 938l-205 -942q-1 -4 -1 -4.5t-1.5 -2t-3.5 -1.5h-7h-235q-7 0 -16 9.5t-7 15.5l297 1400q1 6 1.5 6.5t2.5 1.5t7 1h237q2 0 8.5 -2.5t12 -5.5t4.5 -5l456 -938l205 942
q1 5 1.5 6t3 2t8.5 1h231q9 0 18 -9.5t7 -15.5z" />
    <glyph glyph-name="O" unicode="O" horiz-adv-x="1306" 
d="M438 381q-151 0 -264.5 74.5t-162 201.5t-17.5 275q46 215 231 368.5t400 153.5q151 0 264.5 -75t162 -202t17.5 -274q-22 -106 -84 -203t-146.5 -167t-189.5 -111t-211 -41zM610 1190q-119 0 -222 -84.5t-128 -202.5q-23 -110 33.5 -184t159.5 -74q120 0 222 83.5
t128 203.5q23 109 -33 183.5t-160 74.5zM864 240l-49 -232q-10 -8 -12 -8h-924q-9 0 -17.5 9.5t-6.5 15.5l49 231q10 8 12 8h924q9 0 17.5 -9t6.5 -15z" />
    <glyph glyph-name="P" unicode="P" horiz-adv-x="1193" 
d="M156 1434h487q6 0 16 -1t42.5 -5t60.5 -12t70 -23.5t71 -37.5t63.5 -55t47.5 -76.5t22.5 -100.5t-10.5 -128q-18 -86 -59 -155t-92 -110.5t-108 -72t-110.5 -44t-97 -21t-69.5 -8.5h-27h-223l-123 -576q-1 -4 -1 -4.5t-1.5 -2t-3.5 -1.5h-7h-233q-9 0 -18 9.5t-7 15.5
l174 817q0 6 1 7t10 1l209 6q-29 63 -79.5 183t-62.5 149l45 237q1 5 1.5 6t3 2t8.5 1zM391 1167l127 -315q30 0 65.5 10t72 29.5t65 54t37.5 78.5q9 41 -1 70t-27 43t-48 21.5t-47.5 8t-41.5 0.5h-7h-195z" />
    <glyph glyph-name="Q" unicode="Q" horiz-adv-x="1683" 
d="M1188 299l98 -147q20 -20 12 -25l-204 -160q-7 -4 -15 0.5t-10 9.5l-108 129q-201 -124 -424 -124q-122 0 -227.5 37t-181.5 104.5t-126.5 161.5t-61 207.5t14.5 242.5q31 146 110.5 277.5t191 229t256 155t296.5 57.5q128 0 236 -39t182 -108t123 -163t58 -204.5
t-13 -232.5q-24 -108 -77.5 -216t-129.5 -192zM1126 735q25 120 -10 224.5t-120.5 166.5t-202.5 62q-92 0 -199 -39l438 -633q71 112 94 219zM553 248q119 0 260 74q-71 105 -453 655q-50 -58 -87 -130t-50 -140q-29 -134 6 -239.5t120 -162.5t204 -57z" />
    <glyph glyph-name="R" unicode="R" horiz-adv-x="1253" 
d="M881 0h-275q-3 0 -9.5 2.5t-11.5 6t-3 5.5l-236 570h-104l-123 -576q-1 -4 -1 -4.5t-1.5 -2t-3.5 -1.5h-7h-233q-9 0 -18 9.5t-7 15.5l175 817q0 6 0.5 7t9.5 1l209 6q-24 54 -71.5 165.5t-70.5 166.5l45 237q1 5 1.5 6t3 2t8.5 1h487q6 0 16 -1t43 -5t61 -12t70 -23.5
t71.5 -37.5t64 -55t47.5 -76.5t22.5 -100.5t-10.5 -128q-63 -294 -377 -383l230 -594q8 -15 5 -17q-1 -1 -7 -1zM401 1167l127 -315q32 1 66 10t68.5 28t61 53.5t36.5 80.5q5 23 4.5 43t-6 33.5t-15 25t-21.5 18t-25.5 11.5t-27.5 7t-27.5 4t-25 1t-20.5 0h-4.5h-3.5h-187z
" />
    <glyph glyph-name="S" unicode="S" horiz-adv-x="1112" 
d="M537 1454q130 0 226 -54.5t138 -154.5t17 -225h-11h-231q-8 0 -17 10t-8 19q11 70 -25.5 104.5t-105.5 34.5q-87 0 -156.5 -51.5t-87.5 -141.5q-16 -71 24 -109t108 -38q19 0 45 -2.5t75 -16t86 -36.5q113 -52 158.5 -157.5t15.5 -240.5q-21 -98 -74 -178t-125 -131
t-156 -78.5t-169 -27.5q-204 5 -314.5 121.5t-70.5 316.5q9 2 10 2h234q8 0 16.5 -10.5t7.5 -20.5q-13 -70 26.5 -106.5t107.5 -36.5q83 0 153.5 50.5t87.5 127.5q16 71 -25.5 116t-103.5 48q-116 0 -209 55q-113 53 -159.5 150.5t-18.5 230.5q28 130 113 230t194.5 150
t223.5 50z" />
    <glyph glyph-name="T" unicode="T" horiz-adv-x="917" 
d="M881 1409l-45 -213q-1 -4 -1 -4.5t-1.5 -2t-3.5 -1.5h-7h-284l-250 -1180q-1 -4 -1 -4.5t-1.5 -2t-3.5 -1.5h-7h-231q-9 0 -18 9.5t-7 15.5l246 1163h-264q-9 0 -18 9t-7 15l46 213q2 8 4 8.5t8 0.5h821q9 0 18 -9.5t7 -15.5z" />
    <glyph glyph-name="U" unicode="U" horiz-adv-x="1515" 
d="M156 1434h1165q9 0 18 -9.5t7 -15.5l-177 -838l-3 -13q-3 -13 -7 -27.5t-11 -36.5t-17.5 -47t-23 -53.5t-30 -60t-37.5 -61.5q-108 -141 -256.5 -216.5t-322.5 -75.5q-191 0 -314 83t-161 238q-42 123 -19 287l178 837q1 6 1.5 6.5t2.5 1.5t7 1zM807 416q29 35 52 78.5
t31.5 67.5t8.5 28l127 598h-659l-127 -600q-3 -12 -5.5 -31t-6 -76t7.5 -94q57 -141 241 -141q219 0 330 170z" />
    <glyph glyph-name="V" unicode="V" horiz-adv-x="1177" 
d="M18 1434h1121q10 0 19 -11t5 -20l-866 -1456q-8 -10 -20.5 -3.5t-14.5 17.5l-252 1456q-3 9 -2 13t10 4zM741 1180h-415l82 -574z" />
    <glyph glyph-name="W" unicode="W" horiz-adv-x="2076" 
d="M2054 1403l-870 -1454q-8 -10 -19.5 -3.5t-13.5 17.5l-186 1096l-658 -1110q-7 -10 -21 -3.5t-12 17.5l-249 1454q-3 9 -2 13t10 4h252q6 0 14.5 -7.5t7.5 -11.5l119 -768l465 783q1 4 12 4h252q7 0 17.5 -6.5t7.5 -10.5l125 -770l458 783q1 4 13 4h252q12 0 21 -11
t5 -20z" />
    <glyph glyph-name="X" unicode="X" horiz-adv-x="1380" 
d="M-279 33l652 690q-190 375 -336 696q-16 6 -15 11q2 4 9 4h286q2 0 8.5 -2.5t12 -5.5t4.5 -5l233 -471l447 484q1 2 2.5 2t4 -1t3.5 -1h287q14 0 24.5 -12t4.5 -21l-656 -690q151 -293 340 -697q18 -8 12 -12q-3 -2 -10 -2h-286q-2 0 -8.5 2t-12 5t-4.5 5l-231 471
l-449 -483q-1 -2 -2.5 -2t-4 1t-3.5 1h-287q-12 0 -22 12t-3 21z" />
    <glyph glyph-name="Y" unicode="Y" horiz-adv-x="1320" 
d="M997 1434h287q14 0 24.5 -12t4.5 -21l-682 -727l-146 -666q-10 -8 -12 -8h-233q-9 0 -18 9.5t-7 15.5l145 655q-28 58 -88.5 179.5t-96 193.5t-84.5 175t-89 191q-16 6 -15 11q3 4 11 4h285q2 0 8 -2.5t11.5 -5.5t4.5 -5l234 -471l448 484q1 2 2 2t3 -1t3 -1z" />
    <glyph glyph-name="Z" unicode="Z" horiz-adv-x="972" 
d="M653 242l-49 -234q-10 -8 -12 -8h-815q-12 0 -21.5 11t-5.5 20l701 1136h-428q-9 0 -18 9.5t-7 15.5l49 233q2 8 4 8.5t8 0.5h815q12 0 21.5 -11t5.5 -20l-700 -1137h428q9 0 17.5 -9t6.5 -15z" />
    <glyph glyph-name="bracketleft" unicode="[" horiz-adv-x="704" 
d="M150 1434h466q9 0 18 -9.5t7 -15.5l-49 -233q-2 -8 -4 -8.5t-8 -0.5h-222l-190 -901h201q9 0 17.5 -9t6.5 -15l-49 -234q-10 -8 -12 -8h-467q-7 0 -16 9.5t-7 15.5l297 1400q1 6 1.5 6.5t2.5 1.5t7 1z" />
    <glyph glyph-name="backslash" unicode="\" horiz-adv-x="929" 
d="M258 1417l348 -1403q1 -3 2 -8q2 -4 0.5 -6t-8.5 -2h-240q-3 0 -9.5 3t-12 7t-4.5 6l-346 1403q0 3 -2 8t-0.5 7t8.5 2h239q3 0 10 -3.5t12 -7.5t3 -6z" />
    <glyph glyph-name="bracketright" unicode="]" horiz-adv-x="720" 
d="M563 1409l-297 -1401q0 -2 -1 -5q0 -3 -9 -3h-467q-9 0 -18 9.5t-7 15.5l50 233q10 8 12 8h223l191 901h-203q-9 0 -18 9.5t-7 15.5l49 233q1 5 1.5 6t3 2t8.5 1h467q9 0 16.5 -9.5t5.5 -15.5z" />
    <glyph glyph-name="asciicircum" unicode="^" horiz-adv-x="1216" 
d="M795 991l-156 -121q-14 -8 -27 11l-229 262q-164 -127 -340 -279q-20 0 -31 17l-104 120q-20 20 -10 27l516 406q7 4 15.5 -0.5t10.5 -10.5l344 -405q20 -20 11 -27z" />
    <glyph glyph-name="underscore" unicode="_" horiz-adv-x="1103" 
d="M729 6l-41 -192q-2 -8 -4 -8.5t-8 -0.5h-926q-9 0 -17.5 9.5t-6.5 15.5l41 193q0 7 0.5 7.5t9.5 0.5h925q9 0 19 -9.5t8 -15.5z" />
    <glyph glyph-name="grave" unicode="`" horiz-adv-x="542" 
d="M494 1257l-132 -159q-6 -6 -22 4l-328 198q-8 2 -14.5 11.5t-3.5 15.5l141 168q6 6 25 -4l315 -205q7 -3 14.5 -13t4.5 -16z" />
    <glyph glyph-name="a" unicode="a" horiz-adv-x="1169" 
d="M82 162l-86 -158q-3 -4 -14 -4h-252q-12 0 -21.5 11t-5.5 20l866 1439q6 10 19.5 3.5t13.5 -17.5l254 -1440q4 -13 2 -14.5t-8 -1.5h-254q-6 0 -16 6t-7 10l-24 146h-467zM510 403l-47 431l-242 -431h289z" />
    <glyph glyph-name="b" unicode="b" horiz-adv-x="1234" 
d="M1022 1014q-44 -212 -258 -291q56 -21 91.5 -61.5t47.5 -82t14 -84.5t-1 -65.5t-5 -28.5q-17 -80 -54 -145t-79.5 -106t-98.5 -71t-102.5 -44.5t-101 -23t-82.5 -10t-59 -1.5h-463q-7 0 -16 9.5t-7 15.5l297 1400q1 6 1.5 6.5t2.5 1.5t7 1h483q6 0 16 -0.5t42.5 -3.5
t60.5 -10.5t70 -21t71 -35t63.5 -52.5t47.5 -73t22.5 -98t-10.5 -126zM293 844h201q22 0 53.5 6.5t76.5 24t81.5 57.5t48.5 96q10 46 -4 77.5t-41 44t-55 18t-49 4.5l-21 -1h-222zM168 262h201q38 0 78 8t83 26.5t75.5 55t43.5 86.5q10 45 -2 76.5t-31 46.5t-53.5 23t-52 9
t-43.5 1h-6h-221z" />
    <glyph glyph-name="c" unicode="c" horiz-adv-x="1421" 
d="M545 244q96 0 186.5 37.5t161.5 103.5q10 0 18.5 -5.5t10.5 -10.5l131 -162q5 -5 8 -15.5t0 -17.5q-117 -92 -255.5 -143t-277.5 -51q-151 0 -274 52.5t-202.5 150t-109.5 235t7 307.5q45 209 168 375t302.5 260t381.5 94q154 0 274.5 -57.5t190.5 -159.5q10 0 16.5 -7.5
t1.5 -12.5l-197 -160q-7 -4 -16.5 2t-7.5 14q-109 119 -277 119q-104 0 -200 -38.5t-168.5 -105.5t-124.5 -158t-74 -194q-43 -207 51.5 -329.5t274.5 -122.5z" />
    <glyph glyph-name="d" unicode="d" horiz-adv-x="1355" 
d="M158 1434h231q63 0 119.5 -4t122 -14.5t121 -28t111 -47t97.5 -68t75 -94t49.5 -122.5t15.5 -156t-23 -193q-27 -125 -76.5 -228.5t-110.5 -175.5t-139 -127t-155.5 -87.5t-166.5 -53t-166 -28t-159 -7.5h-231q-9 0 -18 9.5t-7 15.5l297 1400q1 5 1.5 6t3 2t8.5 1z
M377 1180l-217 -924q42 -2 85 0.5t101.5 13.5t111.5 30.5t110 56.5t102 86.5t83 124.5t58 167q16 79 16.5 143t-13.5 111t-43 82.5t-67.5 57.5t-91 35t-109.5 16.5t-126 -0.5z" />
    <glyph glyph-name="e" unicode="e" horiz-adv-x="1204" 
d="M293 842h549q9 0 16.5 -9.5t5.5 -15.5l-47 -223q-1 -2 -1 -5t-9 -3h-569l-70 -328h666q9 0 17.5 -9.5t6.5 -15.5l-47 -225q-10 -8 -12 -8h-928q-7 0 -16 9.5t-7 15.5l297 1400q1 6 1.5 6.5t2.5 1.5t7 1h927q9 0 18 -9.5t7 -15.5l-47 -227q-10 -8 -12 -8h-687z" />
    <glyph glyph-name="f" unicode="f" horiz-adv-x="1187" 
d="M293 842h549q9 0 16.5 -9.5t5.5 -15.5l-49 -229q-1 -2 -1 -5t-9 -3h-569l-121 -572q-10 -8 -11 -8h-233q-7 0 -16 9.5t-7 15.5l295 1388q1 5 1.5 6t2.5 1.5t7 0.5h927q9 0 18 -9t7 -15l-49 -232q-1 -4 -1 -4.5t-1.5 -2t-3.5 -1.5h-7h-686z" />
    <glyph glyph-name="g" unicode="g" horiz-adv-x="1583" 
d="M666 829h604q9 0 18.5 -9t7.5 -15l-170 -801q-10 -8 -12 -8h-205q-8 0 -16.5 8t-7.5 14l22 111q-186 -152 -399 -152q-149 0 -267.5 50.5t-194.5 147.5t-101 237t12 319q33 154 117 289.5t197.5 230t254 149t283.5 54.5q156 0 276.5 -58t190.5 -161q7 0 13 -4t7.5 -9
t-0.5 -8l-200 -161q-6 -4 -15.5 2t-9.5 14q-108 121 -276 121q-198 0 -360 -133.5t-210 -354.5q-24 -122 -11.5 -209t61 -142.5t118 -81t160.5 -25.5q103 0 202.5 42t180.5 113l45 191h-346q-9 0 -18 9t-7 15l43 207q1 4 1 4.5t1.5 2t3.5 1.5h7z" />
    <glyph glyph-name="h" unicode="h" horiz-adv-x="1404" 
d="M971 1434h233q7 0 16 -9.5t7 -15.5l-297 -1401q-8 -8 -10 -8h-234q-9 0 -17.5 9.5t-6.5 15.5l120 573h-536l-125 -590q-10 -8 -12 -8h-232q-9 0 -17.5 9.5t-6.5 15.5l297 1400q2 8 4 8.5t8 0.5h231q9 0 18 -9.5t7 -15.5l-117 -551h537l120 567q1 5 1.5 6t3 2t8.5 1z" />
    <glyph glyph-name="i" unicode="i" horiz-adv-x="573" 
d="M-152 25l297 1400q1 5 1.5 6t3 2t8.5 1h231q9 0 18 -9.5t7 -15.5l-297 -1401q-1 -4 -1 -4.5t-1.5 -2t-3.5 -1.5h-7h-231q-9 0 -18 9.5t-7 15.5z" />
    <glyph glyph-name="j" unicode="j" horiz-adv-x="831" 
d="M412 1434h233q7 0 16 -9.5t7 -15.5l-211 -997q-18 -86 -56 -155t-83.5 -111t-96.5 -72.5t-98 -44t-85.5 -21t-61.5 -8.5h-23h-174q-9 0 -18 9.5t-7 15.5l49 231q1 4 1 4.5t1.5 2t3.5 1.5h7h174q44 0 80.5 17t57.5 41t36 48t20 41l6 17l211 997q0 2 1 4q0 5 10 5z" />
    <glyph glyph-name="k" unicode="k" horiz-adv-x="1323" 
d="M557 705l422 -685q17 -20 -4 -20h-305q-3 0 -16 5.5t-13 6.5l-299 504q-12 -11 -60 -56.5t-75 -68.5l-88 -383q-1 -4 -1 -4.5t-1.5 -2t-3.5 -1.5h-7h-233q-9 0 -18 9.5t-7 15.5l297 1400q1 5 1.5 6t3 2t8.5 1h233q9 0 18 -9.5t7 -15.5l-144 -655l680 680h13h290
q14 0 26 -12t5 -21z" />
    <glyph glyph-name="l" unicode="l" horiz-adv-x="1026" 
d="M170 264h483q9 0 18 -9t7 -15l-49 -232q-1 -4 -1 -4.5t-1.5 -2t-3.5 -1.5h-7h-745q-9 0 -18 9.5t-7 15.5l297 1400q1 5 1.5 6t3 2t8.5 1h231q9 0 18 -9.5t7 -15.5z" />
    <glyph glyph-name="m" unicode="m" horiz-adv-x="1875" 
d="M1690 1409l-297 -1401q-1 -4 -1 -4.5t-1.5 -2t-3.5 -1.5h-7h-231q-9 0 -18 9.5t-7 15.5l174 798l-524 -764q-2 -4 -12 -4h-219q-3 0 -9.5 3.5t-11 7.5t-2.5 6l-221 768l-180 -832q-1 -4 -1 -4.5t-1.5 -2t-3.5 -1.5h-7h-231q-9 0 -18 9.5t-7 15.5l297 1400q1 5 1.5 6t3 2
t8.5 1h235q3 0 10 -3.5t12 -7.5t3 -6l280 -1048l717 1061q2 4 13 4h235q9 0 18 -9.5t7 -15.5z" />
    <glyph glyph-name="n" unicode="n" horiz-adv-x="1519" 
d="M1341 1411l-299 -1403q-10 -8 -12 -8h-233q-2 0 -8.5 2t-12 5t-4.5 5l-448 949l-207 -953q-1 -5 -1.5 -6t-2.5 -1.5t-7 -0.5h-233q-9 0 -17 9.5t-6 15.5l297 1402q0 2 1 4q0 5 10 5h235q2 0 8 -2.5t11 -5.5t4 -5l450 -956l207 960q2 8 4 8.5t8 0.5h230q9 0 18.5 -9.5
t7.5 -15.5z" />
    <glyph glyph-name="o" unicode="o" horiz-adv-x="1632" 
d="M788 1454q100 0 186 -22t150 -61.5t113.5 -94t79.5 -120t45 -139.5t13 -153t-19 -159q-29 -138 -100 -265.5t-175.5 -230.5t-251.5 -165t-313 -62q-102 0 -189 22t-151 61.5t-113.5 94.5t-79 121t-44.5 140t-13 152.5t19 159.5q30 138 100 265t174.5 230t252 164.5
t316.5 61.5zM530 240q107 0 203.5 42t166.5 111.5t118 156t67 179.5q12 59 12.5 115.5t-10.5 108.5t-36.5 96t-63 76.5t-92 50.5t-121.5 18q-108 0 -205 -42.5t-167 -112.5t-118 -157.5t-67 -181.5q-12 -70 -13 -136.5t21.5 -125.5t59.5 -103t100.5 -69.5t144.5 -25.5z" />
    <glyph glyph-name="p" unicode="p" horiz-adv-x="1187" 
d="M156 1434h465q17 0 37.5 -1.5t62 -8t76.5 -18.5t80 -34t73 -54.5t55.5 -79t27.5 -108.5t-11 -143q-18 -85 -58 -153.5t-85 -110.5t-105 -72.5t-105.5 -44.5t-99 -22t-72 -8.5t-38.5 -0.5h-223l-121 -571q-10 -8 -11 -8h-233q-8 0 -17 9t-8 15l299 1405q1 6 1.5 6.5
t2.5 1.5t7 1zM291 840h203q17 0 38.5 2.5t59 13t68.5 27.5t58.5 52t37.5 81q9 43 -3 74.5t-32 46t-52.5 22.5t-48 9t-34.5 1h-224z" />
    <glyph glyph-name="q" unicode="q" horiz-adv-x="1693" 
d="M1274 123l-197 -160q-9 -7 -26 10l-109 125q-203 -118 -416 -118q-108 0 -201.5 28t-162 78.5t-120.5 120.5t-77 153.5t-31 178t17 194.5q31 145 107 275.5t185 229.5t253.5 157.5t302.5 58.5q106 0 199 -28t162 -78t121.5 -119.5t78 -153t32 -177.5t-17.5 -193
q-23 -108 -78 -221.5t-131 -198.5l99 -135q20 -20 10 -27zM541 242q109 0 241 61q-70 105 -88 135q-7 0 -13 4t-7.5 9t0.5 8l200 162q9 7 27 -11l107 -114q77 113 102 237q13 73 12.5 140.5t-24.5 125.5t-64 101t-104 67.5t-146 24.5q-106 0 -203 -40.5t-169.5 -108
t-123 -155t-71.5 -183.5q-13 -73 -10.5 -141t28 -126.5t66 -102t102.5 -68.5t138 -25z" />
    <glyph glyph-name="r" unicode="r" horiz-adv-x="1226" 
d="M236 580l-121 -572q-1 -4 -1 -4.5t-1.5 -2t-3.5 -1.5h-7h-233q-7 0 -16 9.5t-7 15.5l297 1400q1 6 1.5 6.5t2.5 1.5t7 1h462q19 0 38 -1t56 -5.5t67 -13t70.5 -23.5t67.5 -38t58 -55.5t41 -76t17 -100.5t-13 -128q-59 -278 -338 -381q19 -104 66.5 -304.5t66.5 -299.5
q20 -8 0 -8h-256q-3 0 -10 3t-12.5 7t-4.5 6l-137 564h-157zM293 842h199q23 0 47 2.5t59.5 13.5t64 29.5t54 53t35.5 81.5q9 43 -2 74t-30 45.5t-51 22.5t-48.5 9t-38.5 1h-220z" />
    <glyph glyph-name="s" unicode="s" horiz-adv-x="1112" 
d="M262 -20q-203 5 -312 120.5t-71 315.5h10h232q8 0 17.5 -9.5t6.5 -19.5q-11 -71 27.5 -107t106.5 -36q82 0 152 49.5t87 126.5q14 70 -27.5 115.5t-99.5 48.5q-118 0 -209 53q-109 53 -155 155.5t-17 233.5q27 129 110.5 228t192 148.5t222.5 49.5q197 0 305.5 -120.5
t70.5 -307.5q-9 -2 -10 -2h-229q-8 0 -17 10.5t-8 20.5q11 69 -24.5 103t-102.5 34q-87 0 -156 -50.5t-88 -142.5q-14 -71 23.5 -114t103.5 -43q18 0 44.5 -2.5t75 -16t85.5 -35.5q112 -52 157 -157t17 -238q-21 -98 -74 -177.5t-124.5 -129.5t-154 -77t-167.5 -27z" />
    <glyph glyph-name="t" unicode="t" horiz-adv-x="917" 
d="M872 1397l-45 -213q-1 -6 -1.5 -6h-10.5h-283l-247 -1170q-10 -8 -11 -8h-231q-9 0 -17 9.5t-6 15.5l244 1153h-262q-9 0 -18 8t-7 14l46 213q10 8 12 8h813q9 0 17.5 -9t6.5 -15z" />
    <glyph glyph-name="u" unicode="u" horiz-adv-x="1398" 
d="M399 -20q-115 0 -209.5 35t-157.5 97.5t-87.5 155t-1.5 201.5l200 944q1 4 1 4.5t1.5 2t3.5 1.5h7h231q9 0 18 -9t7 -15l-203 -942q-9 -103 50 -157t157 -54q116 0 215 61t121 164l200 944q1 4 1 4.5t1.5 2t3.5 1.5h7h233q7 0 16 -9t7 -15l-201 -944
q-46 -222 -218.5 -347.5t-402.5 -125.5z" />
    <glyph glyph-name="v" unicode="v" horiz-adv-x="1169" 
d="M881 1434h249q12 0 21.5 -11t5.5 -20l-862 -1436q-6 -8 -18.5 -1.5t-14.5 16.5l-248 1435q0 3 -2 8t-0.5 7t8.5 2h250q6 0 15 -7.5t8 -11.5l115 -792l460 807q1 4 13 4z" />
    <glyph glyph-name="w" unicode="w" horiz-adv-x="2058" 
d="M2032 1403l-865 -1454q-7 -10 -18.5 -3.5t-11.5 17.5l-183 1100l-655 -1114q-8 -10 -20.5 -3.5t-14.5 17.5l-244 1454q-3 9 -1.5 13t10.5 4h250q6 0 14.5 -7.5t7.5 -11.5l113 -790l463 805q1 4 10 4h258q6 0 14.5 -7.5t7.5 -11.5l115 -790l463 805q1 4 12 4h250
q12 0 21 -11t4 -20z" />
    <glyph glyph-name="x" unicode="x" horiz-adv-x="1380" 
d="M-276 33l647 684q-134 262 -332 702q-16 6 -15 11q3 4 11 4h282q2 0 8.5 -2.5t12 -5.5t4.5 -5l229 -479l445 492q1 2 2.5 2t4 -1t3.5 -1h285q12 0 22 -12t4 -21l-651 -696q118 -228 340 -691q4 -2 6.5 -4.5t3.5 -4.5t-1.5 -3.5t-8.5 -1.5h-285q-2 0 -8 2t-11.5 5t-4.5 5
l-228 467l-446 -479q-1 -2 -2.5 -2t-4 1t-3.5 1h-283q-14 0 -23.5 12t-2.5 21z" />
    <glyph glyph-name="y" unicode="y" horiz-adv-x="1341" 
d="M1012 1434h284q14 0 24.5 -12t4.5 -21l-678 -731l-145 -662q-1 -4 -1 -4.5t-1.5 -2t-3.5 -1.5h-7h-231q-9 0 -18 9.5t-7 15.5l144 651q-183 373 -352 743q-16 6 -16 11q3 4 11 4h285q1 0 7 -2.5t11.5 -5.5t4.5 -5l229 -479l447 492q1 2 2.5 2t3 -1t2.5 -1z" />
    <glyph glyph-name="z" unicode="z" horiz-adv-x="1193" 
d="M840 0h-1127q-11 0 -21.5 11t-4.5 20l944 1138h-608q-7 0 -17 9.5t-8 15.5l49 231q8 9 10 9h1067q12 0 22 -12t7 -21l-942 -1137h666q9 0 16.5 -9t5.5 -15l-49 -232q0 -2 -1 -5q0 -3 -9 -3z" />
    <glyph glyph-name="braceleft" unicode="{" horiz-adv-x="708" 
d="M88 854l123 571q2 8 4 8.5t8 0.5h391q9 0 17 -9.5t6 -15.5l-49 -233q-1 -2 -1 -5q0 -4 -9 -4h-148l-190 -901h127q9 0 16.5 -9t5.5 -15l-49 -234q0 -2 -1 -5q0 -3 -9 -3h-391q-9 0 -18 9.5t-7 15.5l127 559q-74 40 -211 125q-26 2 -31 15q0 6 6 9z" />
    <glyph glyph-name="bar" unicode="|" horiz-adv-x="575" 
d="M137 1434h234q9 0 17.5 -9.5t6.5 -15.5l-297 -1401q-10 -8 -12 -8h-233q-9 0 -18 9.5t-7 15.5l297 1400q2 8 4 8.5t8 0.5z" />
    <glyph glyph-name="braceright" unicode="}" horiz-adv-x="737" 
d="M315 580l-122 -572q-1 -4 -1 -4.5t-1.5 -2t-3.5 -1.5h-7h-391q-9 0 -16.5 9.5t-5.5 15.5l49 233q0 2 1 5q0 3 9 3h147l191 901h-127q-9 0 -17 9.5t-6 15.5l49 233q0 2 1 4q0 5 10 5h391q9 0 17.5 -9.5t6.5 -15.5l-127 -559q111 -60 211 -125q27 -2 32 -15q2 -7 -7 -10z
" />
    <glyph glyph-name="asciitilde" unicode="~" horiz-adv-x="950" 
d="M68 528l-181 54q-9 2 -17 10t-5 18q41 112 116.5 165.5t172.5 53.5q100 0 206 -53l-2 -2q0 -1 12 0h3q30 -20 55 -20q61 0 96 69q3 -1 21 -6l182 -55q8 0 17 -11.5t6 -21.5q-62 -114 -131.5 -162.5t-153.5 -48.5q-101 0 -205 49l-31 13q-10 3 -24 8t-23 7.5t-14 2.5
q-51 0 -78 -74q-2 0 -22 4z" />
    <glyph glyph-name="exclamdown" unicode="&#xa1;" horiz-adv-x="565" 
d="M233 1135q-71 0 -112 50t-27 115q12 56 58.5 95t103.5 39q70 0 111.5 -48.5t27.5 -113.5q-11 -56 -59 -96.5t-103 -40.5zM96 -16h-233q-9 0 -19 9t-8 15l211 993q2 8 4 8.5t8 0.5h234q9 0 17.5 -9.5t6.5 -15.5l-211 -993q-7 -8 -10 -8z" />
    <glyph glyph-name="cent" unicode="&#xa2;" horiz-adv-x="1187" 
d="M244 23l37 124q-190 50 -288 213t-54 371q43 199 199 353t364 204l45 166q10 8 12 8h180q9 0 18 -9t7 -15l-39 -140q95 -12 173 -59.5t126 -116.5q11 -6 15 -20.5t-3 -22.5l-157 -129q-17 -13 -33.5 -4.5t-18.5 27.5q-55 52 -135 71l-160 -653q100 23 170 96
q35 13 64 -24l100 -121q10 -34 4 -55q-175 -129 -372 -152l-37 -129q-10 -8 -12 -8h-181q-9 0 -17.5 9.5t-6.5 15.5zM207 702q-21 -100 7 -177.5t103 -116.5l146 610q-92 -45 -163 -129.5t-93 -186.5z" />
    <glyph glyph-name="sterling" unicode="&#xa3;" horiz-adv-x="1212" 
d="M524 487l-299 -8q-53 -138 -73 -211l698 8q9 0 17.5 -9t6.5 -15l-51 -244q-10 -8 -12 -8h-975q-9 0 -17.5 9.5t-6.5 15.5l24 120q41 192 103 351l-111 -9q-9 0 -19 8.5t-8 14.5l54 246q0 6 0.5 6h9.5l205 6q34 59 63 115q169 227 414 391q79 42 164.5 74t147.5 47.5
t118.5 25t79.5 11.5t30 2q16 0 26.5 -9t8.5 -16l-51 -244l-2 -8q-21 0 -63 -5.5t-140.5 -39t-185.5 -90.5q-170 -92 -299 -266l180 6q9 0 19 -8.5t8 -14.5l-53 -245q0 -6 -1 -6.5t-10 -0.5z" />
    <glyph glyph-name="yen" unicode="&#xa5;" horiz-adv-x="1310" 
d="M997 1434h287q14 0 24.5 -12t4.5 -21l-563 -598h131q9 0 17.5 -9.5t6.5 -15.5l-39 -186q-10 -8 -12 -8h-246l-18 -86h225q9 0 18 -9.5t7 -15.5l-37 -180q-10 -8 -12 -8h-246l-60 -277q-10 -8 -12 -8h-233q-9 0 -18 9.5t-7 15.5l55 260h-233q-9 0 -19 9t-8 15l39 180
q2 8 4 8.5t8 0.5h254l19 86h-236q-9 0 -18.5 9t-7.5 15l41 187q10 8 12 8l166 6q-173 349 -289 610q-16 6 -15 11q3 4 11 4h285q2 0 8 -2.5t11.5 -5.5t4.5 -5l232 -479l450 492q1 2 2 2t3 -1t3 -1z" />
    <glyph glyph-name="section" unicode="&#xa7;" horiz-adv-x="851" 
d="M557 1417q84 -39 121.5 -115t17.5 -172q-2 -2 -12 -2h-170q-9 0 -17 10.5t-5 20.5q12 62 -21 88q-60 12 -61 13q-12 -3 -29 -3l-8 -2h2q-57 -14 -70 -20h2q-70 -31 -84 -105q-15 -63 19 -90q31 -8 90 -8l12 -2q12 -1 25 -4t30 -7.5t35 -12t33 -17.5q87 -38 122 -114
t15 -175q-25 -124 -127 -208q64 -88 35 -220q-19 -87 -76.5 -158t-142.5 -112q-88 -33 -187 -33q-19 0 -68 16q-38 12 -65 29q-83 39 -121 115.5t-18 171.5q2 2 12 2h170q9 0 17.5 -10.5t5.5 -20.5q-12 -63 22 -88q26 -8 89 -8q12 0 42 13q15 6 27 14q73 20 88 98
q15 64 -16 88q-39 10 -92 10q-5 0 -24 3.5t-53 14t-59 25.5q-80 41 -117.5 118t-19.5 171q26 126 129 211q-65 86 -37 217q19 87 77.5 158t142.5 113q93 32 186 32q78 -8 133 -45zM221 801q-32 -9 -57.5 -35.5t-32.5 -63.5q-11 -56 23 -90q41 -8 88 -8q1 1 11.5 4t27 9
t30.5 14q33 9 57 35t31 65q11 54 -20 88q-41 8 -88 8q0 -1 -12 -4.5t-29.5 -9.5t-28.5 -12z" />
    <glyph glyph-name="dieresis" unicode="&#xa8;" horiz-adv-x="770" 
d="M287 1284q-10 -55 -57.5 -94t-102.5 -39q-67 0 -108 48.5t-29 113.5q12 55 58 94t99 39q69 0 111 -49t29 -113zM705 1284q-10 -55 -57 -94t-101 -39q-69 0 -110 48.5t-29 113.5q12 55 58.5 94t100.5 39q69 0 110.5 -48.5t27.5 -113.5z" />
    <glyph glyph-name="copyright" unicode="&#xa9;" horiz-adv-x="1417" 
d="M676 1434q175 0 304.5 -85.5t183.5 -231.5t18 -316q-34 -164 -143 -301.5t-264 -217t-320 -79.5q-174 0 -303 84t-183.5 228.5t-19.5 313.5q27 123 97.5 235t167.5 193t218 129t244 48zM455 389q121 0 235.5 59.5t195 161t105.5 219.5q24 114 -9 209.5t-114 151
t-192 55.5q-182 0 -340.5 -130.5t-198.5 -313.5q-35 -170 58.5 -291t259.5 -121zM522 647q82 0 142 60q15 0 26 -17l60 -63q6 -6 6 -31q-102 -76 -219 -76q-129 0 -205.5 93.5t-48.5 217.5q25 118 125.5 202.5t214.5 84.5q70 0 122.5 -26.5t79.5 -71.5q10 -1 16 -8.5
t1 -12.5l-82 -63q-6 -4 -15.5 2t-7.5 14q-42 39 -100 39q-77 0 -143.5 -55t-81.5 -133q-15 -66 16.5 -111t93.5 -45z" />
    <glyph glyph-name="guillemotleft" unicode="&#xab;" horiz-adv-x="1032" 
d="M336 1128l127 -116q20 -15 14 -25l-340 -330l199 -309q15 -15 6 -22l-178 -123q-5 -4 -13 1t-10 11l-282 438q-11 17 -9 21l463 465q5 4 13 -1t10 -10zM743 1128l127 -116q21 -16 15 -25l-320 -330l178 -309q16 -16 7 -22l-179 -123q-5 -4 -12.5 1t-9.5 11l-279 438
q-11 17 -8 21l459 465q5 4 12.5 -0.5t9.5 -10.5z" />
    <glyph glyph-name="registered" unicode="&#xae;" horiz-adv-x="1382" 
d="M666 1434q88 0 166.5 -23t139 -64.5t108 -99.5t72.5 -128t32 -151t-13 -167q-34 -164 -143 -301.5t-264 -217t-320 -79.5q-130 0 -238 49.5t-174 134.5t-94 199t1 243q27 123 97.5 235t167.5 193t218 129t244 48zM446 403q178 0 331 125.5t190 300.5q35 168 -52 284
t-251 116q-175 0 -329 -126t-192 -302q-35 -165 54 -281.5t249 -116.5zM473 756l-51 -240q-10 -8 -12 -8h-101q-8 0 -16 8.5t-8 15.5l123 574q0 2 1 5q0 3 9 3h198q102 0 156 -58t35 -143q-19 -94 -137 -147l53 -242q0 -3 2 -7q2 -5 0.5 -7t-10.5 -2h-109q-3 0 -9.5 3
t-11.5 7t-3 6l-58 232h-51zM498 872h67q40 0 70 22t35 50q5 20 -9 32t-51 13h-88z" />
    <glyph glyph-name="degree" unicode="&#xb0;" horiz-adv-x="747" 
d="M258 819q-141 0 -222 99.5t-52 236.5q28 128 136 218.5t234 90.5q141 0 222.5 -100.5t52.5 -237.5q-28 -127 -136.5 -217t-234.5 -90zM354 1274q-60 0 -113 -44.5t-65 -103.5q-10 -49 13.5 -81.5t68.5 -32.5q60 0 113 42.5t65 100.5q10 49 -14 84t-68 35z" />
    <glyph glyph-name="plusminus" unicode="&#xb1;" horiz-adv-x="1060" 
d="M829 872l-43 -202q-8 -6 -10 -6h-301l-65 -310q-1 -4 -1 -4.5t-1.5 -2t-3.5 -1.5h-7h-209q-9 0 -16.5 9.5t-5.5 15.5l61 293h-282q-8 0 -17.5 8.5t-9.5 13.5l43 203q10 8 12 8h303l66 303q0 2 1 5q0 3 9 3h209q9 0 18 -9t7 -15l-62 -287h281q7 0 16.5 -9.5t7.5 -15.5z
M-133 250l-49 -234h784l49 234h-784z" />
    <glyph glyph-name="twosuperior" unicode="&#xb2;" horiz-adv-x="698" 
d="M422 739l-29 -133q-8 -8 -10 -8h-471q-9 0 -18 9.5t-7 15.5l21 114l362 400q78 80 61 125q-9 22 -34 22q-38 0 -71.5 -23t-41.5 -63q-2 -2 -12 -2h-133q-9 0 -17.5 10.5t-5.5 20.5q20 98 98 160.5t183 62.5q77 0 133 -34.5t79 -89.5t3 -129.5t-86 -147.5l-276 -287h247
q8 0 17 -8.5t8 -14.5z" />
    <glyph glyph-name="threesuperior" unicode="&#xb3;" horiz-adv-x="681" 
d="M532 1169q-22 -105 -116 -157q74 -62 51 -176q-24 -113 -109 -175.5t-188 -62.5q-114 0 -177 78.5t-40 187.5h10h133q9 0 17.5 -9.5t7.5 -18.5q-7 -32 5.5 -52t37.5 -20q45 0 85 30.5t48 69.5q8 37 -1.5 61.5t-37.5 24.5h-55q-16 0 -27.5 8t-9.5 15l24 112q1 5 1.5 6t3 2
t8.5 1h57q35 0 66 33t39 71q6 30 -9.5 50t-42.5 20q-40 0 -79 -30t-46 -69q-2 -2 -12 -2h-129q-9 0 -17 10.5t-5 20.5q20 97 102 166.5t180 69.5q115 0 182 -76t43 -189z" />
    <glyph glyph-name="acute" unicode="&#xb4;" horiz-adv-x="569" 
d="M61 1124l-63 162q-1 3 -5.5 7.5t-5 6t2.5 3.5l428 208q9 3 18.5 -3.5t9.5 -12.5l74 -166q1 -2 2 -5.5t2 -6t0.5 -5t-2.5 -3.5l-432 -201q-7 -3 -18 3.5t-11 12.5z" />
    <glyph glyph-name="periodcentered" unicode="&#xb7;" horiz-adv-x="417" 
d="M55 874q73 0 114.5 -49t27.5 -116q-12 -56 -59 -95t-105 -39q-69 0 -110 48.5t-27 113.5q12 57 58.5 97t100.5 40z" />
    <glyph glyph-name="cedilla" unicode="&#xb8;" horiz-adv-x="878" 
d="M31 -481q-156 0 -242.5 109t-54.5 259q7 2 8 2h190q9 0 17.5 -10t7.5 -20q-10 -49 13 -82t69 -33q58 0 109 42t65 101q10 50 -13 82.5t-67 32.5q-16 0 -26.5 9t-8.5 16l41 192q1 4 1 6h1q154 0 242 -108.5t57 -257.5q-31 -140 -151 -240t-258 -100z" />
    <glyph glyph-name="onesuperior" unicode="&#xb9;" horiz-adv-x="546" 
d="M383 1409l-145 -692q-1 -4 -1 -4.5t-1.5 -2t-3.5 -1.5h-7h-135q-9 0 -19 9t-8 15l111 504l-80 -31q-7 -3 -16.5 3.5t-9.5 11.5l-25 125q-1 2 -3 6.5t-2 7t5 4.5l205 70h110q9 0 18 -9.5t7 -15.5z" />
    <glyph glyph-name="guillemotright" unicode="&#xbb;" horiz-adv-x="1021" 
d="M-49 1022l178 117q7 4 16 -1.5t11 -11.5l268 -464q11 -16 8 -21l-465 -436q-9 -7 -24 8l-129 125q-11 17 -9 24l318 295l-164 342q-12 17 -8 23zM338 1022l176 117q7 4 17 -1.5t12 -11.5l268 -464q11 -16 8 -21l-465 -436q-10 -8 -26 8l-125 123q-19 18 -13 24l318 297
l-162 342q-12 17 -8 23z" />
    <glyph glyph-name="questiondown" unicode="&#xbf;" horiz-adv-x="1003" 
d="M625 1282q-13 -63 -60.5 -98t-103.5 -35q-69 0 -111 44t-26 118q13 62 60.5 96.5t102.5 34.5q69 0 111.5 -43.5t26.5 -116.5zM211 -20q-201 0 -305 119.5t-60 332.5q27 125 139.5 227t254.5 140l61 239q1 2 1 3q0 3 9 3h213q9 0 18 -8.5t7 -13.5l-90 -424l-3 -8h-1
q-82 5 -147 -11t-103.5 -46t-60.5 -62.5t-29 -67.5q-20 -90 12.5 -123.5t99.5 -33.5q74 0 134 42t73 109q2 2 12 2h234q9 0 16 -10t4 -20q-35 -170 -175 -279.5t-314 -109.5z" />
    <glyph glyph-name="Agrave" unicode="&#xc0;" 
d="M881 1653l-131 -160q-7 -7 -23 4l-328 199q-8 2 -14.5 11t-3.5 15l141 168q6 6 25 -4l315 -205q7 -4 14.5 -13.5t4.5 -14.5zM63 162l-86 -158q-3 -4 -14 -4h-252q-12 0 -21 11t-5 20l866 1439q6 10 19.5 3.5t13.5 -17.5l254 -1440q4 -9 3.5 -12.5t-10.5 -3.5h-253
q-6 0 -16 6t-7 10l-25 146h-467zM492 403l-48 431l-241 -431h289z" />
    <glyph glyph-name="Aacute" unicode="&#xc1;" 
d="M426 1505l-64 162q-1 2 -2 3t-3 4q-6 8 -1 9l428 209q7 3 18 -3.5t11 -12.5l74 -166q1 -2 2 -5.5t2 -6t0.5 -5t-2.5 -3.5l-432 -201q-8 -3 -18.5 3t-12.5 13zM63 162l-86 -158q-3 -4 -14 -4h-252q-12 0 -21 11t-5 20l866 1439q6 10 19.5 3.5t13.5 -17.5l254 -1440
q4 -9 3.5 -12.5t-10.5 -3.5h-253q-6 0 -16 6t-7 10l-25 146h-467zM492 403l-48 431l-241 -431h289z" />
    <glyph glyph-name="Acircumflex" unicode="&#xc2;" 
d="M322 1479l-68 141q-1 2 -3 5t-3 5t-2 4.5t-0.5 4.5t2.5 3l385 197q5 3 18 -10l305 -182q8 -3 15 -12t4 -15l-123 -154q-4 -4 -21 2l-225 138l-260 -142q-4 -1 -13 4.5t-11 10.5zM63 162l-86 -158q-3 -4 -14 -4h-252q-12 0 -21 11t-5 20l866 1439q6 10 19.5 3.5
t13.5 -17.5l254 -1440q4 -9 3.5 -12.5t-10.5 -3.5h-253q-6 0 -16 6t-7 10l-25 146h-467zM492 403l-48 431l-241 -431h289z" />
    <glyph glyph-name="Atilde" unicode="&#xc3;" 
d="M412 1526l-154 45q-8 2 -14.5 11.5t-5.5 19.5q37 102 102 151t147 49q91 0 172 -49l-6 4q10 0 19 -7q2 -2 0 -3q20 -12 47 -12q52 0 80 61q7 -3 20 -6l152 -51q8 -2 16 -12t4 -19q-57 -105 -114 -148.5t-129 -43.5q-87 0 -175 45l-30 10q-32 16 -43 16q-45 0 -68 -65
q-4 0 -20 4zM63 162l-86 -158q-3 -4 -14 -4h-252q-12 0 -21 11t-5 20l866 1439q6 10 19.5 3.5t13.5 -17.5l254 -1440q4 -9 3.5 -12.5t-10.5 -3.5h-253q-6 0 -16 6t-7 10l-25 146h-467zM492 403l-48 431l-241 -431h289z" />
    <glyph glyph-name="Adieresis" unicode="&#xc4;" 
d="M551 1628q-10 -55 -58.5 -94t-103.5 -39q-67 0 -108 48.5t-27 113.5q12 55 58.5 94t99.5 39q69 0 111 -48.5t28 -113.5zM969 1628q-10 -55 -57.5 -94t-102.5 -39q-69 0 -110 48.5t-27 113.5q12 55 58.5 94t100.5 39q69 0 110.5 -48.5t27.5 -113.5zM63 162l-86 -158
q-3 -4 -14 -4h-252q-12 0 -21 11t-5 20l866 1439q6 10 19.5 3.5t13.5 -17.5l254 -1440q4 -9 3.5 -12.5t-10.5 -3.5h-253q-6 0 -16 6t-7 10l-25 146h-467zM492 403l-48 431l-241 -431h289z" />
    <glyph glyph-name="Aring" unicode="&#xc5;" 
d="M-37 0h-252q-12 0 -21 11t-5 20l718 1171q-72 31 -106 106t-14 167q25 112 122 192t207 80q126 0 199 -89.5t47 -211.5q-15 -75 -76 -144.5t-141 -105.5l197 -1180q4 -9 3.5 -12.5t-10.5 -3.5h-253q-5 0 -13.5 7t-7.5 11l-27 144h-467l-86 -158q-3 -4 -14 -4zM612 1559
q-46 0 -87 -34.5t-50 -78.5q-7 -36 8.5 -59t46.5 -23q45 0 86 33t50 78q7 35 -9 59.5t-45 24.5zM201 397l293 6q-5 37 -25 178.5t-29 233.5z" />
    <glyph glyph-name="AE" unicode="&#xc6;" horiz-adv-x="1617" 
d="M872 850h377q9 0 19 -9.5t8 -15.5l-47 -217q-10 -8 -12 -8h-398l-74 -350h494q9 0 18 -9t9 -16l-47 -217q-1 -4 -1 -4.5t-1.5 -2t-3.5 -1.5h-7h-757q-9 0 -18 9.5t-7 15.5l33 159h-330l-135 -182q-1 -2 -12 -2h-271q-12 0 -23 11t-5 20l1017 1388h2q0 1 1.5 2.5t3 4.5
t2.5 6q9 2 10 2h751q9 0 18 -9.5t7 -15.5l-45 -217q-10 -8 -12 -8h-492zM289 418l219 8q62 270 125 516z" />
    <glyph glyph-name="Ccedilla" unicode="&#xc7;" horiz-adv-x="1421" 
d="M555 264q98 0 190 38.5t164 105.5q16 0 31 -15l131 -170q17 -13 10 -30q-129 -99 -288 -162q45 -80 24 -181q-31 -141 -153 -242.5t-263 -101.5q-160 0 -249.5 99.5t-57.5 251.5h10h195q10 0 19 -9.5t6 -19.5q-10 -48 14 -71t72 -23q60 0 113 43t65 102q9 47 -10 79
t-60 38l2 -2q-118 1 -222 39.5t-179 106t-125 160.5t-61.5 202.5t12.5 232.5q30 145 114 277.5t199.5 229t259.5 153.5t289 57q157 0 280 -59t193 -164q10 0 16.5 -7t3.5 -12l-202 -166q-7 -3 -17 4t-10 13q-109 121 -280 121q-128 0 -251 -64.5t-210 -174t-113 -236.5
q-26 -122 10 -224t123 -160.5t205 -58.5z" />
    <glyph glyph-name="Egrave" unicode="&#xc8;" horiz-adv-x="1204" 
d="M926 1677l-129 -159q-6 -6 -25 4l-326 198q-8 2 -14.5 11.5t-3.5 15.5l141 168q6 6 25 -4l313 -205q8 -3 15 -13t4 -16zM295 850h553q7 0 16.5 -9.5t7.5 -15.5l-49 -227q-8 -8 -10 -8h-573l-68 -324h670q9 0 17.5 -9t6.5 -15l-49 -234q-10 -8 -12 -8h-934q-9 0 -18 9.5
t-7 15.5l297 1400q1 5 1.5 6t3 2t8.5 1h915q9 0 18 -9.5t7 -15.5l-47 -227q-1 -4 -1 -4.5t-1.5 -2t-3.5 -1.5h-7h-671z" />
    <glyph glyph-name="Eacute" unicode="&#xc9;" horiz-adv-x="1204" 
d="M522 1534l-63 162q-1 2 -2 3t-3 4q-6 8 -1 9l428 209q7 3 17.5 -3.5t10.5 -12.5l74 -166q1 -2 2 -6t2 -6t0.5 -5t-2.5 -4l-432 -200q-8 -3 -18.5 3t-12.5 13zM295 850h553q7 0 16.5 -9.5t7.5 -15.5l-49 -227q-8 -8 -10 -8h-573l-68 -324h670q9 0 17.5 -9t6.5 -15
l-49 -234q-10 -8 -12 -8h-934q-9 0 -18 9.5t-7 15.5l297 1400q1 5 1.5 6t3 2t8.5 1h915q9 0 18 -9.5t7 -15.5l-47 -227q-1 -4 -1 -4.5t-1.5 -2t-3.5 -1.5h-7h-671z" />
    <glyph glyph-name="Ecircumflex" unicode="&#xca;" horiz-adv-x="1204" 
d="M403 1538l-65 141q-15 20 -8 23l385 196q5 3 18 -10l305 -182q8 -3 15 -12t6 -15l-123 -153l-7.5 -2.5t-7.5 2t-8 2.5l-225 137l-260 -141q-4 -1 -13.5 4t-11.5 10zM295 850h553q7 0 16.5 -9.5t7.5 -15.5l-49 -227q-8 -8 -10 -8h-573l-68 -324h670q9 0 17.5 -9t6.5 -15
l-49 -234q-10 -8 -12 -8h-934q-9 0 -18 9.5t-7 15.5l297 1400q1 5 1.5 6t3 2t8.5 1h915q9 0 18 -9.5t7 -15.5l-47 -227q-1 -4 -1 -4.5t-1.5 -2t-3.5 -1.5h-7h-671z" />
    <glyph glyph-name="Edieresis" unicode="&#xcb;" horiz-adv-x="1204" 
d="M635 1657q-10 -55 -58.5 -94t-103.5 -39q-67 0 -108 48.5t-27 113.5q12 55 58.5 94t99.5 39q69 0 111 -48.5t28 -113.5zM1053 1657q-10 -55 -57.5 -94t-102.5 -39q-69 0 -110 48.5t-27 113.5q12 55 58.5 94t100.5 39q69 0 110.5 -48.5t27.5 -113.5zM295 850h553
q7 0 16.5 -9.5t7.5 -15.5l-49 -227q-8 -8 -10 -8h-573l-68 -324h670q9 0 17.5 -9t6.5 -15l-49 -234q-10 -8 -12 -8h-934q-9 0 -18 9.5t-7 15.5l297 1400q1 5 1.5 6t3 2t8.5 1h915q9 0 18 -9.5t7 -15.5l-47 -227q-1 -4 -1 -4.5t-1.5 -2t-3.5 -1.5h-7h-671z" />
    <glyph glyph-name="Igrave" unicode="&#xcc;" horiz-adv-x="716" 
d="M662 1667l-130 -160q-3 -3 -6.5 -3t-5.5 0.5t-6.5 3t-5.5 3.5l-326 199q-7 1 -14.5 11t-5.5 16l143 168q7 7 23 -4l315 -205q8 -3 15 -13t4 -16zM238 246h133q9 0 17.5 -9.5t6.5 -15.5l-45 -213q-10 -8 -12 -8h-563q-9 0 -18 9.5t-7 15.5l45 213q10 8 12 8h156l199 942
h-127q-9 0 -18 9t-7 15l45 213q1 5 1.5 6t3 2t8.5 1h546q9 0 18 -9.5t7 -15.5l-45 -213q-10 -8 -12 -8h-146z" />
    <glyph glyph-name="Iacute" unicode="&#xcd;" horiz-adv-x="716" 
d="M213 1513l-63 162q-1 3 -5 7.5t-4.5 6t2.5 3.5l426 209q9 3 20 -4t11 -13l74 -166q0 -2 1 -4t1.5 -4t1 -3.5t0.5 -3t-1 -3t-3 -2.5l-430 -201q-9 -3 -20 3.5t-11 12.5zM238 246h133q9 0 17.5 -9.5t6.5 -15.5l-45 -213q-10 -8 -12 -8h-563q-9 0 -18 9.5t-7 15.5l45 213
q10 8 12 8h156l199 942h-127q-9 0 -18 9t-7 15l45 213q1 5 1.5 6t3 2t8.5 1h546q9 0 18 -9.5t7 -15.5l-45 -213q-10 -8 -12 -8h-146z" />
    <glyph glyph-name="Icircumflex" unicode="&#xce;" horiz-adv-x="716" 
d="M121 1536l-68 141q-1 2 -3 5t-3 5.5l-2 5t-0.5 4.5t2.5 3l385 196q6 3 19 -10l305 -182q8 -3 14.5 -12t3.5 -15l-123 -153q-3 -4 -20 2l-225 137l-261 -141q-4 -1 -13 4t-11 10zM238 246h133q9 0 17.5 -9.5t6.5 -15.5l-45 -213q-10 -8 -12 -8h-563q-9 0 -18 9.5t-7 15.5
l45 213q10 8 12 8h156l199 942h-127q-9 0 -18 9t-7 15l45 213q1 5 1.5 6t3 2t8.5 1h546q9 0 18 -9.5t7 -15.5l-45 -213q-10 -8 -12 -8h-146z" />
    <glyph glyph-name="Idieresis" unicode="&#xcf;" horiz-adv-x="716" 
d="M346 1651q-12 -55 -60 -94t-102 -39q-68 0 -108 48.5t-27 112.5q10 55 56.5 94t99.5 39q69 0 111 -48t30 -113zM764 1651q-12 -55 -59 -94t-101 -39q-69 0 -110 48t-27 113q10 55 57 94t101 39q69 0 110 -48t29 -113zM238 246h133q9 0 17.5 -9.5t6.5 -15.5l-45 -213
q-10 -8 -12 -8h-563q-9 0 -18 9.5t-7 15.5l45 213q10 8 12 8h156l199 942h-127q-9 0 -18 9t-7 15l45 213q1 5 1.5 6t3 2t8.5 1h546q9 0 18 -9.5t7 -15.5l-45 -213q-10 -8 -12 -8h-146z" />
    <glyph glyph-name="Eth" unicode="&#xd0;" horiz-adv-x="1355" 
d="M156 1434h233q63 0 120 -4t123 -14.5t122 -28t112 -47t98.5 -68.5t76.5 -94.5t50.5 -123.5t15 -157.5t-23.5 -194.5q-27 -126 -76.5 -229.5t-111 -175t-140.5 -126t-156.5 -86.5t-167.5 -51.5t-167 -26.5t-160 -7h-233q-9 0 -18 9.5t-7 15.5l121 569h-123q-8 0 -16 8.5
t-8 15.5l43 203q1 2 1 5t9 3h143l127 596q1 5 1.5 6t3 2t8.5 1zM242 594l-82 -336q42 -2 85 0t102 12t112 29t110.5 55t103 85t83.5 124t57 168q25 124 6.5 212t-80.5 142t-153 76.5t-211 16.5l-84 -349h231q9 0 19 -9t8 -15l-43 -203q-10 -8 -12 -8h-252z" />
    <glyph glyph-name="Ntilde" unicode="&#xd1;" horiz-adv-x="1519" 
d="M610 1559l-151 45q-9 2 -16.5 11t-4.5 19q35 101 101.5 151t148.5 50q90 0 166 -45q17 -6 17 -8q1 -1 -1 -2q22 -13 50 -13q51 0 77 62l21 -6l151 -51q9 -2 17.5 -11.5t5.5 -19.5q-57 -105 -115.5 -149t-130.5 -44q-84 0 -172 45l-31 11q-36 16 -45 16q-20 0 -37.5 -17
t-27.5 -49q-3 0 -11.5 2t-11.5 3zM1092 1434h231q9 0 18 -9.5t7 -15.5l-297 -1401q-1 -4 -1 -4.5t-1.5 -2t-3.5 -1.5h-7h-235q-2 0 -8.5 2t-12 5t-4.5 5l-454 938l-205 -942q-1 -4 -1 -4.5t-1.5 -2t-3.5 -1.5h-7h-235q-7 0 -16 9.5t-7 15.5l297 1400q1 6 1.5 6.5t2.5 1.5
t7 1h237q2 0 8.5 -2.5t12 -5.5t4.5 -5l456 -938l205 942q1 5 1.5 6t3 2t8.5 1z" />
    <glyph glyph-name="Ograve" unicode="&#xd2;" horiz-adv-x="1306" 
d="M956 1667l-129 -160q-3 -3 -6.5 -3t-5.5 0.5t-6.5 3t-5.5 3.5l-326 199q-7 1 -14.5 11t-5.5 16l143 168q7 7 23 -4l315 -205q8 -3 14.5 -13t3.5 -16zM438 381q-151 0 -264.5 74.5t-162 201.5t-17.5 275q46 215 231 368.5t400 153.5q151 0 264.5 -75t162 -202t17.5 -274
q-22 -106 -84 -203t-146.5 -167t-189.5 -111t-211 -41zM610 1190q-119 0 -222 -84.5t-128 -202.5q-23 -110 33.5 -184t159.5 -74q120 0 222 83.5t128 203.5q23 109 -33 183.5t-160 74.5zM864 240l-49 -232q-10 -8 -12 -8h-924q-9 0 -17.5 9.5t-6.5 15.5l49 231q10 8 12 8
h924q9 0 17.5 -9t6.5 -15z" />
    <glyph glyph-name="Oacute" unicode="&#xd3;" horiz-adv-x="1306" 
d="M512 1534l-63 162q-1 1 -2 2.5l-2 3t-2 2.5q-6 7 -1 8l428 209q7 3 18 -3.5t11 -12.5l74 -166q1 -2 2 -6t2 -6t0.5 -5t-2.5 -4l-432 -200q-8 -3 -18.5 3t-12.5 13zM438 381q-151 0 -264.5 74.5t-162 201.5t-17.5 275q46 215 231 368.5t400 153.5q151 0 264.5 -75
t162 -202t17.5 -274q-22 -106 -84 -203t-146.5 -167t-189.5 -111t-211 -41zM610 1190q-119 0 -222 -84.5t-128 -202.5q-23 -110 33.5 -184t159.5 -74q120 0 222 83.5t128 203.5q23 109 -33 183.5t-160 74.5zM864 240l-49 -232q-10 -8 -12 -8h-924q-9 0 -17.5 9.5t-6.5 15.5
l49 231q10 8 12 8h924q9 0 17.5 -9t6.5 -15z" />
    <glyph glyph-name="Ocircumflex" unicode="&#xd4;" horiz-adv-x="1306" 
d="M408 1511l-66 142q-1 2 -5 8.5t-4.5 8t1.5 5.5l385 197q4 1 11 -3.5t7 -6.5l307 -183q7 -4 14.5 -12.5t4.5 -13.5l-123 -154l-7.5 -2.5t-7 2t-7.5 2.5l-226 137l-258 -141q-6 -1 -15 4t-11 10zM438 381q-151 0 -264.5 74.5t-162 201.5t-17.5 275q46 215 231 368.5
t400 153.5q151 0 264.5 -75t162 -202t17.5 -274q-22 -106 -84 -203t-146.5 -167t-189.5 -111t-211 -41zM610 1190q-119 0 -222 -84.5t-128 -202.5q-23 -110 33.5 -184t159.5 -74q120 0 222 83.5t128 203.5q23 109 -33 183.5t-160 74.5zM864 240l-49 -232q-10 -8 -12 -8h-924
q-9 0 -17.5 9.5t-6.5 15.5l49 231q10 8 12 8h924q9 0 17.5 -9t6.5 -15z" />
    <glyph glyph-name="Otilde" unicode="&#xd5;" horiz-adv-x="1306" 
d="M496 1540l-152 45q-8 2 -15.5 11.5t-4.5 19.5q37 102 102 151.5t147 49.5q90 0 166 -45q18 -8 17 -11q20 -12 49 -12q52 0 78 61l20 -6l152 -51q9 -2 17 -11.5t5 -19.5q-56 -105 -115 -148.5t-131 -43.5q-84 0 -172 45l-30 10q-34 17 -45 17q-20 0 -38 -17t-28 -49
q-2 0 -22 4zM625 1454q151 0 264.5 -75t162 -202t17.5 -274q-22 -106 -84 -203t-146.5 -167t-189.5 -111t-211 -41q-151 0 -264.5 74.5t-162 201.5t-17.5 275q46 215 231 368.5t400 153.5zM803 932q23 109 -33 183.5t-160 74.5q-119 0 -222 -84.5t-128 -202.5
q-23 -110 33.5 -184t159.5 -74q120 0 222 83.5t128 203.5zM-84 264h924q9 0 17.5 -9t6.5 -15l-49 -232q-10 -8 -12 -8h-924q-9 0 -17.5 9.5t-6.5 15.5l49 231q10 8 12 8z" />
    <glyph glyph-name="Odieresis" unicode="&#xd6;" horiz-adv-x="1306" 
d="M635 1632q-12 -55 -60 -94t-102 -39q-67 0 -108 48.5t-27 113.5q10 55 56.5 94t99.5 39q69 0 111.5 -49t29.5 -113zM1053 1632q-12 -55 -59 -94t-101 -39q-69 0 -110 48.5t-27 113.5q10 55 56.5 94t100.5 39q69 0 111 -49t29 -113zM438 381q-151 0 -264.5 74.5
t-162 201.5t-17.5 275q46 215 231 368.5t400 153.5q151 0 264.5 -75t162 -202t17.5 -274q-22 -106 -84 -203t-146.5 -167t-189.5 -111t-211 -41zM610 1190q-119 0 -222 -84.5t-128 -202.5q-23 -110 33.5 -184t159.5 -74q120 0 222 83.5t128 203.5q23 109 -33 183.5
t-160 74.5zM864 240l-49 -232q-10 -8 -12 -8h-924q-9 0 -17.5 9.5t-6.5 15.5l49 231q10 8 12 8h924q9 0 17.5 -9t6.5 -15z" />
    <glyph glyph-name="multiply" unicode="&#xd7;" horiz-adv-x="825" 
d="M555 471l-172 -139q-13 -8 -25 10l-155 188l-234 -198q-7 -4 -14.5 0t-9.5 10l-113 139q-19 19 -10 25l244 190l-148 199q-20 19 -12 27l172 139q14 8 26 -10l156 -191l236 199q7 4 13.5 0t8.5 -10l115 -138q19 -19 10 -26l-246 -189l148 -200q19 -19 10 -25z" />
    <glyph glyph-name="Oslash" unicode="&#xd8;" horiz-adv-x="1306" 
d="M434 360q-105 0 -186 35l-76 -78q-1 -2 -2.5 -2t-4 1t-3.5 1h-238q-14 0 -24 11t-4 20l176 176q-56 78 -79 180.5t-1 206.5q30 142 124.5 262.5t229 190.5t275.5 70q114 0 208 -48l89 99q1 3 5 1.5t5 -1.5h246q12 0 22 -11t4 -20l-201 -209q51 -74 68.5 -165t-2.5 -197
q-30 -142 -125 -262.5t-230 -190.5t-276 -70zM606 1169q-119 0 -222 -84t-128 -202q-14 -70 2 -131q22 24 76.5 85t80 89t68.5 75t81.5 87.5t80.5 82.5q-12 -2 -39 -2zM799 911q13 61 2 113l-369 -399h37q106 0 205 84.5t125 201.5zM864 240l-49 -232q-10 -8 -12 -8h-924
q-9 0 -17.5 9.5t-6.5 15.5l49 231q10 8 12 8h924q9 0 17.5 -9t6.5 -15z" />
    <glyph glyph-name="Ugrave" unicode="&#xd9;" horiz-adv-x="1515" 
d="M1061 1667l-129 -160q-6 -6 -25 4l-325 199q-7 1 -15 11t-6 16l144 168q6 6 22 -4l315 -205q8 -3 15 -13t4 -16zM156 1434h1165q9 0 18 -9.5t7 -15.5l-177 -838l-3 -13q-3 -13 -7 -27.5t-11 -36.5t-17.5 -47t-23 -53.5t-30 -60t-37.5 -61.5q-108 -141 -256.5 -216.5
t-322.5 -75.5q-191 0 -314 83t-161 238q-42 123 -19 287l178 837q1 6 1.5 6.5t2.5 1.5t7 1zM807 416q29 35 52 78.5t31.5 67.5t8.5 28l127 598h-659l-127 -600q-3 -12 -5.5 -31t-6 -76t7.5 -94q57 -141 241 -141q219 0 330 170z" />
    <glyph glyph-name="Uacute" unicode="&#xda;" horiz-adv-x="1515" 
d="M616 1534l-63 162q-1 2 -2 3t-3 4q-6 8 -1 9l428 209q7 3 18 -3.5t11 -12.5l73 -166q1 -2 2 -6t2 -6t0.5 -5t-2.5 -4l-432 -200q-8 -3 -18.5 3t-12.5 13zM156 1434h1165q9 0 18 -9.5t7 -15.5l-177 -838l-3 -13q-3 -13 -7 -27.5t-11 -36.5t-17.5 -47t-23 -53.5t-30 -60
t-37.5 -61.5q-108 -141 -256.5 -216.5t-322.5 -75.5q-191 0 -314 83t-161 238q-42 123 -19 287l178 837q1 6 1.5 6.5t2.5 1.5t7 1zM807 416q29 35 52 78.5t31.5 67.5t8.5 28l127 598h-659l-127 -600q-3 -12 -5.5 -31t-6 -76t7.5 -94q57 -141 241 -141q219 0 330 170z" />
    <glyph glyph-name="Ucircumflex" unicode="&#xdb;" horiz-adv-x="1515" 
d="M518 1542l-65 141q-1 2 -5.5 8.5t-5 8.5t1.5 6l387 197q5 3 19 -11l305 -182q7 -4 14.5 -13t4.5 -14l-123 -153l-7.5 -2.5t-7.5 2t-8 2.5l-225 137l-258 -141q-4 -1 -14 4t-13 10zM156 1434h1165q9 0 18 -9.5t7 -15.5l-177 -838l-3 -13q-3 -13 -7 -27.5t-11 -36.5
t-17.5 -47t-23 -53.5t-30 -60t-37.5 -61.5q-108 -141 -256.5 -216.5t-322.5 -75.5q-191 0 -314 83t-161 238q-42 123 -19 287l178 837q1 6 1.5 6.5t2.5 1.5t7 1zM807 416q29 35 52 78.5t31.5 67.5t8.5 28l127 598h-659l-127 -600q-3 -12 -5.5 -31t-6 -76t7.5 -94
q57 -141 241 -141q219 0 330 170z" />
    <glyph glyph-name="Udieresis" unicode="&#xdc;" horiz-adv-x="1515" 
d="M745 1663q-12 -55 -59.5 -94t-101.5 -39q-67 0 -108 48.5t-27 113.5q10 55 57 94t100 39q69 0 111 -48.5t28 -113.5zM1163 1663q-12 -55 -58.5 -94t-100.5 -39q-69 0 -110.5 48.5t-27.5 113.5q10 55 57.5 94t102.5 39q69 0 110 -48.5t27 -113.5zM156 1434h1165
q9 0 18 -9.5t7 -15.5l-177 -838l-3 -13q-3 -13 -7 -27.5t-11 -36.5t-17.5 -47t-23 -53.5t-30 -60t-37.5 -61.5q-108 -141 -256.5 -216.5t-322.5 -75.5q-191 0 -314 83t-161 238q-42 123 -19 287l178 837q1 6 1.5 6.5t2.5 1.5t7 1zM807 416q29 35 52 78.5t31.5 67.5t8.5 28
l127 598h-659l-127 -600q-3 -12 -5.5 -31t-6 -76t7.5 -94q57 -141 241 -141q219 0 330 170z" />
    <glyph glyph-name="Yacute" unicode="&#xdd;" horiz-adv-x="1320" 
d="M516 1511l-63 162q-1 3 -5.5 7.5t-5 6t3.5 3.5l426 208q8 3 18.5 -3t12.5 -13l72 -166q1 -2 3.5 -7.5t2 -7t-3.5 -5.5l-432 -201q-7 -3 -18 3.5t-11 12.5zM997 1434h287q14 0 24.5 -12t4.5 -21l-682 -727l-146 -666q-10 -8 -12 -8h-233q-9 0 -18 9.5t-7 15.5l145 655
q-28 58 -88.5 179.5t-96 193.5t-84.5 175t-89 191q-16 6 -15 11q3 4 11 4h285q2 0 8 -2.5t11.5 -5.5t4.5 -5l234 -471l448 484q1 2 2 2t3 -1t3 -1z" />
    <glyph glyph-name="Thorn" unicode="&#xde;" horiz-adv-x="1193" 
d="M358 1149h203q9 0 22.5 -1t47.5 -5t64.5 -12t72.5 -23t73 -37.5t65 -55t47.5 -76t22.5 -100.5t-11 -128q-18 -84 -56 -151.5t-81 -109.5t-100 -72.5t-101.5 -44.5t-98.5 -22t-77 -9t-50 -1h-223l-61 -293q-1 -4 -1 -4.5t-1.5 -2t-3.5 -1.5h-7h-233q-9 0 -18 9.5t-7 15.5
l113 532q10 8 12 8l209 6q-28 62 -76.5 178.5t-64.5 153.5l104 524q1 5 1.5 6t3 2t8.5 1h233q9 0 19 -9.5t8 -15.5zM332 883l125 -314q32 0 68 9.5t72 29t63.5 53.5t37.5 78q3 25 3.5 45t-9.5 34.5t-19.5 25t-26.5 18t-31 11.5t-32.5 6.5t-30.5 3t-26 0.5h-194z" />
    <glyph glyph-name="germandbls" unicode="&#xdf;" horiz-adv-x="1212" 
d="M156 1434h483q6 0 16 -1t42.5 -5t60.5 -12t69.5 -23t70.5 -37.5t63 -55t47 -76t22.5 -100t-10.5 -127.5q-16 -73 -49.5 -130.5t-73.5 -90t-77.5 -50.5t-69.5 -21q56 -18 93 -56t49.5 -76t16 -78.5t1 -61.5t-4.5 -27q-53 -249 -310 -352q-133 -53 -271 -54q-2 0 -8 10
t-5 15l49 229v3q0 4 2 4.5t17 0.5q10 0 28.5 2t58 12t73 26.5t64 51t40.5 80.5q7 34 -3 60.5t-33.5 41.5t-47.5 24.5t-53.5 12.5t-40.5 4t-19 1q-2 0 -7.5 9.5t-4.5 14.5l49 232q1 5 0 8v0q22 0 45 2t62 13t69.5 29t58.5 54.5t38 85.5q12 54 -14.5 89.5t-68 48t-91.5 12.5
h-205l-250 -1168q-8 -8 -10 -8h-246q-7 0 -16 9.5t-7 15.5l297 1400q1 6 1.5 6.5t2.5 1.5t7 1z" />
    <glyph glyph-name="agrave" unicode="&#xe0;" 
d="M881 1653l-131 -160q-7 -7 -23 4l-328 199q-8 2 -14.5 11t-3.5 15l141 168q6 6 25 -4l315 -205q7 -4 14.5 -13.5t4.5 -14.5zM63 162l-86 -158q-3 -4 -14 -4h-252q-12 0 -21 11t-5 20l866 1439q6 10 19.5 3.5t13.5 -17.5l254 -1440q4 -9 3.5 -12.5t-10.5 -3.5h-253
q-6 0 -16 6t-7 10l-25 146h-467zM492 403l-48 431l-241 -431h289z" />
    <glyph glyph-name="aacute" unicode="&#xe1;" 
d="M426 1505l-64 162q-1 2 -2 3t-3 4q-6 8 -1 9l428 209q7 3 18 -3.5t11 -12.5l74 -166q1 -2 2 -5.5t2 -6t0.5 -5t-2.5 -3.5l-432 -201q-8 -3 -18.5 3t-12.5 13zM63 162l-86 -158q-3 -4 -14 -4h-252q-12 0 -21 11t-5 20l866 1439q6 10 19.5 3.5t13.5 -17.5l254 -1440
q4 -9 3.5 -12.5t-10.5 -3.5h-253q-6 0 -16 6t-7 10l-25 146h-467zM492 403l-48 431l-241 -431h289z" />
    <glyph glyph-name="acircumflex" unicode="&#xe2;" 
d="M322 1479l-68 141q-1 2 -3 5t-3 5t-2 4.5t-0.5 4.5t2.5 3l385 197q5 3 18 -10l305 -182q8 -3 15 -12t4 -15l-123 -154q-4 -4 -21 2l-225 138l-260 -142q-4 -1 -13 4.5t-11 10.5zM63 162l-86 -158q-3 -4 -14 -4h-252q-12 0 -21 11t-5 20l866 1439q6 10 19.5 3.5
t13.5 -17.5l254 -1440q4 -9 3.5 -12.5t-10.5 -3.5h-253q-6 0 -16 6t-7 10l-25 146h-467zM492 403l-48 431l-241 -431h289z" />
    <glyph glyph-name="atilde" unicode="&#xe3;" 
d="M821 1798l152 -51q8 -2 16 -12t4 -19q-56 -105 -114.5 -148.5t-130.5 -43.5q-85 0 -173 45l-30 10q-32 16 -43 16q-45 0 -68 -65q-2 0 -22 4l-152 45q-8 2 -14.5 11.5t-5.5 19.5q37 102 102 151t147 49q90 0 166 -45q19 -6 19 -8q0 -1 -2 -2q24 -12 49 -12q52 0 78 61
q12 -4 22 -6zM584 1456l254 -1440q4 -9 3.5 -12.5t-10.5 -3.5h-253q-6 0 -16 6t-7 10l-25 146h-467l-86 -158q-3 -4 -14 -4h-252q-12 0 -21 11t-5 20l866 1439q6 10 19.5 3.5t13.5 -17.5zM492 403l-48 431l-241 -431h289z" />
    <glyph glyph-name="adieresis" unicode="&#xe4;" 
d="M551 1628q-10 -55 -58.5 -94t-103.5 -39q-67 0 -108 48.5t-27 113.5q12 55 58.5 94t99.5 39q69 0 111 -48.5t28 -113.5zM969 1628q-10 -55 -57.5 -94t-102.5 -39q-69 0 -110 48.5t-27 113.5q12 55 58.5 94t100.5 39q69 0 110.5 -48.5t27.5 -113.5zM63 162l-86 -158
q-3 -4 -14 -4h-252q-12 0 -21 11t-5 20l866 1439q6 10 19.5 3.5t13.5 -17.5l254 -1440q4 -9 3.5 -12.5t-10.5 -3.5h-253q-6 0 -16 6t-7 10l-25 146h-467zM492 403l-48 431l-241 -431h289z" />
    <glyph glyph-name="aring" unicode="&#xe5;" 
d="M-37 0h-250q-11 0 -19.5 11t-4.5 20l712 1159q-72 33 -106 106.5t-14 163.5q23 112 118.5 191.5t206.5 79.5q125 0 197.5 -89t46.5 -210q-17 -74 -76.5 -142.5t-138.5 -105.5l196 -1168q4 -9 3.5 -12.5t-11.5 -3.5h-250q-6 0 -14.5 7t-7.5 11l-25 142h-463l-86 -156
q-3 -4 -14 -4zM606 1544q-46 0 -86 -33t-49 -79q-7 -35 7.5 -57.5t45.5 -22.5q45 0 85.5 32t49.5 76q7 36 -8 60t-45 24zM201 393l288 6q-51 395 -53 410z" />
    <glyph glyph-name="ae" unicode="&#xe6;" horiz-adv-x="1617" 
d="M866 842h373q9 0 18 -9.5t7 -15.5l-47 -221q-1 -4 -1 -4.5t-1.5 -2t-3.5 -1.5h-7h-393l-70 -332h492q7 0 15.5 -9.5t6.5 -15.5l-47 -223q-8 -8 -10 -8h-754q-7 0 -15.5 9.5t-6.5 15.5l29 135h-342l-117 -158q-1 -2 -10 -2h-269q-12 0 -23 11t-5 20l1028 1376h2q0 1 1.5 2
t3.5 4t3 6l8 2h725q9 0 18 -9t7 -15l-47 -226q-1 -4 -1 -4.5t-1.5 -2t-3.5 -1.5h-7h-487zM283 412l223 8q11 52 32.5 149.5t30.5 141.5l52 196l-148 -237z" />
    <glyph glyph-name="ccedilla" unicode="&#xe7;" horiz-adv-x="1421" 
d="M549 264q96 0 186.5 38t161.5 104q20 0 31 -17l129 -164q14 -14 8 -30q-127 -94 -281 -158q39 -89 23 -176q-31 -139 -150 -238.5t-256 -99.5q-158 0 -245.5 96.5t-55.5 245.5q0 2 1.5 2h9.5h188q8 0 17 -10.5t6 -20.5q-9 -45 15 -67.5t71 -22.5q59 0 110.5 42.5
t63.5 100.5q9 45 -9.5 76t-60.5 37l2 -2q-192 2 -336 100t-206 264.5t-21 360.5q40 189 167.5 349.5t307.5 253.5t369 93q153 0 273 -58.5t189 -160.5q10 0 17 -7.5t4 -12.5l-199 -160q-6 -4 -15 2t-9 14q-106 119 -277 119q-191 0 -355.5 -135.5t-205.5 -325.5
q-38 -181 59.5 -306.5t272.5 -125.5z" />
    <glyph glyph-name="egrave" unicode="&#xe8;" horiz-adv-x="1204" 
d="M967 1677l-129 -159q-6 -6 -25 4l-326 198q-8 2 -14.5 11.5t-3.5 15.5l141 168q6 6 25 -4l313 -205q8 -3 15 -13t4 -16zM295 850h553q7 0 16.5 -9.5t7.5 -15.5l-49 -227q-8 -8 -10 -8h-573l-68 -324h670q9 0 17.5 -9t6.5 -15l-49 -234q-10 -8 -12 -8h-934q-9 0 -18 9.5
t-7 15.5l297 1400q1 5 1.5 6t3 2t8.5 1h915q9 0 18 -9.5t7 -15.5l-47 -227q-1 -4 -1 -4.5t-1.5 -2t-3.5 -1.5h-7h-671z" />
    <glyph glyph-name="eacute" unicode="&#xe9;" horiz-adv-x="1204" 
d="M522 1534l-63 162q-1 2 -2 3t-3 4q-6 8 -1 9l428 209q7 3 17.5 -3.5t10.5 -12.5l74 -166q1 -2 2 -6t2 -6t0.5 -5t-2.5 -4l-432 -200q-8 -3 -18.5 3t-12.5 13zM295 850h553q7 0 16.5 -9.5t7.5 -15.5l-49 -227q-8 -8 -10 -8h-573l-68 -324h670q9 0 17.5 -9t6.5 -15
l-49 -234q-10 -8 -12 -8h-934q-9 0 -18 9.5t-7 15.5l297 1400q1 5 1.5 6t3 2t8.5 1h915q9 0 18 -9.5t7 -15.5l-47 -227q-1 -4 -1 -4.5t-1.5 -2t-3.5 -1.5h-7h-671z" />
    <glyph glyph-name="ecircumflex" unicode="&#xea;" horiz-adv-x="1204" 
d="M422 1544l-66 142q-1 2 -5 8.5t-4.5 8t1.5 5.5l387 197q5 3 19 -11l305 -182q7 -4 14 -12.5t4 -13.5l-123 -154q-5 -2 -6.5 -2.5t-7.5 2t-8 2.5l-223 137l-260 -141q-4 -1 -14 4t-13 10zM295 850h553q7 0 16.5 -9.5t7.5 -15.5l-49 -227q-8 -8 -10 -8h-573l-68 -324h670
q9 0 17.5 -9t6.5 -15l-49 -234q-10 -8 -12 -8h-934q-9 0 -18 9.5t-7 15.5l297 1400q1 5 1.5 6t3 2t8.5 1h915q9 0 18 -9.5t7 -15.5l-47 -227q-1 -4 -1 -4.5t-1.5 -2t-3.5 -1.5h-7h-671z" />
    <glyph glyph-name="edieresis" unicode="&#xeb;" horiz-adv-x="1204" 
d="M666 1642q-12 -55 -60 -94t-102 -39q-67 0 -108 48.5t-27 113.5q10 55 56 94t99 39q69 0 112 -49t30 -113zM1083 1642q-12 -55 -58.5 -94t-100.5 -39q-69 0 -110.5 48.5t-27.5 113.5q10 55 57 94t101 39q69 0 111 -48.5t28 -113.5zM295 850h553q7 0 16.5 -9.5t7.5 -15.5
l-49 -227q-8 -8 -10 -8h-573l-68 -324h670q9 0 17.5 -9t6.5 -15l-49 -234q-10 -8 -12 -8h-934q-9 0 -18 9.5t-7 15.5l297 1400q1 5 1.5 6t3 2t8.5 1h915q9 0 18 -9.5t7 -15.5l-47 -227q-1 -4 -1 -4.5t-1.5 -2t-3.5 -1.5h-7h-671z" />
    <glyph glyph-name="igrave" unicode="&#xec;" horiz-adv-x="573" 
d="M594 1681l-131 -159q-7 -7 -23 4l-327 198q-8 2 -15 11.5t-4 15.5l142 168q3 3 6.5 3t5.5 -0.5t6.5 -3t5.5 -3.5l315 -205q7 -3 14.5 -13t4.5 -16zM-152 25l297 1400q1 5 1.5 6t3 2t8.5 1h231q9 0 18 -9.5t7 -15.5l-297 -1401q-1 -4 -1 -4.5t-1.5 -2t-3.5 -1.5h-7h-231
q-9 0 -18 9.5t-7 15.5z" />
    <glyph glyph-name="iacute" unicode="&#xed;" horiz-adv-x="573" 
d="M150 1540l-64 162q-1 2 -3 4.5t-3 3.5q-6 7 0 8l426 209q8 3 18.5 -3t12.5 -13l71 -166q1 -2 3.5 -8t2 -7.5t-3.5 -5.5l-432 -200q-7 -3 -17.5 3.5t-10.5 12.5zM-152 25l297 1400q1 5 1.5 6t3 2t8.5 1h231q9 0 18 -9.5t7 -15.5l-297 -1401q-1 -4 -1 -4.5t-1.5 -2
t-3.5 -1.5h-7h-231q-9 0 -18 9.5t-7 15.5z" />
    <glyph glyph-name="icircumflex" unicode="&#xee;" horiz-adv-x="573" 
d="M45 1518l-68 141q-1 2 -3 5t-3 5t-2 4.5t-0.5 4.5t2.5 3l385 197q6 3 19 -10l305 -182q8 -3 14.5 -12t3.5 -15l-123 -154q-2 -2 -5 -2.5t-5 0.5t-5.5 2.5t-4.5 1.5l-225 138l-260 -142q-4 -1 -13.5 4.5t-11.5 10.5zM-152 25l297 1400q1 5 1.5 6t3 2t8.5 1h231
q9 0 18 -9.5t7 -15.5l-297 -1401q-1 -4 -1 -4.5t-1.5 -2t-3.5 -1.5h-7h-231q-9 0 -18 9.5t-7 15.5z" />
    <glyph glyph-name="idieresis" unicode="&#xef;" horiz-adv-x="573" 
d="M274 1669q-10 -55 -57.5 -94t-101.5 -39q-68 0 -109.5 49t-28.5 113q12 55 58.5 94t99.5 39q69 0 111 -48.5t28 -113.5zM692 1669q-10 -55 -56.5 -94t-100.5 -39q-69 0 -111 49t-29 113q12 55 59 94t101 39q69 0 110 -48.5t27 -113.5zM-152 25l297 1400q1 5 1.5 6t3 2
t8.5 1h231q9 0 18 -9.5t7 -15.5l-297 -1401q-1 -4 -1 -4.5t-1.5 -2t-3.5 -1.5h-7h-231q-9 0 -18 9.5t-7 15.5z" />
    <glyph glyph-name="eth" unicode="&#xf0;" horiz-adv-x="1355" 
d="M154 1421h233q62 0 118.5 -3.5t122 -14.5t121 -28.5t111 -46.5t97.5 -67.5t75 -93.5t49.5 -122.5t15 -156t-23.5 -192.5q-147 -696 -969 -696h-233q-9 0 -17 9.5t-6 15.5l121 575h-121q-9 0 -17.5 9.5t-6.5 15.5l41 188q0 7 0.5 7.5t9.5 0.5h141l127 592q10 8 11 8z
M805 725q14 65 15 121t-8.5 97.5t-29 75.5t-43.5 57t-55.5 40.5t-61 27t-63 15.5t-60 8t-53.5 2l-75 -2l-84 -346h231q8 0 17 -9t8 -15l-41 -189q-8 -8 -10 -8h-252l-82 -346q5 -1 12.5 -1t16.5 0.5t14 0.5q40 0 80.5 4t94.5 16.5t103 33t102 57t94.5 84t76.5 119t53 157.5z
" />
    <glyph glyph-name="ntilde" unicode="&#xf1;" horiz-adv-x="1519" 
d="M610 1559l-151 45q-9 2 -16.5 11t-4.5 19q35 101 101.5 151t148.5 50q90 0 166 -45q17 -6 17 -8q1 -1 -1 -2q22 -13 50 -13q51 0 77 62l21 -6l151 -51q9 -2 17.5 -11.5t5.5 -19.5q-57 -105 -115.5 -149t-130.5 -44q-84 0 -172 45l-31 11q-36 16 -45 16q-20 0 -37.5 -17
t-27.5 -49q-3 0 -11.5 2t-11.5 3zM1092 1434h231q9 0 18 -9.5t7 -15.5l-297 -1401q-1 -4 -1 -4.5t-1.5 -2t-3.5 -1.5h-7h-235q-2 0 -8.5 2t-12 5t-4.5 5l-454 938l-205 -942q-1 -4 -1 -4.5t-1.5 -2t-3.5 -1.5h-7h-235q-7 0 -16 9.5t-7 15.5l297 1400q1 6 1.5 6.5t2.5 1.5
t7 1h237q2 0 8.5 -2.5t12 -5.5t4.5 -5l456 -938l205 942q1 5 1.5 6t3 2t8.5 1z" />
    <glyph glyph-name="ograve" unicode="&#xf2;" horiz-adv-x="1632" 
d="M1118 1677l-129 -159q-3 -3 -6.5 -3t-5.5 0.5t-6.5 3t-5.5 3.5l-326 198q-8 2 -14.5 11.5t-3.5 15.5l141 168q3 3 6.5 3t5.5 -0.5t6.5 -3t5.5 -3.5l314 -205q8 -3 14.5 -13t3.5 -16zM788 1454q100 0 186 -22t150 -61.5t113.5 -94t79.5 -120t45 -139.5t13 -153t-19 -159
q-29 -138 -100 -265.5t-175.5 -230.5t-251.5 -165t-313 -62q-102 0 -189 22t-151 61.5t-113.5 94.5t-79 121t-44.5 140t-13 152.5t19 159.5q30 138 100 265t174.5 230t252 164.5t316.5 61.5zM530 240q107 0 203.5 42t166.5 111.5t118 156t67 179.5q12 59 12.5 115.5
t-10.5 108.5t-36.5 96t-63 76.5t-92 50.5t-121.5 18q-108 0 -205 -42.5t-167 -112.5t-118 -157.5t-67 -181.5q-12 -70 -13 -136.5t21.5 -125.5t59.5 -103t100.5 -69.5t144.5 -25.5z" />
    <glyph glyph-name="oacute" unicode="&#xf3;" horiz-adv-x="1632" 
d="M690 1534l-63 162q-1 2 -2 3t-3 4q-6 8 -1 9l428 209q7 3 17.5 -3.5t10.5 -12.5l74 -166q1 -2 2 -6t2 -6t0.5 -5t-2.5 -4l-432 -200q-8 -3 -18.5 3t-12.5 13zM788 1454q100 0 186 -22t150 -61.5t113.5 -94t79.5 -120t45 -139.5t13 -153t-19 -159q-29 -138 -100 -265.5
t-175.5 -230.5t-251.5 -165t-313 -62q-102 0 -189 22t-151 61.5t-113.5 94.5t-79 121t-44.5 140t-13 152.5t19 159.5q30 138 100 265t174.5 230t252 164.5t316.5 61.5zM530 240q107 0 203.5 42t166.5 111.5t118 156t67 179.5q12 59 12.5 115.5t-10.5 108.5t-36.5 96
t-63 76.5t-92 50.5t-121.5 18q-108 0 -205 -42.5t-167 -112.5t-118 -157.5t-67 -181.5q-12 -70 -13 -136.5t21.5 -125.5t59.5 -103t100.5 -69.5t144.5 -25.5z" />
    <glyph glyph-name="ocircumflex" unicode="&#xf4;" horiz-adv-x="1632" 
d="M573 1516l-67 141q-1 2 -3 5t-3 5t-2 4.5t-0.5 4.5t2.5 3l385 197q5 3 18 -10l305 -183q8 -3 15 -11.5t4 -14.5l-123 -154q-2 -2 -5 -2.5t-5.5 0.5t-6.5 2t-6 2l-223 137l-260 -141q-4 -1 -13.5 4.5t-11.5 10.5zM788 1454q100 0 186 -22t150 -61.5t113.5 -94t79.5 -120
t45 -139.5t13 -153t-19 -159q-29 -138 -100 -265.5t-175.5 -230.5t-251.5 -165t-313 -62q-102 0 -189 22t-151 61.5t-113.5 94.5t-79 121t-44.5 140t-13 152.5t19 159.5q30 138 100 265t174.5 230t252 164.5t316.5 61.5zM530 240q107 0 203.5 42t166.5 111.5t118 156
t67 179.5q12 59 12.5 115.5t-10.5 108.5t-36.5 96t-63 76.5t-92 50.5t-121.5 18q-108 0 -205 -42.5t-167 -112.5t-118 -157.5t-67 -181.5q-12 -70 -13 -136.5t21.5 -125.5t59.5 -103t100.5 -69.5t144.5 -25.5z" />
    <glyph glyph-name="otilde" unicode="&#xf5;" horiz-adv-x="1632" 
d="M676 1571l-152 45q-8 2 -14.5 11.5t-5.5 19.5q37 102 102.5 151t147.5 49q90 0 166 -45q18 -6 18 -8q0 -1 -2 -2q24 -12 49 -12q52 0 78 61q12 -4 22 -6l150 -51q9 -2 17.5 -11.5t4.5 -19.5q-56 -105 -114.5 -148.5t-130.5 -43.5q-84 0 -172 45l-31 10q-32 16 -43 16
q-20 0 -39 -16.5t-29 -48.5q-2 0 -22 4zM788 1454q100 0 186 -22t150 -61.5t113.5 -94t79.5 -120t45 -139.5t13 -153t-19 -159q-29 -138 -100 -265.5t-175.5 -230.5t-251.5 -165t-313 -62q-102 0 -189 22t-151 61.5t-113.5 94.5t-79 121t-44.5 140t-13 152.5t19 159.5
q30 138 100 265t174.5 230t252 164.5t316.5 61.5zM1085 729q12 59 12.5 115.5t-10.5 108.5t-36.5 96t-63 76.5t-92 50.5t-121.5 18q-108 0 -205 -42.5t-167 -112.5t-118 -157.5t-67 -181.5q-12 -70 -13 -136.5t21.5 -125.5t59.5 -103t100.5 -69.5t144.5 -25.5
q107 0 203.5 42t166.5 111.5t118 156t67 179.5z" />
    <glyph glyph-name="odieresis" unicode="&#xf6;" horiz-adv-x="1632" 
d="M803 1665q-12 -55 -60 -94t-102 -39q-67 0 -108 48.5t-27 113.5q12 55 58.5 94t99.5 39q69 0 111 -48.5t28 -113.5zM1221 1665q-12 -55 -59 -94t-101 -39q-69 0 -110 48.5t-27 113.5q12 55 58.5 94t100.5 39q69 0 110.5 -48.5t27.5 -113.5zM788 1454q100 0 186 -22
t150 -61.5t113.5 -94t79.5 -120t45 -139.5t13 -153t-19 -159q-29 -138 -100 -265.5t-175.5 -230.5t-251.5 -165t-313 -62q-102 0 -189 22t-151 61.5t-113.5 94.5t-79 121t-44.5 140t-13 152.5t19 159.5q30 138 100 265t174.5 230t252 164.5t316.5 61.5zM530 240
q107 0 203.5 42t166.5 111.5t118 156t67 179.5q12 59 12.5 115.5t-10.5 108.5t-36.5 96t-63 76.5t-92 50.5t-121.5 18q-108 0 -205 -42.5t-167 -112.5t-118 -157.5t-67 -181.5q-12 -70 -13 -136.5t21.5 -125.5t59.5 -103t100.5 -69.5t144.5 -25.5z" />
    <glyph glyph-name="divide" unicode="&#xf7;" horiz-adv-x="1003" 
d="M434 1194q74 0 117 -50t29 -118q-14 -60 -62 -100.5t-108 -40.5q-73 0 -115 50.5t-27 119.5q12 59 60 99t106 40zM-33 811l-47 -223h811l47 223h-811zM289 510q74 0 116.5 -50t28.5 -118q-12 -59 -61 -99t-109 -40q-73 0 -114.5 50t-26.5 118q12 59 60 99t106 40z" />
    <glyph glyph-name="oslash" unicode="&#xf8;" horiz-adv-x="1632" 
d="M782 1440q135 0 242 -39l117 147q1 2 12 2h236q12 0 21.5 -11.5t6.5 -20.5l-200 -240q102 -104 135 -260.5t-6 -321.5q-23 -108 -71 -210.5t-123 -193.5t-168.5 -159t-214.5 -107.5t-255 -39.5q-133 0 -250 37q-80 -86 -125 -158q-6 6 -14 6h-229q-12 0 -23.5 11t-5.5 20
l207 248q-96 105 -130.5 260t1.5 317q29 137 99 262.5t173.5 227t250.5 162.5t314 61zM768 1182q-108 0 -205 -42t-166.5 -111.5t-116.5 -155t-67 -177.5q-40 -200 29 -307q94 119 297 381t319 406q-81 6 -90 6zM526 242q107 0 203.5 41.5t166 110t117 154.5t66.5 177
q47 206 -32 315q-80 -100 -294 -373.5t-331 -416.5q66 -8 104 -8z" />
    <glyph glyph-name="ugrave" unicode="&#xf9;" horiz-adv-x="1398" 
d="M971 1653l-131 -160q-7 -7 -23 4l-328 199q-8 2 -14.5 11t-3.5 15l141 168q6 6 25 -4l315 -205q7 -4 14.5 -13.5t4.5 -14.5zM399 -20q-115 0 -209.5 35t-157.5 97.5t-87.5 155t-1.5 201.5l200 944q1 4 1 4.5t1.5 2t3.5 1.5h7h231q9 0 18 -9t7 -15l-203 -942
q-9 -103 50 -157t157 -54q116 0 215 61t121 164l200 944q1 4 1 4.5t1.5 2t3.5 1.5h7h233q7 0 16 -9t7 -15l-201 -944q-46 -222 -218.5 -347.5t-402.5 -125.5z" />
    <glyph glyph-name="uacute" unicode="&#xfa;" horiz-adv-x="1398" 
d="M569 1501l-63 162q-1 2 -3 4.5t-3 3.5q-6 7 0 8l426 209q9 3 18.5 -3.5t9.5 -12.5l74 -166q1 -2 3.5 -7.5t2 -7t-3.5 -5.5l-432 -201q-7 -3 -18 3.5t-11 12.5zM399 -20q-115 0 -209.5 35t-157.5 97.5t-87.5 155t-1.5 201.5l200 944q1 4 1 4.5t1.5 2t3.5 1.5h7h231
q9 0 18 -9t7 -15l-203 -942q-9 -103 50 -157t157 -54q116 0 215 61t121 164l200 944q1 4 1 4.5t1.5 2t3.5 1.5h7h233q7 0 16 -9t7 -15l-201 -944q-46 -222 -218.5 -347.5t-402.5 -125.5z" />
    <glyph glyph-name="ucircumflex" unicode="&#xfb;" horiz-adv-x="1398" 
d="M455 1511l-66 142q-1 2 -5 8.5t-4.5 8t1.5 5.5l385 197q4 1 11 -3.5t7 -6.5l308 -183q7 -4 14 -12.5t4 -13.5l-123 -154l-7.5 -2.5t-7 2t-7.5 2.5l-226 137l-258 -141q-6 -1 -15 4t-11 10zM399 -20q-115 0 -209.5 35t-157.5 97.5t-87.5 155t-1.5 201.5l200 944q1 4 1 4.5
t1.5 2t3.5 1.5h7h231q9 0 18 -9t7 -15l-203 -942q-9 -103 50 -157t157 -54q116 0 215 61t121 164l200 944q1 4 1 4.5t1.5 2t3.5 1.5h7h233q7 0 16 -9t7 -15l-201 -944q-46 -222 -218.5 -347.5t-402.5 -125.5z" />
    <glyph glyph-name="udieresis" unicode="&#xfc;" horiz-adv-x="1398" 
d="M682 1645q-12 -55 -60 -94.5t-102 -39.5q-67 0 -108 48.5t-27 113.5q12 55 58.5 94t99.5 39q69 0 110.5 -48.5t28.5 -112.5zM1100 1645q-12 -55 -59 -94.5t-101 -39.5q-69 0 -110 48.5t-27 113.5q12 55 59 94t101 39q69 0 110 -48t27 -113zM399 -20q-115 0 -209.5 35
t-157.5 97.5t-87.5 155t-1.5 201.5l200 944q1 4 1 4.5t1.5 2t3.5 1.5h7h231q9 0 18 -9t7 -15l-203 -942q-9 -103 50 -157t157 -54q116 0 215 61t121 164l200 944q1 4 1 4.5t1.5 2t3.5 1.5h7h233q7 0 16 -9t7 -15l-201 -944q-46 -222 -218.5 -347.5t-402.5 -125.5z" />
    <glyph glyph-name="yacute" unicode="&#xfd;" horiz-adv-x="1320" 
d="M526 1518l-63 161q-2 2 -5 6q-9 10 -3 11l428 209q7 3 17.5 -4t10.5 -13l74 -166q1 -2 2 -5.5t2 -6t0.5 -5t-2.5 -3.5l-432 -201q-7 -3 -18 4t-11 13zM991 1434h285q14 0 24.5 -12t4.5 -21l-678 -731l-146 -662q-10 -8 -12 -8h-231q-9 0 -18 9.5t-7 15.5l143 651
q-183 373 -352 743q-16 6 -15 11q3 4 11 4h285q1 0 7 -2.5t11 -5.5t4 -5l230 -479l446 492q1 2 2.5 2t3 -1t2.5 -1z" />
    <glyph glyph-name="thorn" unicode="&#xfe;" horiz-adv-x="1187" 
d="M358 1151h224q19 0 50.5 -3.5t108 -28t130 -65.5t86 -130t6.5 -209q-18 -85 -58.5 -154t-91.5 -110.5t-108 -72t-110.5 -44t-97 -21t-69.5 -7.5l-27 -1h-223l-63 -301q-10 -8 -11 -8h-233q-8 0 -17 9t-8 15l297 1393q1 5 1.5 6t2.5 1.5t7 0.5h233q9 0 17 -9t6 -15z
M233 569h224q8 0 22 1.5t51 12t67.5 27t59.5 52t39 81.5q6 32 0.5 55.5t-20.5 39.5t-34 25.5t-40 14.5t-38 7t-28 2h-12h-223z" />
    <glyph glyph-name="ydieresis" unicode="&#xff;" horiz-adv-x="1320" 
d="M643 1642q-12 -55 -60 -94t-102 -39q-67 0 -108 48.5t-27 113.5q10 55 56.5 94t99.5 39q69 0 111.5 -49t29.5 -113zM1061 1642q-12 -55 -59 -94t-101 -39q-69 0 -110 48.5t-27 113.5q10 55 57 94t101 39q69 0 111 -48.5t28 -113.5zM991 1434h285q14 0 24.5 -12t4.5 -21
l-678 -731l-146 -662q-10 -8 -12 -8h-231q-9 0 -18 9.5t-7 15.5l143 651q-183 373 -352 743q-16 6 -15 11q3 4 11 4h285q1 0 7 -2.5t11 -5.5t4 -5l230 -479l446 492q1 2 2.5 2t3 -1t2.5 -1z" />
    <glyph glyph-name="Abreve" unicode="&#x102;" 
d="M766 1825h182q8 0 16 -10.5t5 -20.5q-17 -82 -52.5 -142t-84.5 -94.5t-104 -50.5t-118 -16q-71 0 -128.5 18.5t-102 58.5t-59 103t1.5 152q2 2 10 2h182q8 0 17 -10.5t6 -20.5q-8 -51 10.5 -76.5t52.5 -25.5q49 0 94.5 35.5t59.5 95.5q2 2 12 2zM63 162l-86 -158
q-3 -4 -14 -4h-252q-12 0 -21 11t-5 20l866 1439q6 10 19.5 3.5t13.5 -17.5l254 -1440q4 -9 3.5 -12.5t-10.5 -3.5h-253q-6 0 -16 6t-7 10l-25 146h-467zM492 403l-48 431l-241 -431h289z" />
    <glyph glyph-name="abreve" unicode="&#x103;" 
d="M766 1817h182q8 0 16 -10.5t7 -20.5q-35 -159 -131.5 -231t-229.5 -72q-71 0 -128.5 18.5t-101.5 58.5t-58.5 103t2.5 152q7 2 8 2h182q8 0 17 -10.5t8 -20.5q-10 -51 8.5 -77t52.5 -26q49 0 94.5 36t61.5 96q0 2 10 2zM63 162l-86 -158q-3 -4 -14 -4h-252q-12 0 -21 11
t-5 20l866 1439q6 10 19.5 3.5t13.5 -17.5l254 -1440q4 -9 3.5 -12.5t-10.5 -3.5h-253q-6 0 -16 6t-7 10l-25 146h-467zM492 403l-48 431l-241 -431h289z" />
    <glyph glyph-name="Aogonek" unicode="&#x104;" 
d="M846 23l-12 -23q-56 -4 -102 -24.5t-73 -47.5t-39.5 -57t-7.5 -55q19 -27 50 -27q37 0 78 17t67 40q13 0 25 -10t12 -18l18 -154q1 -3 -0.5 -12t-1.5 -12q-116 -58 -244 -58q-98 0 -162 47.5t-67 143.5q-12 21 -2 69q23 110 160 201l-15 119h-464l-89 -158q-3 -4 -12 -4
h-254q-11 0 -19.5 11t-4.5 20l864 1439q6 10 19.5 3.5t13.5 -17.5zM203 397l293 6q-41 277 -56 410z" />
    <glyph glyph-name="aogonek" unicode="&#x105;" 
d="M838 23l-13 -23q-108 -8 -169.5 -67.5t-49.5 -114.5q19 -27 51 -27q35 0 76 16.5t66 38.5q13 -2 26 -10t13 -16l18 -154q0 -3 -2 -11.5t-2 -12.5q-116 -58 -242 -58q-97 0 -161 48t-68 143q-7 25 2 69q23 110 156 197l-13 119h-460l-86 -156q-3 -4 -15 -4h-250
q-12 0 -21 11t-5 20l856 1425q8 10 20.5 3.5t14.5 -17.5zM201 393l291 6q-7 57 -26.5 189t-29.5 221z" />
    <glyph glyph-name="Cacute" unicode="&#x106;" horiz-adv-x="1421" 
d="M672 1542l-64 162q-1 2 -2 3t-3 4q-6 8 -1 9l426 209q9 3 20 -3.5t11 -12.5l74 -166q0 -2 1.5 -6t2 -6t0 -5t-3.5 -4l-431 -200q-9 -3 -19.5 3.5t-10.5 12.5zM549 246q97 0 189 38.5t163 104.5q10 0 18.5 -5.5t10.5 -10.5l131 -164q5 -5 8.5 -15t-0.5 -18
q-117 -93 -256.5 -144.5t-280.5 -51.5q-152 0 -276.5 53t-204 151t-109.5 237t7 310q44 210 168.5 375t304 256.5t383.5 91.5q155 0 276.5 -59t190.5 -162q7 0 13 -4t7.5 -9t-0.5 -8l-200 -161q-6 -4 -15.5 2t-9.5 14q-108 121 -279 121q-212 0 -367 -136.5t-200 -349.5
q-43 -209 51.5 -332.5t276.5 -123.5z" />
    <glyph glyph-name="cacute" unicode="&#x107;" horiz-adv-x="1421" 
d="M698 1536l-65 162q-1 2 -2 3t-3 4q-6 8 -1 9l428 209q7 3 17.5 -3.5t10.5 -12.5l74 -166q1 -2 2 -6t2 -6t0.5 -5t-2.5 -4l-432 -200q-7 -3 -18 3.5t-11 12.5zM545 244q96 0 186.5 37.5t161.5 103.5q10 0 18.5 -5.5t10.5 -10.5l131 -162q5 -5 8 -15.5t0 -17.5
q-117 -92 -255.5 -143t-277.5 -51q-151 0 -274 52.5t-202.5 150t-109.5 235t7 307.5q45 209 168 375t302.5 260t381.5 94q154 0 274.5 -57.5t190.5 -159.5q10 0 16.5 -7.5t1.5 -12.5l-197 -160q-7 -4 -16.5 2t-7.5 14q-109 119 -277 119q-104 0 -200 -38.5t-168.5 -105.5
t-124.5 -158t-74 -194q-43 -207 51.5 -329.5t274.5 -122.5z" />
    <glyph glyph-name="Ccaron" unicode="&#x10c;" horiz-adv-x="1421" 
d="M1159 1882l66 -139q1 -2 5.5 -9t4 -8t-1.5 -6l-383 -194h-19l-309 188q-7 3 -14 13t-4 16l123 151q8 8 20 -4l227 -133l259 141q12 5 26 -16zM549 246q97 0 189 38.5t163 104.5q10 0 18.5 -5.5t10.5 -10.5l131 -164q5 -5 8.5 -15t-0.5 -18q-117 -93 -256.5 -144.5
t-280.5 -51.5q-152 0 -276.5 53t-204 151t-109.5 237t7 310q44 210 168.5 375t304 256.5t383.5 91.5q155 0 276.5 -59t190.5 -162q7 0 13 -4t7.5 -9t-0.5 -8l-200 -161q-6 -4 -15.5 2t-9.5 14q-108 121 -279 121q-212 0 -367 -136.5t-200 -349.5q-43 -209 51.5 -332.5
t276.5 -123.5z" />
    <glyph glyph-name="ccaron" unicode="&#x10d;" horiz-adv-x="1421" 
d="M1171 1880l68 -139q1 -2 5.5 -9t4 -8t-1.5 -6l-385 -194h-18l-307 188q-8 3 -15 13t-4 16l123 151q7 10 21 -4l225 -133l260 141q5 3 13.5 -3.5t10.5 -12.5zM545 244q96 0 186.5 37.5t161.5 103.5q10 0 18.5 -5.5t10.5 -10.5l131 -162q5 -5 8 -15.5t0 -17.5
q-117 -92 -255.5 -143t-277.5 -51q-151 0 -274 52.5t-202.5 150t-109.5 235t7 307.5q45 209 168 375t302.5 260t381.5 94q154 0 274.5 -57.5t190.5 -159.5q10 0 16.5 -7.5t1.5 -12.5l-197 -160q-7 -4 -16.5 2t-7.5 14q-109 119 -277 119q-104 0 -200 -38.5t-168.5 -105.5
t-124.5 -158t-74 -194q-43 -207 51.5 -329.5t274.5 -122.5z" />
    <glyph glyph-name="Dcaron" unicode="&#x10e;" horiz-adv-x="1355" 
d="M952 1882l66 -139q1 -2 5.5 -9t4 -8t-1.5 -6l-383 -194h-18l-310 188q-7 3 -14 13t-4 16l123 151q8 8 20 -4l228 -133l258 141q12 5 26 -16zM156 1434h233q850 0 694 -732q-27 -126 -76.5 -229.5t-111 -175t-140.5 -126t-156.5 -86.5t-167.5 -51.5t-167 -26.5t-160 -7
h-233q-9 0 -18 9.5t-7 15.5l297 1400q1 5 1.5 6t3 2t8.5 1zM375 1171l-213 -907q32 -4 73.5 -0.5t87.5 7t96 19.5t98 36.5t94 57.5t84.5 83.5t69.5 114.5t48 149q24 125 6 212t-80.5 139.5t-153 73.5t-210.5 15z" />
    <glyph glyph-name="dcaron" unicode="&#x10f;" horiz-adv-x="1355" 
d="M920 1888l67 -139q1 -2 3 -5t3 -5.5l2 -5t0.5 -4.5t-2.5 -3l-383 -194h-18l-307 188q-8 3 -15 13t-4 16l121 152q6 6 23 -5l225 -133l260 142q5 3 14 -4t11 -13zM158 1434h231q63 0 119.5 -4t122 -14.5t121 -28t111 -47t97.5 -68t75 -94t49.5 -122.5t15.5 -156t-23 -193
q-27 -125 -76.5 -228.5t-110.5 -175.5t-139 -127t-155.5 -87.5t-166.5 -53t-166 -28t-159 -7.5h-231q-9 0 -18 9.5t-7 15.5l297 1400q1 5 1.5 6t3 2t8.5 1zM377 1180l-217 -924q42 -2 85 0.5t101.5 13.5t111.5 30.5t110 56.5t102 86.5t83 124.5t58 167q16 79 16.5 143
t-13.5 111t-43 82.5t-67.5 57.5t-91 35t-109.5 16.5t-126 -0.5z" />
    <glyph glyph-name="Dcroat" unicode="&#x110;" horiz-adv-x="1355" 
d="M-162 612l43 209q1 4 1 4.5t1.5 2t3.5 1.5h7h122l127 596q1 5 1.5 6t3 2t8.5 1h233q63 0 120 -4t123 -14.5t122 -28t112 -47t98.5 -68.5t76.5 -94.5t50.5 -123.5t15 -157.5t-23.5 -194.5q-27 -126 -76.5 -229.5t-111 -175t-140.5 -126t-156.5 -86.5t-167.5 -51.5
t-167 -26.5t-160 -7h-233q-9 0 -18 9.5t-7 15.5l119 563h-102q-9 0 -18 9t-7 15zM240 588l-80 -332h43q40 0 81 4t96 17t104.5 33.5t102.5 57.5t95.5 85t77.5 119.5t53 158.5q14 66 15 122.5t-9 98t-29.5 76t-44 58t-56 41t-61 27.5t-63.5 16t-60.5 8t-53.5 2l-76 -2
l-84 -349h237q9 0 19 -9t8 -15l-45 -209q-10 -8 -12 -8h-258z" />
    <glyph glyph-name="dcroat" unicode="&#x111;" horiz-adv-x="1296" 
d="M-160 608l45 205q7 8 9 8h122l127 592q1 5 1.5 6t2.5 1.5t7 0.5h233q62 0 118.5 -3.5t122 -14.5t121 -28.5t111 -46.5t97.5 -67.5t75 -93.5t49.5 -122.5t15 -156t-23.5 -192.5q-147 -696 -969 -696h-233q-7 0 -16 9.5t-7 15.5l119 559h-102q-8 0 -17 9t-8 15zM238 584
l-80 -330h45q39 0 79.5 4t94.5 16.5t103 33t101.5 57t94 84t76.5 119t53 157.5q14 65 15 121t-8.5 97.5t-29 75.5t-43.5 57t-55.5 40.5t-61 27t-63 15.5t-60 8t-53.5 2l-75 -2l-84 -346h237q8 0 17 -9t8 -15l-43 -205q-8 -8 -10 -8h-258z" />
    <glyph glyph-name="Eogonek" unicode="&#x118;" horiz-adv-x="1204" 
d="M295 850h553q9 0 18.5 -9.5t7.5 -15.5l-49 -233q-10 -8 -12 -8h-573l-68 -318h672q7 0 15.5 -9t6.5 -15l-49 -234l-4 -14q-113 4 -177.5 -57.5t-53.5 -120.5q19 -27 51 -27q35 0 76.5 17t66.5 38q14 1 26.5 -8.5t12.5 -17.5l16 -154q1 -3 -1.5 -12t-2.5 -12
q-120 -60 -247 -60q-98 0 -161 46.5t-67 137.5q-12 21 -4 64q23 112 123 176l-600 -4q-9 0 -18 9.5t-7 15.5l297 1400q1 5 1.5 6t3 2t8.5 1h936q7 0 15.5 -9.5t6.5 -15.5l-49 -233q-8 -9 -10 -9h-693z" />
    <glyph glyph-name="eogonek" unicode="&#x119;" horiz-adv-x="1204" 
d="M295 850h553q9 0 18.5 -9.5t7.5 -15.5l-49 -233q-10 -8 -12 -8h-573l-68 -318h672q7 0 15.5 -9t6.5 -15l-49 -234l-4 -14q-113 4 -177.5 -57.5t-53.5 -120.5q19 -27 51 -27q35 0 76.5 17t66.5 38q14 1 26.5 -8.5t12.5 -17.5l16 -154q1 -3 -1.5 -12t-2.5 -12
q-120 -60 -247 -60q-98 0 -161 46.5t-67 137.5q-12 21 -4 64q23 112 123 176l-600 -4q-9 0 -18 9.5t-7 15.5l297 1400q1 5 1.5 6t3 2t8.5 1h936q7 0 15.5 -9.5t6.5 -15.5l-49 -233q-8 -9 -10 -9h-693z" />
    <glyph glyph-name="Ecaron" unicode="&#x11a;" horiz-adv-x="1204" 
d="M999 1858l68 -140q1 -2 3 -5t3 -5t2 -4.5t0.5 -4.5t-2.5 -3l-383 -195h-18l-307 189q-8 3 -15 12.5t-4 15.5l121 152q6 6 22 -4l226 -133l260 141q5 3 13.5 -3.5t10.5 -12.5zM295 850h553q7 0 16.5 -9.5t7.5 -15.5l-49 -227q-8 -8 -10 -8h-573l-68 -324h670q9 0 17.5 -9
t6.5 -15l-49 -234q-10 -8 -12 -8h-934q-9 0 -18 9.5t-7 15.5l297 1400q1 5 1.5 6t3 2t8.5 1h915q9 0 18 -9.5t7 -15.5l-47 -227q-1 -4 -1 -4.5t-1.5 -2t-3.5 -1.5h-7h-671z" />
    <glyph glyph-name="ecaron" unicode="&#x11b;" horiz-adv-x="1204" 
d="M987 1851l68 -139q1 -2 5 -8.5t4.5 -8t-1.5 -5.5l-385 -195h-19l-307 188q-8 3 -14.5 13t-3.5 16l123 152q7 9 20 -4l225 -134l261 142q5 3 13.5 -4t10.5 -13zM293 842h549q9 0 16.5 -9.5t5.5 -15.5l-47 -223q-1 -2 -1 -5t-9 -3h-569l-70 -328h666q9 0 17.5 -9.5
t6.5 -15.5l-47 -225q-10 -8 -12 -8h-928q-7 0 -16 9.5t-7 15.5l297 1400q1 6 1.5 6.5t2.5 1.5t7 1h927q9 0 18 -9.5t7 -15.5l-47 -227q-10 -8 -12 -8h-687z" />
    <glyph glyph-name="Lacute" unicode="&#x139;" horiz-adv-x="1026" 
d="M160 1505l-64 162q-1 2 -2 3t-3 4q-6 8 -1 9l428 209q7 3 18 -3.5t11 -12.5l74 -166q1 -2 2 -5.5t2 -6t0.5 -5t-2.5 -3.5l-433 -201q-8 -3 -18 3t-12 13zM170 266h489q9 0 18 -9t7 -15l-49 -234q-10 -8 -12 -8h-754q-9 0 -18 9.5t-7 15.5l297 1400q1 5 1.5 6t3 2t8.5 1
h235q7 0 16 -9.5t7 -15.5z" />
    <glyph glyph-name="lacute" unicode="&#x13a;" horiz-adv-x="1026" 
d="M186 1516l-65 161q-1 3 -5 7.5t-4 6t3 3.5l428 209q7 3 17.5 -4t10.5 -13l74 -166q1 -2 2 -5.5t2 -6t0.5 -5t-2.5 -3.5l-432 -201q-9 -3 -19 4t-10 13zM170 264h483q9 0 18 -9t7 -15l-49 -232q-1 -4 -1 -4.5t-1.5 -2t-3.5 -1.5h-7h-745q-9 0 -18 9.5t-7 15.5l297 1400
q1 5 1.5 6t3 2t8.5 1h231q9 0 18 -9.5t7 -15.5z" />
    <glyph glyph-name="Lcaron" unicode="&#x13d;" horiz-adv-x="1026" 
d="M741 1462q90 0 126 -49t20 -123q-15 -75 -73.5 -160t-123.5 -126q-17 -3 -29.5 8t-9.5 22l41 148q-52 6 -82 51.5t-18 103.5q10 52 54 88.5t95 36.5zM170 266h489q9 0 18 -9t7 -15l-49 -234q-10 -8 -12 -8h-754q-9 0 -18 9.5t-7 15.5l297 1400q1 5 1.5 6t3 2t8.5 1h235
q7 0 16 -9.5t7 -15.5z" />
    <glyph glyph-name="lcaron" unicode="&#x13e;" horiz-adv-x="1026" 
d="M741 1462q90 0 126 -49t20 -123q-15 -75 -73.5 -160t-123.5 -126q-17 -3 -29.5 8t-9.5 22l41 148q-52 6 -82 51.5t-18 103.5q10 52 54 88.5t95 36.5zM170 266h489q9 0 18 -9t7 -15l-49 -234q-10 -8 -12 -8h-754q-9 0 -18 9.5t-7 15.5l297 1400q1 5 1.5 6t3 2t8.5 1h235
q7 0 16 -9.5t7 -15.5z" />
    <glyph glyph-name="Lslash" unicode="&#x141;" horiz-adv-x="1026" 
d="M170 266h487q9 0 18 -9t7 -15l-49 -234q-10 -8 -12 -8h-752q-9 0 -18 9.5t-7 15.5l99 458l-117 -41q-10 -3 -20.5 7.5t-8.5 19.5l43 203q2 8 4 8l148 41l149 704q1 5 1.5 6t3 2t8.5 1h233q9 0 18 -9.5t7 -15.5l-127 -598l198 63q10 3 21.5 -7t9.5 -19l-43 -201
q0 -1 0.5 -4.5t-0.5 -4t-6 -1.5l-229 -64z" />
    <glyph glyph-name="lslash" unicode="&#x142;" horiz-adv-x="1003" 
d="M170 266h487q9 0 18 -9t7 -15l-49 -234q-10 -8 -12 -8h-752q-9 0 -18 9.5t-7 15.5l99 458l-117 -41q-10 -3 -20.5 7.5t-8.5 19.5l43 203q2 8 4 8l148 41l149 704q1 5 1.5 6t3 2t8.5 1h233q9 0 18 -9.5t7 -15.5l-127 -598l198 63q10 3 21.5 -7t9.5 -19l-43 -201
q0 -1 0.5 -4.5t-0.5 -4t-6 -1.5l-229 -64z" />
    <glyph glyph-name="Nacute" unicode="&#x143;" horiz-adv-x="1519" 
d="M618 1499l-65 166q-1 2 -2 3t-3 4q-6 8 -1 9l434 215q7 3 17.5 -2.5t13.5 -11.5l73 -172q1 -3 2 -7t1.5 -6.5t0 -5t-3.5 -3.5l-438 -205q-7 -3 -18 3.5t-11 12.5zM1348 1409l-297 -1401q-1 -4 -1 -4.5t-1.5 -2t-3.5 -1.5h-7h-235q-2 0 -8.5 2t-12 5t-4.5 5l-454 938
l-205 -942q-1 -4 -1 -4.5t-1.5 -2t-3.5 -1.5h-7h-235q-7 0 -16 9.5t-7 15.5l297 1400q1 6 1.5 6.5t2.5 1.5t7 1h237q2 0 8.5 -2.5t12 -5.5t4.5 -5l456 -938l205 942q1 5 1.5 6t3 2t8.5 1h231q9 0 18 -9.5t7 -15.5z" />
    <glyph glyph-name="nacute" unicode="&#x144;" horiz-adv-x="1519" 
d="M618 1501l-63 162q-1 2 -3 4.5t-3 3.5q-6 7 0 8l426 209q9 3 19 -3.5t10 -12.5l73 -166q1 -2 3.5 -7.5t2 -7t-3.5 -5.5l-432 -201q-7 -3 -18 3.5t-11 12.5zM1341 1411l-299 -1403q-10 -8 -12 -8h-233q-2 0 -8.5 2t-12 5t-4.5 5l-448 949l-207 -953q-1 -5 -1.5 -6
t-2.5 -1.5t-7 -0.5h-233q-9 0 -17 9.5t-6 15.5l297 1402q0 2 1 4q0 5 10 5h235q2 0 8 -2.5t11 -5.5t4 -5l450 -956l207 960q2 8 4 8.5t8 0.5h230q9 0 18.5 -9.5t7.5 -15.5z" />
    <glyph glyph-name="Ncaron" unicode="&#x147;" horiz-adv-x="1519" 
d="M1098 1849l67 -139q1 -2 3 -5t3 -5t2 -4.5t0.5 -4.5t-2.5 -3l-383 -195h-18l-307 188q-8 3 -15 13t-4 16l121 152q7 7 23 -4l225 -134l260 142q5 3 14 -4t11 -13zM1348 1409l-297 -1401q-1 -4 -1 -4.5t-1.5 -2t-3.5 -1.5h-7h-235q-2 0 -8.5 2t-12 5t-4.5 5l-454 938
l-205 -942q-1 -4 -1 -4.5t-1.5 -2t-3.5 -1.5h-7h-235q-7 0 -16 9.5t-7 15.5l297 1400q1 6 1.5 6.5t2.5 1.5t7 1h237q2 0 8.5 -2.5t12 -5.5t4.5 -5l456 -938l205 942q1 5 1.5 6t3 2t8.5 1h231q9 0 18 -9.5t7 -15.5z" />
    <glyph glyph-name="ncaron" unicode="&#x148;" horiz-adv-x="1519" 
d="M1094 1831l67 -139q1 -2 3 -5t3 -5.5l2 -5t0.5 -4.5t-2.5 -3l-383 -194h-18l-307 188q-8 3 -15 13t-4 16l123 151q7 10 21 -4l225 -133l260 141q5 3 14 -4t11 -12zM1341 1411l-299 -1403q-10 -8 -12 -8h-233q-2 0 -8.5 2t-12 5t-4.5 5l-448 949l-207 -953q-1 -5 -1.5 -6
t-2.5 -1.5t-7 -0.5h-233q-9 0 -17 9.5t-6 15.5l297 1402q0 2 1 4q0 5 10 5h235q2 0 8 -2.5t11 -5.5t4 -5l450 -956l207 960q2 8 4 8.5t8 0.5h230q9 0 18.5 -9.5t7.5 -15.5z" />
    <glyph glyph-name="Ohungarumlaut" unicode="&#x150;" horiz-adv-x="1306" 
d="M444 1518l-94 104q-23 17 -12 25l319 235q5 4 13 0t12 -10l98 -107q8 -6 13.5 -12.5t1.5 -9.5l-328 -236q-5 -3 -13 2t-10 9zM852 1501l-92 113q-21 15 -12 24l319 238q10 5 25 -10l102 -119q6 -4 10 -10.5t0 -12.5l-327 -233q-10 -5 -25 10zM438 381q-151 0 -264.5 74.5
t-162 201.5t-17.5 275q46 215 231 368.5t400 153.5q151 0 264.5 -75t162 -202t17.5 -274q-22 -106 -84 -203t-146.5 -167t-189.5 -111t-211 -41zM610 1190q-119 0 -222 -84.5t-128 -202.5q-23 -110 33.5 -184t159.5 -74q120 0 222 83.5t128 203.5q23 109 -33 183.5
t-160 74.5zM864 240l-49 -232q-10 -8 -12 -8h-924q-9 0 -17.5 9.5t-6.5 15.5l49 231q10 8 12 8h924q9 0 17.5 -9t6.5 -15z" />
    <glyph glyph-name="ohungarumlaut" unicode="&#x151;" horiz-adv-x="1632" 
d="M600 1518l-98 108q-20 20 -10 27l327 245q7 4 15 0t12 -10l102 -112q23 -17 15 -23l-340 -246q-5 -3 -13 2t-10 9zM1020 1499l-94 119q-20 20 -11 27l326 245q7 4 15 0t12 -10l104 -123q21 -14 10 -22l-333 -244q-7 -3 -17 0.5t-12 7.5zM788 1454q100 0 186 -22
t150 -61.5t113.5 -94t79.5 -120t45 -139.5t13 -153t-19 -159q-29 -138 -100 -265.5t-175.5 -230.5t-251.5 -165t-313 -62q-102 0 -189 22t-151 61.5t-113.5 94.5t-79 121t-44.5 140t-13 152.5t19 159.5q30 138 100 265t174.5 230t252 164.5t316.5 61.5zM530 240
q107 0 203.5 42t166.5 111.5t118 156t67 179.5q12 59 12.5 115.5t-10.5 108.5t-36.5 96t-63 76.5t-92 50.5t-121.5 18q-108 0 -205 -42.5t-167 -112.5t-118 -157.5t-67 -181.5q-12 -70 -13 -136.5t21.5 -125.5t59.5 -103t100.5 -69.5t144.5 -25.5z" />
    <glyph glyph-name="OE" unicode="&#x152;" horiz-adv-x="1937" 
d="M1083 850h453q9 0 19 -9.5t8 -15.5l-47 -223q-1 -4 -1 -4.5t-1.5 -2t-3.5 -1.5h-7h-473l-72 -332h570q9 0 18.5 -9t7.5 -15l-49 -230q-10 -8 -12 -8h-817q-71 -14 -158 -14q-98 0 -182 22t-146.5 61t-110.5 93.5t-77 120t-43.5 139.5t-12.5 152.5t19 158.5q24 110 72 213
t122.5 195.5t167 161.5t211.5 109t250 40q87 0 181 -20l782 2q9 0 18 -9.5t7 -15.5l-47 -223q-1 -4 -1 -4.5t-1.5 -2t-3.5 -1.5h-7h-563zM526 223q78 0 158 23l221 946q-61 18 -127 18q-100 0 -191 -43.5t-157.5 -116t-113 -162.5t-66.5 -186q-13 -73 -15.5 -142
t16.5 -130.5t52.5 -107t90.5 -72.5t132 -27z" />
    <glyph glyph-name="oe" unicode="&#x153;" horiz-adv-x="1937" 
d="M1077 842h449q7 0 15.5 -9.5t6.5 -15.5l-47 -219q-8 -8 -10 -8h-469l-70 -330h566q9 0 18.5 -9t7.5 -15l-49 -228q-10 -8 -12 -8h-811q-71 -14 -156 -14q-98 0 -181.5 21.5t-145.5 60.5t-109.5 93.5t-76 119t-42.5 138t-11.5 151t19.5 157.5q29 137 97.5 262.5t170 227
t244 162.5t303.5 61q80 0 179 -21l774 2q9 0 17.5 -9t6.5 -15l-47 -221q-2 -8 -4 -8.5t-8 -0.5h-557zM524 223q86 0 156 21l219 938q-70 18 -125 18q-99 0 -189.5 -43.5t-157 -115t-113 -161t-66.5 -184.5q-13 -72 -14.5 -140.5t17.5 -129t52 -105.5t90 -71.5t131 -26.5z
" />
    <glyph glyph-name="Racute" unicode="&#x154;" horiz-adv-x="1253" 
d="M469 1520l-63 161q-1 3 -5.5 7.5t-5.5 6t2 3.5l428 209q9 3 19 -4t10 -13l74 -166q1 -2 2 -5.5t2 -6t0.5 -5t-2.5 -3.5l-432 -201q-7 -3 -18 4t-11 13zM881 0h-275q-3 0 -9.5 2.5t-11.5 6t-3 5.5l-236 570h-104l-123 -576q-1 -4 -1 -4.5t-1.5 -2t-3.5 -1.5h-7h-233
q-9 0 -18 9.5t-7 15.5l175 817q0 6 0.5 7t9.5 1l209 6q-24 54 -71.5 165.5t-70.5 166.5l45 237q1 5 1.5 6t3 2t8.5 1h487q6 0 16 -1t43 -5t61 -12t70 -23.5t71.5 -37.5t64 -55t47.5 -76.5t22.5 -100.5t-10.5 -128q-63 -294 -377 -383l230 -594q8 -15 5 -17q-1 -1 -7 -1z
M401 1167l127 -315q32 1 66 10t68.5 28t61 53.5t36.5 80.5q5 23 4.5 43t-6 33.5t-15 25t-21.5 18t-25.5 11.5t-27.5 7t-27.5 4t-25 1t-20.5 0h-4.5h-3.5h-187z" />
    <glyph glyph-name="racute" unicode="&#x155;" horiz-adv-x="1226" 
d="M457 1507l-66 162q-1 3 -5 7.5t-4 6t3 3.5l428 208q7 3 18 -3.5t11 -12.5l73 -166q1 -2 3 -7.5t2 -7t-2 -5.5l-433 -201q-7 -3 -17.5 3.5t-10.5 12.5zM236 580l-121 -572q-1 -4 -1 -4.5t-1.5 -2t-3.5 -1.5h-7h-233q-7 0 -16 9.5t-7 15.5l297 1400q1 6 1.5 6.5t2.5 1.5
t7 1h462q19 0 38 -1t56 -5.5t67 -13t70.5 -23.5t67.5 -38t58 -55.5t41 -76t17 -100.5t-13 -128q-59 -278 -338 -381q19 -104 66.5 -304.5t66.5 -299.5q20 -8 0 -8h-256q-3 0 -10 3t-12.5 7t-4.5 6l-137 564h-157zM293 842h199q23 0 47 2.5t59.5 13.5t64 29.5t54 53
t35.5 81.5q9 43 -2 74t-30 45.5t-51 22.5t-48.5 9t-38.5 1h-220z" />
    <glyph glyph-name="Rcaron" unicode="&#x158;" horiz-adv-x="1253" 
d="M942 1858l68 -140q1 -2 3 -5t3 -5t2 -4.5t0.5 -4.5t-2.5 -3l-383 -195h-19l-307 189q-8 3 -14.5 12.5t-3.5 15.5l121 152q6 6 22 -4l225 -133l261 141q5 3 13.5 -3.5t10.5 -12.5zM881 0h-275q-3 0 -9.5 2.5t-11.5 6t-3 5.5l-236 570h-104l-123 -576q-1 -4 -1 -4.5
t-1.5 -2t-3.5 -1.5h-7h-233q-9 0 -18 9.5t-7 15.5l175 817q0 6 0.5 7t9.5 1l209 6q-24 54 -71.5 165.5t-70.5 166.5l45 237q1 5 1.5 6t3 2t8.5 1h487q6 0 16 -1t43 -5t61 -12t70 -23.5t71.5 -37.5t64 -55t47.5 -76.5t22.5 -100.5t-10.5 -128q-63 -294 -377 -383l230 -594
q8 -15 5 -17q-1 -1 -7 -1zM401 1167l127 -315q32 1 66 10t68.5 28t61 53.5t36.5 80.5q5 23 4.5 43t-6 33.5t-15 25t-21.5 18t-25.5 11.5t-27.5 7t-27.5 4t-25 1t-20.5 0h-4.5h-3.5h-187z" />
    <glyph glyph-name="rcaron" unicode="&#x159;" horiz-adv-x="1226" 
d="M948 1847l66 -139q14 -19 8 -22l-383 -195h-18l-308 188q-8 3 -14.5 13t-5.5 16l123 152q6 6 22 -5l226 -133l260 142q5 3 13.5 -4t10.5 -13zM236 580l-121 -572q-1 -4 -1 -4.5t-1.5 -2t-3.5 -1.5h-7h-233q-7 0 -16 9.5t-7 15.5l297 1400q1 6 1.5 6.5t2.5 1.5t7 1h462
q19 0 38 -1t56 -5.5t67 -13t70.5 -23.5t67.5 -38t58 -55.5t41 -76t17 -100.5t-13 -128q-59 -278 -338 -381q19 -104 66.5 -304.5t66.5 -299.5q20 -8 0 -8h-256q-3 0 -10 3t-12.5 7t-4.5 6l-137 564h-157zM293 842h199q23 0 47 2.5t59.5 13.5t64 29.5t54 53t35.5 81.5
q9 43 -2 74t-30 45.5t-51 22.5t-48.5 9t-38.5 1h-220z" />
    <glyph glyph-name="Sacute" unicode="&#x15a;" horiz-adv-x="1112" 
d="M426 1534l-64 162q-1 2 -2 3t-3 4q-6 8 -1 9l428 209q7 3 18 -3.5t11 -12.5l74 -166q1 -2 2 -6t2 -6t0.5 -5t-2.5 -4l-432 -200q-8 -3 -18.5 3t-12.5 13zM537 1454q130 0 226 -54.5t138 -154.5t17 -225h-11h-231q-8 0 -17 10t-8 19q11 70 -25.5 104.5t-105.5 34.5
q-87 0 -156.5 -51.5t-87.5 -141.5q-16 -71 24 -109t108 -38q19 0 45 -2.5t75 -16t86 -36.5q113 -52 158.5 -157.5t15.5 -240.5q-21 -98 -74 -178t-125 -131t-156 -78.5t-169 -27.5q-204 5 -314.5 121.5t-70.5 316.5q9 2 10 2h234q8 0 16.5 -10.5t7.5 -20.5
q-13 -70 26.5 -106.5t107.5 -36.5q83 0 153.5 50.5t87.5 127.5q16 71 -25.5 116t-103.5 48q-116 0 -209 55q-113 53 -159.5 150.5t-18.5 230.5q28 130 113 230t194.5 150t223.5 50z" />
    <glyph glyph-name="sacute" unicode="&#x15b;" horiz-adv-x="1112" 
d="M416 1505l-64 162q-1 2 -2 3t-3 4q-6 8 -1 9l428 209q7 3 18 -3.5t11 -12.5l74 -166q1 -2 2 -5.5t2 -6t0.5 -5t-2.5 -3.5l-433 -201q-8 -3 -18 3t-12 13zM262 -20q-203 5 -312 120.5t-71 315.5h10h232q8 0 17.5 -9.5t6.5 -19.5q-11 -71 27.5 -107t106.5 -36
q82 0 152 49.5t87 126.5q14 70 -27.5 115.5t-99.5 48.5q-118 0 -209 53q-109 53 -155 155.5t-17 233.5q27 129 110.5 228t192 148.5t222.5 49.5q197 0 305.5 -120.5t70.5 -307.5q-9 -2 -10 -2h-229q-8 0 -17 10.5t-8 20.5q11 69 -24.5 103t-102.5 34q-87 0 -156 -50.5
t-88 -142.5q-14 -71 23.5 -114t103.5 -43q18 0 44.5 -2.5t75 -16t85.5 -35.5q112 -52 157 -157t17 -238q-21 -98 -74 -177.5t-124.5 -129.5t-154 -77t-167.5 -27z" />
    <glyph glyph-name="Scedilla" unicode="&#x15e;" horiz-adv-x="1112" 
d="M537 1450q199 0 308 -122t73 -312h-11h-231q-8 0 -18 10t-7 18q11 70 -25.5 105t-105.5 35q-88 0 -157 -49.5t-87 -139.5q-16 -71 24 -109t108 -38q19 0 45 -2.5t75 -16t86 -36.5q113 -52 158.5 -157.5t15.5 -240.5q-48 -225 -256 -344q76 -76 50 -198
q-28 -131 -141.5 -224.5t-247.5 -93.5q-150 0 -234 102.5t-55 243.5l8 2h182q9 0 17.5 -10t7.5 -20q-9 -44 13 -74.5t65 -30.5q57 0 105 39.5t60 93.5q9 47 -13 76t-70 29h-23q-96 2 -173.5 31.5t-130.5 85t-73 136t0 185.5q9 2 10 2h234q8 0 17.5 -10.5t6.5 -20.5
q-11 -70 27.5 -106.5t106.5 -36.5q84 0 154 48t87 124q16 71 -25.5 116t-103.5 48q-116 0 -209 55q-113 53 -159.5 150.5t-18.5 230.5q28 130 113 229t194 148t224 49z" />
    <glyph glyph-name="scedilla" unicode="&#x15f;" horiz-adv-x="1112" 
d="M537 1450q199 0 308 -122t73 -312h-11h-231q-8 0 -18 10t-7 18q11 70 -25.5 105t-105.5 35q-88 0 -157 -49.5t-87 -139.5q-16 -71 24 -109t108 -38q19 0 45 -2.5t75 -16t86 -36.5q113 -52 158.5 -157.5t15.5 -240.5q-48 -225 -256 -344q76 -76 50 -198
q-28 -131 -141.5 -224.5t-247.5 -93.5q-150 0 -234 102.5t-55 243.5l8 2h182q9 0 17.5 -10t7.5 -20q-9 -44 13 -74.5t65 -30.5q57 0 105 39.5t60 93.5q9 47 -13 76t-70 29h-23q-96 2 -173.5 31.5t-130.5 85t-73 136t0 185.5q9 2 10 2h234q8 0 17.5 -10.5t6.5 -20.5
q-11 -70 27.5 -106.5t106.5 -36.5q84 0 154 48t87 124q16 71 -25.5 116t-103.5 48q-116 0 -209 55q-113 53 -159.5 150.5t-18.5 230.5q28 130 113 229t194 148t224 49z" />
    <glyph glyph-name="Scaron" unicode="&#x160;" horiz-adv-x="1112" 
d="M918 1890l67 -139q1 -2 5 -8.5t4.5 -8t-1.5 -5.5l-385 -195h-18l-307 188q-8 3 -15 13t-4 16l123 152q8 8 21 -5l225 -133l260 142q7 3 15 -4t10 -13zM537 1454q130 0 226 -54.5t138 -154.5t17 -225h-11h-231q-8 0 -17 10t-8 19q11 70 -25.5 104.5t-105.5 34.5
q-87 0 -156.5 -51.5t-87.5 -141.5q-16 -71 24 -109t108 -38q19 0 45 -2.5t75 -16t86 -36.5q113 -52 158.5 -157.5t15.5 -240.5q-21 -98 -74 -178t-125 -131t-156 -78.5t-169 -27.5q-204 5 -314.5 121.5t-70.5 316.5q9 2 10 2h234q8 0 16.5 -10.5t7.5 -20.5
q-13 -70 26.5 -106.5t107.5 -36.5q83 0 153.5 50.5t87.5 127.5q16 71 -25.5 116t-103.5 48q-116 0 -209 55q-113 53 -159.5 150.5t-18.5 230.5q28 130 113 230t194.5 150t223.5 50z" />
    <glyph glyph-name="scaron" unicode="&#x161;" horiz-adv-x="1112" 
d="M905 1878l66 -135q1 -2 3 -5t3 -5.5l2 -5t0.5 -4.5t-2.5 -3l-375 -190h-16l-305 186q-6 4 -12 13t-3 14l119 147q6 6 21 -4l221 -131l254 139q5 3 13.5 -3.5t10.5 -12.5zM537 1454q130 0 226 -54.5t138 -154.5t17 -225h-11h-231q-8 0 -17 10t-8 19q11 70 -25.5 104.5
t-105.5 34.5q-87 0 -156.5 -51.5t-87.5 -141.5q-16 -71 24 -109t108 -38q19 0 45 -2.5t75 -16t86 -36.5q113 -52 158.5 -157.5t15.5 -240.5q-21 -98 -74 -178t-125 -131t-156 -78.5t-169 -27.5q-204 5 -314.5 121.5t-70.5 316.5q9 2 10 2h234q8 0 16.5 -10.5t7.5 -20.5
q-13 -70 26.5 -106.5t107.5 -36.5q83 0 153.5 50.5t87.5 127.5q16 71 -25.5 116t-103.5 48q-116 0 -209 55q-113 53 -159.5 150.5t-18.5 230.5q28 130 113 230t194.5 150t223.5 50z" />
    <glyph glyph-name="uni0162" unicode="&#x162;" horiz-adv-x="917" 
d="M881 1409l-45 -213q-1 -4 -1 -4.5t-1.5 -2t-3.5 -1.5h-7h-284l-250 -1180q-1 -4 -1 -4.5t-1.5 -2t-3.5 -1.5h-7h-231q-9 0 -18 9.5t-7 15.5l246 1163h-264q-9 0 -18 9t-7 15l46 213q2 8 4 8.5t8 0.5h821q9 0 18 -9.5t7 -15.5zM121 -45q91 0 127.5 -46.5t21.5 -117.5
t-73 -151.5t-123 -118.5q-16 -3 -29.5 7.5t-11.5 20.5l41 140q-52 6 -82.5 50t-20.5 99q10 49 54.5 83t95.5 34z" />
    <glyph glyph-name="uni0163" unicode="&#x163;" horiz-adv-x="917" 
d="M872 1397l-45 -213q-1 -6 -1.5 -6h-10.5h-283l-247 -1170q-10 -8 -11 -8h-231q-9 0 -17 9.5t-6 15.5l244 1153h-262q-9 0 -18 8t-7 14l46 213q10 8 12 8h813q9 0 17.5 -9t6.5 -15zM119 -47q91 0 127.5 -46.5t21.5 -117.5q-14 -71 -71.5 -151.5t-122.5 -118.5
q-16 -3 -29.5 7.5t-11.5 20.5l41 140q-52 6 -82.5 50t-20.5 99q10 49 53.5 83t94.5 34z" />
    <glyph glyph-name="Tcaron" unicode="&#x164;" horiz-adv-x="917" 
d="M807 1886l67 -139q1 -2 3 -5t3.5 -5.5t2.5 -5t0.5 -4.5t-2.5 -3l-383 -194h-19l-307 188q-8 3 -14.5 13t-3.5 16l120 151q7 7 23 -4l225 -133l260 142q5 3 14 -4t11 -13zM881 1409l-45 -213q-1 -4 -1 -4.5t-1.5 -2t-3.5 -1.5h-7h-284l-250 -1180q-1 -4 -1 -4.5t-1.5 -2
t-3.5 -1.5h-7h-231q-9 0 -18 9.5t-7 15.5l246 1163h-264q-9 0 -18 9t-7 15l46 213q2 8 4 8.5t8 0.5h821q9 0 18 -9.5t7 -15.5z" />
    <glyph glyph-name="tcaron" unicode="&#x165;" horiz-adv-x="917" 
d="M799 1860l67 -140q1 -2 3 -5t3 -5t2 -4.5t0.5 -4.5t-2.5 -3l-383 -195h-18l-307 189q-8 3 -15 12.5t-4 15.5l121 152q7 7 23 -4l225 -133l260 141q5 3 14 -4t11 -12zM872 1397l-45 -213q-1 -6 -1.5 -6h-10.5h-283l-247 -1170q-10 -8 -11 -8h-231q-9 0 -17 9.5t-6 15.5
l244 1153h-262q-9 0 -18 8t-7 14l46 213q10 8 12 8h813q9 0 17.5 -9t6.5 -15z" />
    <glyph glyph-name="Uring" unicode="&#x16e;" horiz-adv-x="1515" 
d="M801 1501q-127 0 -204 82t-54 191q22 101 118 172t209 71q128 0 203.5 -81t50.5 -191q-22 -100 -116.5 -172t-206.5 -72zM874 1849q-44 0 -86 -31.5t-51 -72.5q-6 -31 12 -51.5t48 -20.5q46 0 86 30t47 71q7 32 -9 53.5t-47 21.5zM156 1434h1165q9 0 18 -9.5t7 -15.5
l-177 -838l-3 -13q-3 -13 -7 -27.5t-11 -36.5t-17.5 -47t-23 -53.5t-30 -60t-37.5 -61.5q-108 -141 -256.5 -216.5t-322.5 -75.5q-191 0 -314 83t-161 238q-42 123 -19 287l178 837q1 6 1.5 6.5t2.5 1.5t7 1zM807 416q29 35 52 78.5t31.5 67.5t8.5 28l127 598h-659
l-127 -600q-3 -12 -5.5 -31t-6 -76t7.5 -94q57 -141 241 -141q219 0 330 170z" />
    <glyph glyph-name="uring" unicode="&#x16f;" horiz-adv-x="1398" 
d="M719 1473q-124 0 -197.5 79t-50.5 187q20 97 112.5 167t200.5 70q124 0 198 -80t52 -186q-22 -98 -114 -167.5t-201 -69.5zM791 1810q-44 0 -84.5 -30t-47.5 -70q-7 -32 8.5 -52t45.5 -20q46 0 85 30t48 71q6 31 -9 51t-46 20zM399 -20q-115 0 -209.5 35t-157.5 97.5
t-87.5 155t-1.5 201.5l200 944q1 4 1 4.5t1.5 2t3.5 1.5h7h231q9 0 18 -9t7 -15l-203 -942q-9 -103 50 -157t157 -54q116 0 215 61t121 164l200 944q1 4 1 4.5t1.5 2t3.5 1.5h7h233q7 0 16 -9t7 -15l-201 -944q-46 -222 -218.5 -347.5t-402.5 -125.5z" />
    <glyph glyph-name="Uhungarumlaut" unicode="&#x170;" horiz-adv-x="1515" 
d="M524 1534l-90 100q-6 5 -11.5 13.5t-2.5 11.5l311 233q10 5 25 -10l96 -106q21 -16 12 -23l-321 -231q-3 -4 -19 12zM922 1513l-91 115q-19 19 -10 25l307 231q5 4 13 0t12 -10l98 -115q17 -17 11 -22l-316 -230q-8 -2 -24 6zM156 1434h1165q9 0 18 -9.5t7 -15.5
l-177 -838l-3 -13q-3 -13 -7 -27.5t-11 -36.5t-17.5 -47t-23 -53.5t-30 -60t-37.5 -61.5q-108 -141 -256.5 -216.5t-322.5 -75.5q-191 0 -314 83t-161 238q-42 123 -19 287l178 837q1 6 1.5 6.5t2.5 1.5t7 1zM807 416q29 35 52 78.5t31.5 67.5t8.5 28l127 598h-659
l-127 -600q-3 -12 -5.5 -31t-6 -76t7.5 -94q57 -141 241 -141q219 0 330 170z" />
    <glyph glyph-name="uhungarumlaut" unicode="&#x171;" horiz-adv-x="1398" 
d="M477 1524l-94 100q-21 16 -12 25l319 231q7 4 15 0t12 -10l102 -107q7 -4 13 -10.5t2 -9.5l-332 -230q-8 -6 -25 11zM893 1507l-94 111q-6 4 -12 11.5t-3 10.5l322 232q7 4 15 0t12 -10l102 -115q6 -4 10 -10.5t0 -12.5l-327 -227q-7 -3 -15 1.5t-10 8.5zM399 -20
q-115 0 -209.5 35t-157.5 97.5t-87.5 155t-1.5 201.5l200 944q1 4 1 4.5t1.5 2t3.5 1.5h7h231q9 0 18 -9t7 -15l-203 -942q-9 -103 50 -157t157 -54q116 0 215 61t121 164l200 944q1 4 1 4.5t1.5 2t3.5 1.5h7h233q7 0 16 -9t7 -15l-201 -944q-46 -222 -218.5 -347.5
t-402.5 -125.5z" />
    <glyph glyph-name="Ydieresis" unicode="&#x178;" horiz-adv-x="1320" 
d="M645 1659q-10 -55 -57.5 -94t-102.5 -39q-68 0 -109 49t-28 113q12 55 58.5 94t99.5 39q69 0 111 -48.5t28 -113.5zM1063 1659q-10 -55 -57 -94t-101 -39q-69 0 -111 48.5t-28 113.5q12 55 59 94t101 39q69 0 110 -48.5t27 -113.5zM997 1434h287q14 0 24.5 -12t4.5 -21
l-682 -727l-146 -666q-10 -8 -12 -8h-233q-9 0 -18 9.5t-7 15.5l145 655q-28 58 -88.5 179.5t-96 193.5t-84.5 175t-89 191q-16 6 -15 11q3 4 11 4h285q2 0 8 -2.5t11.5 -5.5t4.5 -5l234 -471l448 484q1 2 2 2t3 -1t3 -1z" />
    <glyph glyph-name="Zacute" unicode="&#x179;" horiz-adv-x="972" 
d="M358 1522l-63 161q-1 3 -6 8q-7 8 0 9l426 209q8 3 18 -3.5t12 -13.5l72 -166q8 -17 2 -20l-432 -201q-7 -3 -18 4t-11 13zM653 242l-49 -234q-10 -8 -12 -8h-815q-12 0 -21.5 11t-5.5 20l701 1136h-428q-9 0 -18 9.5t-7 15.5l49 233q2 8 4 8.5t8 0.5h815q12 0 21.5 -11
t5.5 -20l-700 -1137h428q9 0 17.5 -9t6.5 -15z" />
    <glyph glyph-name="zacute" unicode="&#x17a;" horiz-adv-x="1193" 
d="M479 1518l-63 161q-2 2 -5 6q-9 10 -3 11l428 209q7 3 17.5 -4t10.5 -13l74 -166q1 -2 2 -5.5t2 -6t0.5 -5t-2.5 -3.5l-432 -201q-7 -3 -18 4t-11 13zM840 0h-1127q-11 0 -21.5 11t-4.5 20l944 1138h-608q-7 0 -17 9.5t-8 15.5l49 231q8 9 10 9h1067q12 0 22 -12t7 -21
l-942 -1137h666q9 0 16.5 -9t5.5 -15l-49 -232q0 -2 -1 -5q0 -3 -9 -3z" />
    <glyph glyph-name="Zdotaccent" unicode="&#x17b;" horiz-adv-x="972" 
d="M696 1647q-12 -56 -62 -95t-112 -39q-72 0 -117 49t-32 113q12 56 63 95.5t109 39.5q77 0 121 -48t30 -115zM653 242l-49 -234q-10 -8 -12 -8h-815q-12 0 -21.5 11t-5.5 20l701 1136h-428q-9 0 -18 9.5t-7 15.5l49 233q2 8 4 8.5t8 0.5h815q12 0 21.5 -11t5.5 -20
l-700 -1137h428q9 0 17.5 -9t6.5 -15z" />
    <glyph glyph-name="zdotaccent" unicode="&#x17c;" horiz-adv-x="1198" 
d="M848 1667q-12 -59 -67 -100t-124 -41q-79 0 -129 51t-36 119q12 59 68 100t122 41q84 0 132.5 -50.5t33.5 -119.5zM840 0h-1127q-11 0 -21.5 11t-4.5 20l944 1138h-608q-7 0 -17 9.5t-8 15.5l49 231q8 9 10 9h1067q12 0 22 -12t7 -21l-942 -1137h666q9 0 16.5 -9t5.5 -15
l-49 -232q0 -2 -1 -5q0 -3 -9 -3z" />
    <glyph glyph-name="Zcaron" unicode="&#x17d;" horiz-adv-x="972" 
d="M831 1868l66 -135q1 -2 5.5 -9t4 -8t-1.5 -6l-375 -190h-18l-301 184q-8 3 -14.5 13t-3.5 16l118 147q9 8 23 -6l219 -129l256 139q5 3 12.5 -3.5t9.5 -12.5zM653 242l-49 -234q-10 -8 -12 -8h-815q-12 0 -21.5 11t-5.5 20l701 1136h-428q-9 0 -18 9.5t-7 15.5l49 233
q2 8 4 8.5t8 0.5h815q12 0 21.5 -11t5.5 -20l-700 -1137h428q9 0 17.5 -9t6.5 -15z" />
    <glyph glyph-name="zcaron" unicode="&#x17e;" horiz-adv-x="1193" 
d="M950 1886l68 -139q1 -2 3 -5t3 -5.5l2 -5t0.5 -4.5t-2.5 -3l-383 -194h-18l-308 188q-8 3 -14.5 13t-3.5 16l121 151q6 6 22 -4l226 -133l260 142q5 3 13.5 -4t10.5 -13zM840 0h-1127q-11 0 -21.5 11t-4.5 20l944 1138h-608q-7 0 -17 9.5t-8 15.5l49 231q8 9 10 9h1067
q12 0 22 -12t7 -21l-942 -1137h666q9 0 16.5 -9t5.5 -15l-49 -232q0 -2 -1 -5q0 -3 -9 -3z" />
    <glyph glyph-name="circumflex" unicode="&#x2c6;" horiz-adv-x="802" 
d="M84 1133l-68 141q-1 2 -3 5t-3 5t-2 4.5t-0.5 4.5t2.5 3l385 197q6 3 19 -10l305 -183q8 -3 14.5 -11.5t3.5 -14.5l-123 -154q-4 -4 -20 2l-225 138l-260 -142q-4 -1 -13.5 4.5t-11.5 10.5z" />
    <glyph glyph-name="caron" unicode="&#x2c7;" horiz-adv-x="808" 
d="M668 1477l67 -140q1 -2 5 -8.5t4.5 -8t-1.5 -5.5l-385 -195h-18l-307 189q-8 3 -15 12.5t-4 15.5l123 152q9 9 21 -4l225 -133l260 141q7 3 15 -3.5t10 -12.5z" />
    <glyph glyph-name="breve" unicode="&#x2d8;" horiz-adv-x="700" 
d="M471 1454h182q8 0 16 -10.5t7 -20.5q-33 -158 -130.5 -230.5t-230.5 -72.5q-71 0 -128.5 18.5t-101.5 58.5t-58.5 103t2.5 152q7 2 8 2h182q8 0 17 -10.5t8 -20.5q-10 -51 8.5 -76.5t52.5 -25.5q49 0 94.5 35.5t61.5 95.5q0 2 10 2z" />
    <glyph glyph-name="dotaccent" unicode="&#x2d9;" horiz-adv-x="559" 
d="M369 1284q-11 -54 -58.5 -91.5t-107.5 -37.5q-70 0 -114 47.5t-32 110.5q12 55 61 93t105 38q74 0 117 -47.5t29 -112.5z" />
    <glyph glyph-name="ring" unicode="&#x2da;" horiz-adv-x="698" 
d="M238 891q-126 0 -200 90t-48 211q23 112 119.5 192t207.5 80q126 0 200 -90t48 -211q-25 -112 -121 -192t-206 -80zM319 1276q-44 0 -86 -34.5t-51 -78.5q-7 -36 8.5 -59t45.5 -23q46 0 87 33t50 78q8 35 -7.5 59.5t-46.5 24.5z" />
    <glyph glyph-name="ogonek" unicode="&#x2db;" horiz-adv-x="616" 
d="M-96 53l182 -4q15 0 26 -15t1 -24q-60 -22 -110.5 -81.5t-49.5 -112.5q22 -27 51 -27q35 0 76.5 17t66.5 38q14 1 26.5 -8.5t12.5 -17.5l17 -154q1 -3 -0.5 -12t-1.5 -12q-113 -58 -242 -58q-99 0 -162.5 47.5t-66.5 143.5q-12 20 -2 67q22 114 176 213z" />
    <glyph glyph-name="tilde" unicode="&#x2dc;" horiz-adv-x="802" 
d="M582 1440l149 -51q9 -2 18 -11.5t5 -19.5q-57 -105 -115.5 -149t-130.5 -44q-84 0 -172 45l-31 11q-32 16 -43 16q-20 0 -38.5 -17t-28.5 -49q-3 0 -11.5 2t-11.5 3l-152 45q-8 2 -14.5 11t-5.5 19q37 102 102.5 151.5t147.5 49.5q90 0 166 -45q18 -6 18 -8q0 -1 -2 -2
q26 -13 49 -13q52 0 78 62q10 -4 23 -6z" />
    <glyph glyph-name="hungarumlaut" unicode="&#x2dd;" horiz-adv-x="851" 
d="M72 1147l-92 113q-20 20 -11 26l322 256q7 4 14.5 0t9.5 -10l101 -117q18 -18 12 -24l-334 -254q-7 -5 -22 10zM481 1128l-90 123q-20 20 -10 27l321 256q7 4 15 -0.5t10 -9.5l100 -127q22 -16 13 -25l-334 -254q-10 -5 -25 10z" />
    <glyph glyph-name="pi" unicode="&#x3c0;" horiz-adv-x="1155" 
d="M72 1421h968q9 0 18 -9t7 -15l-49 -230q-7 -8 -10 -8h-164l-246 -1151q0 -2 -1 -5q0 -3 -9 -3h-236q-7 0 -15.5 9.5t-6.5 15.5l241 1134h-116l-246 -1151q-10 -8 -12 -8h-234q-7 0 -15.5 9.5t-6.5 15.5l241 1134h-143q-9 0 -18 9.5t-7 15.5l49 229q10 8 11 8z" />
    <glyph glyph-name="uni0401" unicode="&#x401;" horiz-adv-x="1204" 
d="M641 1651q-12 -55 -60 -94t-102 -39q-68 0 -108 48.5t-27 112.5q10 55 56.5 94t99.5 39q69 0 111 -48t30 -113zM1059 1651q-12 -55 -59 -94t-101 -39q-69 0 -110 48t-27 113q10 55 57 94t101 39q69 0 110 -48t29 -113zM295 850h553q7 0 16.5 -9.5t7.5 -15.5l-49 -227
q-8 -8 -10 -8h-573l-68 -324h670q9 0 17.5 -9t6.5 -15l-49 -234q-10 -8 -12 -8h-934q-9 0 -18 9.5t-7 15.5l297 1400q1 5 1.5 6t3 2t8.5 1h915q9 0 18 -9.5t7 -15.5l-47 -227q-1 -4 -1 -4.5t-1.5 -2t-3.5 -1.5h-7h-671z" />
    <glyph glyph-name="uni0410" unicode="&#x410;" horiz-adv-x="1398" 
d="M1104 1182q51 -109 29 -240l-199 -934q-10 -8 -12 -8h-234q-9 0 -17.5 9.5t-6.5 15.5l49 229h-543l-53 -246q-1 -4 -1 -4.5t-1.5 -2t-3.5 -1.5h-7h-233q-9 0 -18 9.5t-7 15.5l199 933q3 16 10 43t34.5 88.5t66.5 116.5q206 228 514 228q104 0 185 -22.5t130 -61t77 -80
t42 -88.5zM764 498l96 458q2 4 4.5 21t4 45t-4.5 55q-55 90 -211 90q-190 0 -272 -120q-21 -21 -37.5 -47t-22.5 -42l-6 -16l-94 -444h543z" />
    <glyph glyph-name="uni0411" unicode="&#x411;" horiz-adv-x="1234" 
d="M297 868h205q255 0 360.5 -117t61.5 -325q-17 -80 -53.5 -146.5t-81 -109.5t-100.5 -75.5t-105.5 -50t-102 -28t-85 -13.5t-58.5 -3h-467q-9 0 -18 9.5t-7 15.5l297 1400q1 5 1.5 6t3 2t8.5 1h868q9 0 18 -9.5t7 -15.5l-48 -225q-10 -8 -12 -8h-627zM170 264h205
q39 0 78 8.5t82 28t75.5 59.5t44.5 95q9 30 4.5 52.5t-11.5 39t-24 28t-33 18.5t-39 10.5t-41.5 5t-41.5 1.5h-225z" />
    <glyph glyph-name="uni0412" unicode="&#x412;" horiz-adv-x="1234" 
d="M1028 1010q-47 -217 -262 -299q56 -21 92.5 -60t49.5 -78.5t16 -80t0.5 -62t-4.5 -27.5q-17 -81 -54 -146t-80.5 -106t-100.5 -71.5t-103.5 -45t-101.5 -23t-83.5 -10t-58.5 -1.5h-467q-9 0 -18 9.5t-7 15.5l297 1400q1 5 1.5 6t3 2t8.5 1h487q19 0 50.5 -2.5t108.5 -25
t131.5 -62.5t87 -127.5t7.5 -206.5zM293 850h225q8 0 22 1.5t51 12t67 27t59 51t39 80.5t-4 79.5t-40.5 47.5t-54.5 21.5t-49 7.5h-20h-226zM168 262h205q38 0 78 8t83 26t75.5 54.5t43.5 87.5q10 46 -6 77.5t-46 44t-61 18.5t-54 5l-23 -1h-225z" />
    <glyph glyph-name="uni0413" unicode="&#x413;" horiz-adv-x="1122" 
d="M362 1176l-247 -1168q-1 -4 -1 -4.5t-1.5 -2t-3.5 -1.5h-7h-231q-9 0 -18 9.5t-7 15.5l297 1400q1 5 1.5 6t3 2t8.5 1h868q9 0 18 -9.5t7 -15.5l-48 -225q-10 -8 -12 -8h-627z" />
    <glyph glyph-name="uni0414" unicode="&#x414;" horiz-adv-x="1462" 
d="M-25 0l-43 -207q-10 -8 -12 -8h-219q-7 0 -16 9.5t-9 15.5l93 428q8 8 10 8h74q37 4 72.5 33t47.5 90l127 589q47 223 203 349.5t377 126.5h500q9 0 16.5 -9.5t5.5 -15.5l-246 -1163h134q9 0 17.5 -9.5t6.5 -15.5l-90 -428q-10 -8 -12 -8h-219q-8 0 -16.5 9t-8.5 16
l41 190h-834zM371 942l-125 -590q-10 -50 -51 -112l483 6l196 930h-221q-104 0 -181.5 -62.5t-100.5 -171.5z" />
    <glyph glyph-name="uni0415" unicode="&#x415;" horiz-adv-x="1218" 
d="M328 1010h630q9 0 17 -9.5t6 -15.5l-41 -194q-1 -2 -1 -5q0 -4 -9 -4h-651l-25 -123h631q9 0 16.5 -8t5.5 -14l-43 -201l-8 -8h-651l-35 -162h649q9 0 18 -9t7 -15l-49 -234q-1 -4 -1 -4.5t-1.5 -2t-3.5 -1.5h-7h-913q-9 0 -18 9.5t-7 15.5l297 1400q1 5 1.5 6t3 2t8.5 1
h913q9 0 18 -9.5t7 -15.5l-50 -233q-2 -8 -4 -8.5t-8 -0.5h-670z" />
    <glyph glyph-name="uni0416" unicode="&#x416;" horiz-adv-x="1781" 
d="M614 834l129 591q1 6 1.5 6.5t2.5 1.5t7 1h235q9 0 18 -9.5t7 -15.5l-127 -578l49 59.5t60 74t46 59.5l400 410h12h281q14 0 24 -12t4 -21l-633 -641l334 -740q4 -6 5.5 -8.5t2 -6t-2 -4.5t-9.5 -1h-289q-2 0 -8 2.5t-11 6t-3 5.5l-246 527l-86 -92l-100 -441
q-10 -8 -12 -8h-236q-7 0 -16 9.5t-7 15.5l99 438q-10 19 -26 44.5t-25 41.5q-54 -63 -151.5 -174.5t-177 -203.5t-147.5 -175q-4 1 -8 2.5t-6 1.5h-291q-14 0 -23.5 12t-2.5 21l659 727l-342 653q-4 6 -5.5 8.5t-2 6t2.5 5t9 1.5h283q3 0 14.5 -6t11.5 -7l215 -409z" />
    <glyph glyph-name="uni0417" unicode="&#x417;" horiz-adv-x="1009" 
d="M201 -20q-206 0 -310.5 120t-62.5 318q9 2 10 2h230q8 0 16.5 -10.5t7.5 -20.5q-14 -77 24 -114t103 -37q75 0 143 59.5t87 142.5q18 82 -19 125t-113 43h-104q-9 0 -18 9.5t-7 15.5l45 209q0 6 1 7t10 1h104q62 0 119 50.5t76 137.5q15 72 -13.5 115t-91.5 43
q-79 0 -142.5 -47.5t-78.5 -116.5q-7 -2 -8 -2h-215q-9 0 -17.5 10.5t-7.5 20.5q37 173 170.5 283t313.5 110q201 0 300.5 -121t57.5 -325q-19 -84 -71 -158.5t-138 -120.5q68 -47 104 -134t15 -183q-19 -90 -58 -163.5t-89.5 -122.5t-113 -82.5t-127 -48.5t-132.5 -15z" />
    <glyph glyph-name="uni0418" unicode="&#x418;" horiz-adv-x="1519" 
d="M-147 25l297 1400q8 9 10 9h237q9 0 18 -9.5t7 -15.5l-205 -940q574 639 864 971q2 -1 7.5 -3.5t7.5 -2.5h239q9 0 18 -9.5t7 -15.5l-297 -1401q-10 -8 -12 -8h-238q-9 0 -18 9.5t-7 15.5l209 964l-870 -987q-1 -2 -10 -2h-242q-7 0 -15.5 9.5t-6.5 15.5z" />
    <glyph glyph-name="uni0419" unicode="&#x419;" horiz-adv-x="1523" 
d="M975 1829h182q8 0 16 -10.5t7 -20.5q-35 -159 -131.5 -231t-229.5 -72q-71 0 -129 18.5t-102 58.5t-58 103t2 152q0 2 1 2h8h182q8 0 17 -10.5t8 -20.5q-10 -51 8.5 -76.5t52.5 -25.5q49 0 94.5 35.5t61.5 95.5q0 2 10 2zM-147 25l297 1400q8 9 10 9h237q9 0 18 -9.5
t7 -15.5l-205 -940q574 639 864 971q2 -1 7.5 -3.5t7.5 -2.5h239q9 0 18 -9.5t7 -15.5l-297 -1401q-10 -8 -12 -8h-238q-9 0 -18 9.5t-7 15.5l209 964l-870 -987q-1 -2 -10 -2h-242q-7 0 -15.5 9.5t-6.5 15.5z" />
    <glyph glyph-name="uni041A" unicode="&#x41a;" horiz-adv-x="1323" 
d="M557 705l424 -685q17 -20 -4 -20h-307q-3 0 -16 5.5t-13 6.5l-299 504q-5 -4 -57 -53t-80 -72l-88 -383q-1 -5 -1.5 -6t-2.5 -1.5t-7 -0.5h-235q-9 0 -18 9.5t-7 15.5l297 1400q1 5 1.5 6t3 2t8.5 1h235q7 0 16 -9.5t7 -15.5l-140 -643l678 668h13h292q14 0 26 -12t5 -21
z" />
    <glyph glyph-name="uni041B" unicode="&#x41b;" horiz-adv-x="1343" 
d="M-281 14l50 232q2 11 8 0h13q14 1 20.5 2t22 3t25.5 6l25 10t25 15.5t21.5 22t19 30t12.5 38.5l125 585q47 225 195.5 350.5t369.5 125.5h498q9 0 18 -9.5t7 -15.5l-297 -1401q-1 -4 -1 -4.5t-1.5 -2t-3.5 -1.5h-7h-239q-9 0 -18 9.5t-7 15.5l244 1151h-219
q-103 0 -174.5 -62t-94.5 -172l-125 -586q-7 -34 -14 -60.5t-25 -69.5t-39.5 -75t-59 -67.5t-83.5 -56.5t-112.5 -32t-145.5 -5q-14 0 -24.5 8.5t-8.5 15.5z" />
    <glyph glyph-name="uni041C" unicode="&#x41c;" horiz-adv-x="2093" 
d="M1210 1436h254q5 0 16.5 -6.5t10.5 -10.5l283 -1403q4 -9 3 -12.5t-12 -3.5h-252q-6 0 -16.5 6t-7.5 10l-211 1051l-262 -403q59 -281 125 -656q20 -8 -2 -8h-252q-3 0 -10 3t-12.5 7t-4.5 6l-57 297l-193 -309q-3 -4 -14 -4h-254q-12 0 -21.5 11t-5.5 20l416 645
q-36 169 -78 397l-669 -1069q-3 -4 -15 -4h-252q-12 0 -21 11t-5 20l882 1401q1 4 13 4h252q5 0 16 -6.5t10 -10.5l76 -399l258 412q2 4 12 4z" />
    <glyph glyph-name="uni041D" unicode="&#x41d;" horiz-adv-x="1394" 
d="M973 1434h233q9 0 18 -9.5t7 -15.5l-297 -1401q-10 -8 -12 -8h-234q-9 0 -17.5 9.5t-6.5 15.5l69 325h-543l-73 -342q-1 -4 -1 -4.5t-1.5 -2t-3.5 -1.5h-7h-233q-9 0 -18 9.5t-7 15.5l297 1400q1 5 1.5 6t3 2t8.5 1h233q9 0 18 -9.5t7 -15.5l-68 -326h543l72 342
q2 8 4 8.5t8 0.5zM831 817h-542l-43 -201h542z" />
    <glyph glyph-name="uni041E" unicode="&#x41e;" horiz-adv-x="1306" 
d="M438 381q-151 0 -264.5 74.5t-162 201.5t-17.5 275q46 215 231 368.5t400 153.5q151 0 264.5 -75t162 -202t17.5 -274q-22 -106 -84 -203t-146.5 -167t-189.5 -111t-211 -41zM610 1190q-119 0 -222 -84.5t-128 -202.5q-23 -110 33.5 -184t159.5 -74q120 0 222 83.5
t128 203.5q23 109 -33 183.5t-160 74.5zM864 240l-49 -232q-10 -8 -12 -8h-924q-9 0 -17.5 9.5t-6.5 15.5l49 231q10 8 12 8h924q9 0 17.5 -9t6.5 -15z" />
    <glyph glyph-name="uni041F" unicode="&#x41f;" horiz-adv-x="1404" 
d="M160 1434h1050q9 0 18 -9.5t7 -15.5l-297 -1401q-10 -8 -12 -8h-234q-9 0 -17.5 9.5t-6.5 15.5l243 1146h-542l-248 -1163q-10 -8 -12 -8h-234q-9 0 -18 9.5t-7 15.5l297 1400q1 5 1.5 6t3 2t8.5 1z" />
    <glyph glyph-name="uni0420" unicode="&#x420;" horiz-adv-x="1193" 
d="M156 1434h487q6 0 16 -1t42.5 -5t60.5 -12t70 -23.5t71 -37.5t63.5 -55t47.5 -76.5t22.5 -100.5t-10.5 -128q-18 -86 -59 -155t-92 -110.5t-108 -72t-110.5 -44t-97 -21t-69.5 -8.5h-27h-223l-123 -576q-1 -4 -1 -4.5t-1.5 -2t-3.5 -1.5h-7h-233q-9 0 -18 9.5t-7 15.5
l174 817q0 6 1 7t10 1l209 6q-29 63 -79.5 183t-62.5 149l45 237q1 5 1.5 6t3 2t8.5 1zM391 1167l127 -315q30 0 65.5 10t72 29.5t65 54t37.5 78.5q9 41 -1 70t-27 43t-48 21.5t-47.5 8t-41.5 0.5h-7h-195z" />
    <glyph glyph-name="uni0421" unicode="&#x421;" horiz-adv-x="1406" 
d="M547 266q98 0 189.5 38t160.5 104q16 0 31 -15l131 -166q16 -16 10 -30q-119 -93 -258.5 -145t-280.5 -52q-201 0 -351 98.5t-213 267t-21 365.5q40 191 168 353t309.5 256t372.5 94q155 0 276.5 -59.5t190.5 -162.5q7 0 13 -3.5t7.5 -7.5t-0.5 -7l-201 -164q-6 -3 -15 4
t-9 13q-105 120 -279 120q-126 0 -246.5 -62.5t-206 -169.5t-112.5 -233q-38 -183 59.5 -309.5t274.5 -126.5zM860 731q17 79 -23 133t-114 54q-89 0 -166 -63.5t-96 -152.5q-17 -78 23 -132t114 -54q89 0 166 63.5t96 151.5z" />
    <glyph glyph-name="uni0422" unicode="&#x422;" horiz-adv-x="917" 
d="M872 1397l-45 -213q-1 -6 -1.5 -6h-10.5h-283l-247 -1170q-10 -8 -11 -8h-231q-9 0 -17 9.5t-6 15.5l244 1153h-262q-9 0 -18 8t-7 14l46 213q10 8 12 8h813q9 0 17.5 -9t6.5 -15z" />
    <glyph glyph-name="uni0423" unicode="&#x423;" horiz-adv-x="1040" 
d="M8 1434h268q6 0 15 -7.5t8 -11.5l82 -606l367 621q1 4 10 4h250q11 0 19.5 -11t4.5 -20l-842 -1399q-3 -4 -12 -4h-241q-11 0 -20 11t-5 20l256 422l-168 964q-2 14 -2 15q2 2 10 2z" />
    <glyph glyph-name="uni0424" unicode="&#x424;" horiz-adv-x="1527" 
d="M569 -20h-235q-9 0 -18 9t-7 15l43 158q-90 2 -165.5 25t-127.5 62t-90 92t-54.5 114.5t-20 129t13.5 136.5q22 102 76 196.5t135.5 171.5t197 124.5t248.5 50.5l45 161q1 5 1.5 6t3 2t8.5 1h235q7 0 16 -9.5t7 -15.5l-41 -145q91 -2 167.5 -25.5t129.5 -63.5t92 -94
t55.5 -117t20.5 -131.5t-13 -138.5q-21 -102 -74.5 -194t-135 -167.5t-199.5 -121.5t-256 -49l-47 -174q-1 -5 -1.5 -6t-2.5 -1.5t-7 -0.5zM383 403l152 617q-142 -6 -240 -97.5t-123 -213.5q-27 -119 27 -209.5t184 -96.5zM809 1020l-152 -617q134 6 236.5 105t130.5 227
q7 42 7 82t-15 76t-40 63.5t-68 44.5t-99 19z" />
    <glyph glyph-name="uni0425" unicode="&#x425;" horiz-adv-x="1380" 
d="M-279 33l652 690q-190 375 -336 696q-16 6 -15 11q2 4 9 4h286q2 0 8.5 -2.5t12 -5.5t4.5 -5l233 -471l447 484q1 2 2.5 2t4 -1t3.5 -1h287q14 0 24.5 -12t4.5 -21l-656 -690q151 -293 340 -697q18 -8 12 -12q-3 -2 -10 -2h-286q-2 0 -8.5 2t-12 5t-4.5 5l-231 471
l-449 -483q-1 -2 -2.5 -2t-4 1t-3.5 1h-287q-12 0 -22 12t-3 21z" />
    <glyph glyph-name="uni0426" unicode="&#x426;" horiz-adv-x="1433" 
d="M815 0h-942q-7 0 -16 9.5t-7 15.5l297 1400q1 6 1.5 6.5t2.5 1.5t7 1h235q9 0 18 -9.5t7 -15.5l-244 -1147h543l248 1163q1 2 1 5q0 4 9 4h235q9 0 17 -9.5t6 -15.5l-246 -1163h109q9 0 17.5 -9.5t6.5 -15.5l-92 -432q-10 -8 -12 -8h-217q-9 0 -18 9t-7 15z" />
    <glyph glyph-name="uni0427" unicode="&#x427;" horiz-adv-x="1298" 
d="M823 0h-233q-9 0 -18 9.5t-7 15.5l115 507q-122 -61 -268 -61q-226 0 -345.5 137.5t-74.5 354.5l98 462q2 8 4 8.5t8 0.5h236q7 0 15.5 -9.5t6.5 -15.5l-98 -461q-9 -104 47.5 -159.5t149.5 -55.5q67 0 138.5 24t127.5 64l137 604q2 8 4 8.5t8 0.5h234q9 0 18 -9.5
t7 -15.5l-297 -1401q-1 -4 -1 -4.5t-1.5 -2t-3.5 -1.5h-7z" />
    <glyph glyph-name="uni0428" unicode="&#x428;" horiz-adv-x="2068" 
d="M1581 0h-1704q-9 0 -17.5 9.5t-6.5 15.5l297 1400q2 8 4 8.5t8 0.5h233q9 0 18 -9.5t7 -15.5l-244 -1147h463l248 1163q2 8 4 8.5t8 0.5h229q9 0 18 -9.5t7 -15.5l-244 -1147h463l248 1163q8 9 10 9h236q9 0 17.5 -9.5t6.5 -15.5l-297 -1401q-10 -8 -12 -8z" />
    <glyph glyph-name="uni0429" unicode="&#x429;" horiz-adv-x="2101" 
d="M1470 0h-1593q-9 0 -17.5 9.5t-6.5 15.5l297 1400q2 8 4 8.5t8 0.5h235q7 0 16 -9.5t7 -15.5l-244 -1147h463l248 1163q2 8 4 8.5t8 0.5h229q9 0 18 -9.5t7 -15.5l-244 -1147h463l248 1163q2 8 4 8.5t8 0.5h234q9 0 17.5 -9.5t6.5 -15.5l-245 -1163h108q9 0 17 -9.5
t6 -15.5l-93 -432q-1 -2 -1 -5t-9 -3h-219q-9 0 -17.5 9t-6.5 15z" />
    <glyph glyph-name="uni042A" unicode="&#x42a;" horiz-adv-x="1277" 
d="M438 0h-467q-9 0 -17.5 9.5t-6.5 15.5l248 1167h-215q-8 0 -17.5 9t-9.5 16l45 208q2 8 4 8.5t8 0.5h479q9 0 18 -9.5t7 -15.5l-117 -557h203q33 0 72.5 -3.5t117.5 -28t131.5 -66.5t84 -131.5t4.5 -210.5q-18 -86 -59.5 -155t-87.5 -111t-108 -72.5t-107 -44t-100.5 -21
t-72.5 -8t-37 -0.5zM272 266h203q22 0 51 4.5t76.5 19.5t85 54t49.5 96q9 43 -1.5 73.5t-29 44.5t-50 22t-48.5 9t-42 1h-3h-223z" />
    <glyph glyph-name="uni042B" unicode="&#x42b;" horiz-adv-x="1736" 
d="M342 0h-469q-9 0 -18 9.5t-7 15.5l297 1400q1 5 1.5 6t3 2t8.5 1h233q9 0 18 -9.5t7 -15.5l-117 -557h205q32 0 71 -3.5t117 -28t131 -66.5t83.5 -131.5t4.5 -210.5q-14 -67 -42.5 -124.5t-62 -97t-78 -71.5t-82.5 -51.5t-85.5 -33.5t-78.5 -20.5t-68.5 -10t-47.5 -3.5
h-24zM1563 1409l-297 -1401q-1 -5 -1.5 -6t-2.5 -1.5t-7 -0.5h-235q-9 0 -18 9.5t-7 15.5l297 1400q1 5 1.5 6t3 2t8.5 1h235q7 0 16 -9.5t7 -15.5zM174 266h205q21 0 49.5 4.5t76 19.5t85 54t49.5 96q9 43 -1.5 73.5t-28.5 44.5t-49.5 22t-48.5 9t-41 1h-3h-225z" />
    <glyph glyph-name="uni042C" unicode="&#x42c;" horiz-adv-x="1187" 
d="M340 0h-469q-9 0 -18 9.5t-7 15.5l297 1400q1 5 1.5 6t3 2t8.5 1h233q9 0 18 -9.5t7 -15.5l-117 -557h205q32 0 71 -3.5t117 -28t131 -66.5t83.5 -131.5t4.5 -210.5q-14 -67 -42.5 -124.5t-62 -97t-78 -71.5t-82.5 -51.5t-85.5 -33.5t-78.5 -20.5t-68.5 -10t-47.5 -3.5
h-24zM172 266h205q21 0 49.5 4.5t76 19.5t85 54t49.5 96q9 43 -1.5 73.5t-28.5 44.5t-49.5 22t-48.5 9t-41 1h-3h-225z" />
    <glyph glyph-name="uni042D" unicode="&#x42d;" horiz-adv-x="1421" 
d="M336 248q158 0 302.5 100.5t215.5 249.5l-549 -8q-9 0 -17.5 9t-6.5 15l49 230q10 8 12 8l578 8q-6 155 -100.5 241.5t-244.5 86.5q-96 0 -187.5 -39t-162.5 -105q-19 0 -30 17l-132 162q-17 17 -8 32q117 95 256.5 147t280.5 52q153 0 277.5 -54t203 -153t108.5 -237.5
t-7 -307.5q-43 -203 -172.5 -369t-309.5 -258.5t-373 -92.5q-155 0 -276 58.5t-190 160.5q-10 0 -17 7.5t-4 12.5l201 164q7 4 16.5 -2t7.5 -14q111 -121 279 -121z" />
    <glyph glyph-name="uni042E" unicode="&#x42e;" horiz-adv-x="2060" 
d="M1257 1452q99 0 183 -22t146.5 -61.5t110 -94.5t76.5 -120.5t43 -139.5t11.5 -153t-19.5 -159q-29 -138 -98 -264.5t-171 -229t-245.5 -163.5t-306.5 -61q-121 0 -218 33.5t-161 90.5t-105.5 135t-58 165.5t-12.5 183.5l-184 -8l-123 -576q-10 -8 -12 -8h-234
q-9 0 -17.5 9.5t-6.5 15.5l297 1400q2 8 4 8.5t8 0.5h233q9 0 18 -9.5t7 -15.5l-117 -557l178 8q47 122 118 226t166 187.5t221.5 131t268.5 47.5zM999 242q103 0 196 42t160.5 111.5t114.5 156t66 179.5q13 70 14 136t-20 125t-56 103.5t-94.5 70.5t-136.5 26
q-102 0 -194 -42t-159 -112t-113.5 -156.5t-65.5 -179.5q-13 -70 -14 -136t19.5 -125t55 -103t93 -70t134.5 -26z" />
    <glyph glyph-name="uni042F" unicode="&#x42f;" horiz-adv-x="1265" 
d="M55 0h-274q-11 0 -22 11t-5 20l512 585q-35 12 -65 27.5t-62 40t-53.5 56t-38.5 74t-17 94t11 116.5q18 85 59.5 154t92.5 110.5t108 72t111 44t97.5 21t70.5 8.5h26h467q9 0 18 -9.5t7 -15.5l-43 -227l-283 -332h176q9 0 19 -9.5t8 -15.5l-174 -817q-1 -4 -1 -4.5
t-1.5 -2t-3.5 -1.5h-7h-233q-9 0 -18 9.5t-7 15.5l119 559h-96l-485 -582q-1 -2 -13 -2zM715 1167h-166q-8 0 -22 -1.5t-51 -12t-67 -27t-59 -51t-39 -80.5q-28 -123 127 -145z" />
    <glyph glyph-name="uni0430" unicode="&#x430;" 
d="M63 162l-86 -158q-3 -4 -14 -4h-252q-12 0 -21 11t-5 20l866 1439q6 10 19.5 3.5t13.5 -17.5l254 -1440q4 -9 3.5 -12.5t-10.5 -3.5h-253q-6 0 -16 6t-7 10l-25 146h-467zM492 403l-48 431l-241 -431h289z" />
    <glyph glyph-name="uni0431" unicode="&#x431;" horiz-adv-x="1234" 
d="M297 862h201q253 0 357 -116.5t60 -323.5q-17 -80 -53.5 -145.5t-80 -108.5t-99 -75.5t-104.5 -49.5t-101 -27.5t-84 -13t-59 -2.5h-463q-7 0 -16 9.5t-7 15.5l297 1400q1 6 1.5 6.5t2.5 1.5t7 1h862q9 0 17.5 -9.5t6.5 -15.5l-47 -223q-10 -8 -12 -8h-621zM168 262h201
q39 0 78.5 8.5t83 28t76 59t44.5 93.5q3 26 4 46.5t-7.5 36.5t-18 27.5t-26 19.5t-31.5 13t-35 7.5t-37 3.5t-37 1h-221z" />
    <glyph glyph-name="uni0432" unicode="&#x432;" horiz-adv-x="1234" 
d="M1028 1010q-47 -217 -262 -299q56 -21 92.5 -60t49.5 -78.5t16 -80t0.5 -62t-4.5 -27.5q-17 -81 -54 -146t-80.5 -106t-100.5 -71.5t-103.5 -45t-101.5 -23t-83.5 -10t-58.5 -1.5h-467q-9 0 -18 9.5t-7 15.5l297 1400q1 5 1.5 6t3 2t8.5 1h487q19 0 50.5 -2.5t108.5 -25
t131.5 -62.5t87 -127.5t7.5 -206.5zM293 850h225q8 0 22 1.5t51 12t67 27t59 51t39 80.5t-4 79.5t-40.5 47.5t-54.5 21.5t-49 7.5h-20h-226zM168 262h205q38 0 78 8t83 26t75.5 54.5t43.5 87.5q10 46 -6 77.5t-46 44t-61 18.5t-54 5l-23 -1h-225z" />
    <glyph glyph-name="uni0433" unicode="&#x433;" horiz-adv-x="1122" 
d="M360 1178l-247 -1170q-1 -5 -1.5 -6t-2.5 -1.5t-7 -0.5h-231q-9 0 -18 9.5t-7 15.5l297 1400q1 5 1.5 6t3 2t8.5 1h862q7 0 15.5 -9.5t6.5 -15.5l-47 -223q-8 -8 -10 -8h-623z" />
    <glyph glyph-name="uni0434" unicode="&#x434;" horiz-adv-x="1263" 
d="M-55 0l-43 -205q-1 -4 -1 -4.5t-1.5 -2t-3.5 -1.5h-7h-213q-9 0 -17.5 9.5t-6.5 15.5l88 419q2 8 4 8.5t8 0.5l127 6q573 963 725 1224q8 5 21.5 -3.5t13.5 -18.5l215 -1208h115q8 0 16 -9t8 -16l-90 -420q-1 -2 -1 -5t-9 -3h-213q-9 0 -18 9.5t-7 15.5l39 188h-749z
M168 240l412 6q-68 447 -84 563z" />
    <glyph glyph-name="uni0435" unicode="&#x435;" horiz-adv-x="1204" 
d="M293 842h549q9 0 16.5 -9.5t5.5 -15.5l-47 -223q-1 -2 -1 -5t-9 -3h-569l-70 -328h666q9 0 17.5 -9.5t6.5 -15.5l-47 -225q-10 -8 -12 -8h-928q-7 0 -16 9.5t-7 15.5l297 1400q1 6 1.5 6.5t2.5 1.5t7 1h927q9 0 18 -9.5t7 -15.5l-47 -227q-10 -8 -12 -8h-687z" />
    <glyph glyph-name="uni0436" unicode="&#x436;" horiz-adv-x="1792" 
d="M608 825l131 600q1 5 1.5 6t3 2t8.5 1h231q9 0 18 -9.5t7 -15.5l-129 -586q27 33 81.5 103.5t77.5 99.5l394 408h12h280q13 0 23 -12t4 -21l-631 -649l332 -732q11 -17 5 -19q-2 -1 -7 -1h-289q-2 0 -8 2.5t-11 6t-3 5.5l-242 523q-12 -12 -40 -44t-48 -49l-98 -436
q-1 -4 -1 -4.5t-1.5 -2t-3.5 -1.5h-7h-231q-9 0 -18 9.5t-7 15.5l99 434q-9 19 -25 44.5t-24 41.5q-359 -412 -472 -549l-16 4h-287q-14 0 -23.5 12t-2.5 21l653 719l-336 661q-4 6 -5.5 8.5t-2 6t2.5 5t9 1.5h279q3 0 15.5 -6t12.5 -7l211 -407z" />
    <glyph glyph-name="uni0437" unicode="&#x437;" horiz-adv-x="1024" 
d="M207 -20q-207 0 -313 121t-64 317v1l10 -1h232q8 0 16.5 -9.5t7.5 -19.5q-14 -77 24.5 -114t104.5 -37q77 0 146 59.5t88 142.5q18 82 -19.5 125t-115.5 43h-107q-9 0 -17.5 8.5t-6.5 14.5l43 209q10 8 12 8h106q62 0 119 50.5t76 137.5q15 74 -13 115t-92 41
q-81 0 -144.5 -46t-78.5 -114q-9 -2 -10 -2h-215q-9 0 -17.5 10.5t-7.5 20.5q37 171 172 280t316 109q202 0 303 -120.5t59 -323.5q-19 -84 -71 -157.5t-140 -119.5q69 -47 105.5 -134.5t15.5 -182.5q-19 -91 -58.5 -164.5t-90.5 -122.5t-113.5 -82t-127.5 -48t-134 -15z
" />
    <glyph glyph-name="uni0438" unicode="&#x438;" horiz-adv-x="1523" 
d="M-145 25l297 1400q9 9 10 9h235q7 0 16 -9.5t7 -15.5l-207 -944q265 291 862 975q2 -1 7.5 -3.5t7.5 -2.5h237q9 0 18 -9.5t7 -15.5l-297 -1401q-1 -4 -1 -4.5t-1.5 -2t-3.5 -1.5h-7h-235q-9 0 -18 9.5t-7 15.5l209 968l-866 -991q-1 -2 -8 -2h-240q-9 0 -16.5 9.5
t-5.5 15.5z" />
    <glyph glyph-name="uni0439" unicode="&#x439;" horiz-adv-x="1529" 
d="M973 1825h182q8 0 16 -10.5t5 -20.5q-17 -82 -52.5 -142t-84.5 -94.5t-104 -50.5t-118 -16q-71 0 -129 18.5t-102 58.5t-59 103t1 152q2 2 11 2h182q8 0 16.5 -10.5t5.5 -20.5q-8 -51 11 -76.5t53 -25.5q49 0 94.5 35.5t59.5 95.5q2 2 12 2zM-145 25l297 1400q9 9 10 9
h235q7 0 16 -9.5t7 -15.5l-207 -944q265 291 862 975q2 -1 7.5 -3.5t7.5 -2.5h237q9 0 18 -9.5t7 -15.5l-297 -1401q-1 -4 -1 -4.5t-1.5 -2t-3.5 -1.5h-7h-235q-9 0 -18 9.5t-7 15.5l209 968l-866 -991q-1 -2 -8 -2h-240q-9 0 -16.5 9.5t-5.5 15.5z" />
    <glyph glyph-name="uni043A" unicode="&#x43a;" horiz-adv-x="1323" 
d="M557 705l422 -685q17 -20 -4 -20h-305q-3 0 -16 5.5t-13 6.5l-299 504q-12 -11 -60 -56.5t-75 -68.5l-88 -383q-1 -4 -1 -4.5t-1.5 -2t-3.5 -1.5h-7h-233q-9 0 -18 9.5t-7 15.5l297 1400q1 5 1.5 6t3 2t8.5 1h233q9 0 18 -9.5t7 -15.5l-144 -655l680 680h13h290
q14 0 26 -12t5 -21z" />
    <glyph glyph-name="uni043B" unicode="&#x43b;" 
d="M436 805l-459 -801q-3 -4 -14 -4h-250q-11 0 -19.5 11t-4.5 20l858 1429q6 10 18.5 3.5t12.5 -17.5l253 -1430q4 -9 3.5 -12.5t-11.5 -3.5h-250q-6 0 -14.5 7t-7.5 11z" />
    <glyph glyph-name="uni043C" unicode="&#x43c;" horiz-adv-x="1875" 
d="M1690 1409l-297 -1401q-1 -4 -1 -4.5t-1.5 -2t-3.5 -1.5h-7h-231q-9 0 -18 9.5t-7 15.5l174 798l-524 -764q-2 -4 -12 -4h-219q-3 0 -9.5 3.5t-11 7.5t-2.5 6l-221 768l-180 -832q-1 -4 -1 -4.5t-1.5 -2t-3.5 -1.5h-7h-231q-9 0 -18 9.5t-7 15.5l297 1400q1 5 1.5 6t3 2
t8.5 1h235q3 0 10 -3.5t12 -7.5t3 -6l280 -1048l717 1061q2 4 13 4h235q9 0 18 -9.5t7 -15.5z" />
    <glyph glyph-name="uni043D" unicode="&#x43d;" horiz-adv-x="1404" 
d="M977 1434h233q9 0 18 -9.5t7 -15.5l-297 -1401q-10 -8 -12 -8h-234q-9 0 -17.5 9.5t-6.5 15.5l118 559h-542l-123 -576q-10 -8 -12 -8h-234q-9 0 -18 9.5t-7 15.5l297 1400q1 5 1.5 6t3 2t8.5 1h233q9 0 18 -9.5t7 -15.5l-117 -557h543l121 573q2 8 4 8.5t8 0.5z" />
    <glyph glyph-name="uni043E" unicode="&#x43e;" horiz-adv-x="1632" 
d="M788 1454q100 0 186 -22t150 -61.5t113.5 -94t79.5 -120t45 -139.5t13 -153t-19 -159q-29 -138 -100 -265.5t-175.5 -230.5t-251.5 -165t-313 -62q-102 0 -189 22t-151 61.5t-113.5 94.5t-79 121t-44.5 140t-13 152.5t19 159.5q30 138 100 265t174.5 230t252 164.5
t316.5 61.5zM530 240q107 0 203.5 42t166.5 111.5t118 156t67 179.5q12 59 12.5 115.5t-10.5 108.5t-36.5 96t-63 76.5t-92 50.5t-121.5 18q-108 0 -205 -42.5t-167 -112.5t-118 -157.5t-67 -181.5q-12 -70 -13 -136.5t21.5 -125.5t59.5 -103t100.5 -69.5t144.5 -25.5z" />
    <glyph glyph-name="uni043F" unicode="&#x43f;" horiz-adv-x="1404" 
d="M162 1434h1042q7 0 16 -9.5t7 -15.5l-297 -1401q-8 -8 -10 -8h-234q-9 0 -17.5 9.5t-6.5 15.5l243 1146h-536l-248 -1163q-10 -8 -12 -8h-232q-9 0 -17.5 9.5t-6.5 15.5l297 1400q2 8 4 8.5t8 0.5z" />
    <glyph glyph-name="uni0440" unicode="&#x440;" horiz-adv-x="1187" 
d="M156 1434h465q17 0 37.5 -1.5t62 -8t76.5 -18.5t80 -34t73 -54.5t55.5 -79t27.5 -108.5t-11 -143q-18 -85 -58 -153.5t-85 -110.5t-105 -72.5t-105.5 -44.5t-99 -22t-72 -8.5t-38.5 -0.5h-223l-121 -571q-10 -8 -11 -8h-233q-8 0 -17 9t-8 15l299 1405q1 6 1.5 6.5
t2.5 1.5t7 1zM291 840h203q17 0 38.5 2.5t59 13t68.5 27.5t58.5 52t37.5 81q9 43 -3 74.5t-32 46t-52.5 22.5t-48 9t-34.5 1h-224z" />
    <glyph glyph-name="uni0441" unicode="&#x441;" horiz-adv-x="1421" 
d="M545 244q96 0 186.5 37.5t161.5 103.5q10 0 18.5 -5.5t10.5 -10.5l131 -162q5 -5 8 -15.5t0 -17.5q-117 -92 -255.5 -143t-277.5 -51q-151 0 -274 52.5t-202.5 150t-109.5 235t7 307.5q45 209 168 375t302.5 260t381.5 94q154 0 274.5 -57.5t190.5 -159.5q10 0 16.5 -7.5
t1.5 -12.5l-197 -160q-7 -4 -16.5 2t-7.5 14q-109 119 -277 119q-104 0 -200 -38.5t-168.5 -105.5t-124.5 -158t-74 -194q-43 -207 51.5 -329.5t274.5 -122.5z" />
    <glyph glyph-name="uni0442" unicode="&#x442;" horiz-adv-x="917" 
d="M872 1397l-45 -213q-1 -6 -1.5 -6h-10.5h-283l-247 -1170q-10 -8 -11 -8h-231q-9 0 -17 9.5t-6 15.5l244 1153h-262q-9 0 -18 8t-7 14l46 213q10 8 12 8h813q9 0 17.5 -9t6.5 -15z" />
    <glyph glyph-name="uni0443" unicode="&#x443;" horiz-adv-x="1046" 
d="M10 1434h266q5 0 13.5 -7.5t7.5 -11.5l80 -614l364 629q1 4 13 4h245q12 0 21.5 -11t5.5 -20l-838 -1399q-3 -4 -12 -4h-239q-10 0 -19.5 11t-5.5 20l254 418l-164 968q-2 14 -2 15q2 2 10 2z" />
    <glyph glyph-name="uni0444" unicode="&#x444;" horiz-adv-x="1527" 
d="M563 -20h-231q-9 0 -18 9t-7 15l43 156q-90 2 -165 25t-126.5 61.5t-89.5 91t-54 113.5t-20 128.5t13 135.5q17 81 54.5 158t96 147.5t132 124t170 85.5t202.5 34l45 161q1 5 1.5 6t3 2t8.5 1h231q9 0 18 -9.5t7 -15.5l-41 -145q90 -1 165.5 -25.5t127.5 -65.5t90.5 -96
t54.5 -118.5t20.5 -132.5t-12.5 -138q-22 -101 -75 -192.5t-133.5 -166.5t-197.5 -120.5t-253 -48.5l-48 -172q-10 -8 -12 -8zM381 399l151 623q-140 -6 -237.5 -100.5t-124.5 -219.5q-25 -119 28 -207.5t183 -95.5zM805 1022l-152 -623q133 7 234 105t129 225
q14 52 6 103.5t-29.5 92.5t-70.5 67.5t-117 29.5z" />
    <glyph glyph-name="uni0445" unicode="&#x445;" horiz-adv-x="1380" 
d="M-276 33l647 684q-134 262 -332 702q-16 6 -15 11q3 4 11 4h282q2 0 8.5 -2.5t12 -5.5t4.5 -5l229 -479l445 492q1 2 2.5 2t4 -1t3.5 -1h285q12 0 22 -12t4 -21l-651 -696q118 -228 340 -691q4 -2 6.5 -4.5t3.5 -4.5t-1.5 -3.5t-8.5 -1.5h-285q-2 0 -8 2t-11.5 5t-4.5 5
l-228 467l-446 -479q-1 -2 -2.5 -2t-4 1t-3.5 1h-283q-14 0 -23.5 12t-2.5 21z" />
    <glyph glyph-name="uni0446" unicode="&#x446;" horiz-adv-x="1433" 
d="M809 0h-934q-7 0 -15.5 9.5t-6.5 15.5l297 1400q8 9 10 9h233q9 0 17 -9.5t6 -15.5l-244 -1149h539l247 1165q1 5 1.5 6t3 2t8.5 1h231q9 0 18 -9.5t7 -15.5l-246 -1165h106q9 0 18 -9.5t7 -15.5l-90 -428q-10 -8 -12 -8h-217q-8 0 -17 9t-8 15z" />
    <glyph glyph-name="uni0447" unicode="&#x447;" horiz-adv-x="1298" 
d="M817 0h-233q-9 0 -18 9.5t-7 15.5l115 503q-119 -61 -264 -61q-225 0 -344 136t-74 351l100 471q2 8 4 8.5t8 0.5h232q9 0 17.5 -9.5t6.5 -15.5l-100 -469q-9 -104 47.5 -158.5t149.5 -54.5q134 0 262 86l137 612q2 8 4 8.5t8 0.5h234q7 0 15.5 -9.5t6.5 -15.5
l-297 -1401q-8 -8 -10 -8z" />
    <glyph glyph-name="uni0448" unicode="&#x448;" horiz-adv-x="2070" 
d="M1569 0h-1690q-7 0 -15.5 9.5t-6.5 15.5l297 1400q8 9 10 9h233q9 0 17 -9.5t6 -15.5l-244 -1149h459l248 1165q2 8 4 8.5t8 0.5h227q9 0 18 -9.5t7 -15.5l-244 -1149h459l248 1165q2 8 4 8.5t8 0.5h231q9 0 18 -9.5t7 -15.5l-297 -1401q-10 -8 -12 -8z" />
    <glyph glyph-name="uni0449" unicode="&#x449;" horiz-adv-x="2101" 
d="M1460 0h-1579q-9 0 -17.5 9.5t-6.5 15.5l297 1400q2 8 4 8.5t8 0.5h231q9 0 18 -9.5t7 -15.5l-244 -1149h459l248 1165q8 9 10 9h229q9 0 18 -9.5t7 -15.5l-244 -1149h457l248 1165q2 8 4 8.5t8 0.5h233q7 0 16 -9.5t7 -15.5l-246 -1165h107q9 0 17.5 -9.5t6.5 -15.5
l-90 -428q-10 -8 -12 -8h-215q-9 0 -19 9t-8 15z" />
    <glyph glyph-name="uni044A" unicode="&#x44a;" horiz-adv-x="1277" 
d="M434 0h-463q-9 0 -17.5 9.5t-6.5 15.5l248 1169h-213q-7 0 -16 8.5t-9 14.5l45 208q8 9 10 9h475q9 0 18 -9.5t7 -15.5l-119 -563h201q14 0 30 -1t51.5 -5t65.5 -12t72.5 -23t71 -37.5t62 -55t45.5 -76t20.5 -100.5t-11.5 -128q-14 -67 -42.5 -123.5t-61.5 -96t-77 -71
t-82 -51t-85.5 -33.5t-78 -20t-68 -9.5t-47.5 -3.5h-25zM270 264h201q16 0 36 2t57.5 12t68 26.5t58.5 51t38 80.5q9 43 -1 73.5t-28 44.5t-49 22t-47.5 9t-41.5 1h-3h-221z" />
    <glyph glyph-name="uni044B" unicode="&#x44b;" horiz-adv-x="1736" 
d="M340 0h-465q-9 0 -18 9.5t-7 15.5l297 1400q1 5 1.5 6t3 2t8.5 1h231q9 0 18 -9.5t7 -15.5l-119 -563h203q14 0 29.5 -1t51 -5t65.5 -12t72 -23t70.5 -37.5t62 -55t45.5 -76t20.5 -100.5t-11.5 -128q-14 -67 -42.5 -123.5t-61.5 -96t-77 -71t-82 -51t-85.5 -33.5
t-77.5 -20t-67.5 -9.5t-47.5 -3.5h-24zM1552 1409l-297 -1401q-1 -2 -1 -5t-9 -3h-233q-7 0 -16 9.5t-7 15.5l297 1400q8 9 10 9h234q9 0 16.5 -9.5t5.5 -15.5zM174 264h203q15 0 35 2t57.5 12t68.5 26.5t59 51t38 80.5q9 43 -1.5 73.5t-28 44.5t-49 22t-48 9t-40.5 1h-3
h-223z" />
    <glyph glyph-name="uni044C" unicode="&#x44c;" horiz-adv-x="1187" 
d="M336 0h-465q-7 0 -16 9.5t-7 15.5l297 1400q1 6 1.5 6.5t2.5 1.5t7 1h233q9 0 17 -9.5t6 -15.5l-119 -563h203q12 0 25.5 -0.5t43.5 -3.5t56.5 -9t64 -17t65.5 -27.5t61.5 -40.5t51.5 -56t36 -73.5t15 -94t-12 -116.5q-14 -67 -42.5 -123.5t-61.5 -96t-77 -71t-82 -51
t-85.5 -33.5t-78 -20t-68 -9.5t-47.5 -3.5h-25zM170 264h203q16 0 36 2t57.5 12t68 26.5t58.5 51t38 80.5q9 43 -1.5 73.5t-28 44.5t-49 22t-48 9t-40.5 1h-3h-223z" />
    <glyph glyph-name="uni044D" unicode="&#x44d;" horiz-adv-x="1421" 
d="M334 246q156 0 300 99.5t216 248.5l-547 -8q-9 0 -16.5 9t-5.5 15l47 226q0 2 1 5q0 3 9 3l575 8q-6 156 -99.5 246t-240.5 90q-95 0 -186 -38t-162 -103q-10 0 -18 5.5t-10 10.5l-131 160q-18 18 -9 32q116 93 254.5 144t278.5 51q151 0 274.5 -55t200.5 -154.5
t106 -238.5t-8 -306q-42 -202 -170 -366.5t-306.5 -256t-369.5 -91.5q-153 0 -273 58t-189 159q-7 0 -13 4t-8 8.5t0 7.5l199 162q6 4 15 -2t9 -14q106 -119 277 -119z" />
    <glyph glyph-name="uni044E" unicode="&#x44e;" horiz-adv-x="2033" 
d="M1235 1454q98 0 181 -22.5t145 -63t109 -96.5t75 -122.5t41.5 -141.5t11 -153.5t-19.5 -158.5q-23 -108 -70.5 -210.5t-120.5 -194t-164.5 -159.5t-209.5 -108t-248 -40q-119 0 -215 33t-159 89.5t-104 134.5t-57 164.5t-12 182.5l-172 -8l-121 -572q-10 -8 -12 -8h-232
q-9 0 -17.5 9.5t-6.5 15.5l297 1402q2 8 4 8.5t8 0.5h231q9 0 19 -9.5t8 -15.5l-121 -565l168 8q36 96 86.5 182t121 163.5t153 133t186.5 88.5t217 33zM977 240q102 0 194 41.5t158.5 110.5t112.5 155t65 178q12 69 14 136t-18 128t-54 107t-93 73t-135 27
q-101 0 -192 -43.5t-157 -116t-112 -160t-66 -180.5q-12 -69 -13.5 -134.5t18.5 -124t53.5 -102.5t91.5 -69.5t133 -25.5z" />
    <glyph glyph-name="uni044F" unicode="&#x44f;" horiz-adv-x="1214" 
d="M444 580l-383 -576q-4 -4 -14 -4h-256q-12 0 -22 11t-7 20l422 594q-37 17 -68.5 38.5t-62.5 55.5t-47 75.5t-23 97.5t9 122q18 85 55 154t78.5 111.5t96.5 74t99 46.5t98 23.5t80 9.5t58 1h461q9 0 17.5 -9.5t6.5 -15.5l-297 -1401q-10 -8 -12 -8h-231q-9 0 -18 9.5
t-7 15.5l117 555h-150zM721 1176h-199q-25 0 -58.5 -7.5t-77.5 -26t-80 -59.5t-48 -98q-8 -32 -4 -57t11 -43.5t23 -31t31.5 -20.5t36 -12.5t37 -6t33.5 -1.5h219z" />
    <glyph glyph-name="uni0451" unicode="&#x451;" horiz-adv-x="1204" 
d="M635 1649q-10 -52 -57.5 -88.5t-102.5 -36.5q-67 0 -108 45.5t-29 107.5q12 52 57.5 88.5t98.5 36.5q69 0 111.5 -46t29.5 -107zM1053 1649q-10 -52 -57 -88.5t-101 -36.5q-69 0 -110 45.5t-29 107.5q12 53 57.5 89t99.5 36q69 0 111 -46t29 -107zM293 842h549
q9 0 16.5 -9.5t5.5 -15.5l-47 -223q-1 -2 -1 -5t-9 -3h-569l-70 -328h666q9 0 17.5 -9.5t6.5 -15.5l-47 -225q-10 -8 -12 -8h-928q-7 0 -16 9.5t-7 15.5l297 1400q1 6 1.5 6.5t2.5 1.5t7 1h927q9 0 18 -9.5t7 -15.5l-47 -227q-10 -8 -12 -8h-687z" />
    <glyph glyph-name="endash" unicode="&#x2013;" horiz-adv-x="1042" 
d="M815 801l-47 -223q-7 -7 -10 -7h-846q-9 0 -19 9t-8 14l47 223q1 4 1 4.5t1.5 2t3.5 1.5h7h846q9 0 17.5 -9t6.5 -15z" />
    <glyph glyph-name="emdash" unicode="&#x2014;" horiz-adv-x="1185" 
d="M936 801l-47 -223q-7 -7 -10 -7h-967q-9 0 -19 9t-8 14l47 223q1 4 1 4.5t1.5 2t3.5 1.5h7h966q9 0 18 -9t7 -15z" />
    <glyph glyph-name="quotesinglbase" unicode="&#x201a;" horiz-adv-x="411" 
d="M-84 264q90 0 125 -48.5t20 -123.5q-18 -76 -75 -161t-121 -126q-16 -3 -29.5 8.5t-11.5 22.5l43 148q-53 6 -82.5 51.5t-17.5 103.5q10 52 54 88.5t95 36.5z" />
    <glyph glyph-name="quotedblbase" unicode="&#x201e;" horiz-adv-x="804" 
d="M-84 264q90 0 125 -48.5t20 -123.5q-18 -76 -75 -161t-121 -126q-16 -3 -29.5 8.5t-11.5 22.5l43 148q-53 6 -82.5 51.5t-17.5 103.5q10 52 54 88.5t95 36.5zM291 264q90 0 125 -48.5t20 -123.5q-18 -76 -75 -161t-121 -126q-16 -3 -29.5 8.5t-11.5 22.5l43 148
q-53 6 -83 51.5t-18 103.5q10 52 54.5 88.5t95.5 36.5z" />
    <glyph glyph-name="dagger" unicode="&#x2020;" horiz-adv-x="1112" 
d="M612 1083h322q9 0 17.5 -9t6.5 -15l-49 -234q-10 -8 -12 -8h-342l-172 -809q-1 -2 -1 -5t-9 -3h-236q-9 0 -17.5 9.5t-6.5 15.5l168 792h-320q-9 0 -17.5 9.5t-6.5 15.5l49 233q10 8 12 8h340l72 342q2 8 4 8.5t8 0.5h235q9 0 17 -9.5t6 -15.5z" />
    <glyph glyph-name="daggerdbl" unicode="&#x2021;" horiz-adv-x="1099" 
d="M608 1083h322q9 0 17.5 -9t6.5 -15l-49 -234q-10 -8 -12 -8h-342l-37 -174h322q9 0 17.5 -9.5t6.5 -15.5l-49 -233q-10 -8 -12 -8h-342l-78 -369q-1 -2 -1 -5t-9 -3h-236q-9 0 -16.5 9.5t-5.5 15.5l73 352h-321q-9 0 -18 9t-7 15l49 234q1 4 1 4.5t1.5 2t3.5 1.5h7h342
l37 174h-322q-9 0 -18 9.5t-7 15.5l50 233q10 8 12 8h342l72 342q1 2 1 5q0 4 9 4h235q9 0 17 -9.5t6 -15.5z" />
    <glyph glyph-name="bullet" unicode="&#x2022;" horiz-adv-x="638" 
d="M381 702q-19 -91 -94.5 -154t-167.5 -63q-103 0 -165 73.5t-40 172.5q20 91 96.5 154t165.5 63q107 0 167 -72.5t38 -173.5z" />
    <glyph glyph-name="ellipsis" unicode="&#x2026;" horiz-adv-x="1138" 
d="M-86 272q70 0 109.5 -46.5t25.5 -110.5q-11 -54 -54.5 -90.5t-98.5 -36.5q-66 0 -105.5 46t-26.5 109q12 54 55.5 91.5t94.5 37.5zM274 272q70 0 110 -46.5t26 -110.5q-11 -54 -55 -90.5t-99 -36.5q-66 0 -105 46t-26 109q12 54 55 91.5t94 37.5zM635 272
q70 0 109.5 -46.5t25.5 -110.5q-11 -54 -55 -90.5t-99 -36.5q-66 0 -105 46t-26 109q12 54 55.5 91.5t94.5 37.5z" />
    <glyph glyph-name="perthousand" unicode="&#x2030;" horiz-adv-x="2064" 
d="M-59 4h-224q-12 0 -22 12t-4 21l1384 1397h12h224q13 0 22.5 -12t3.5 -21l-1384 -1397h-12zM233 825q-134 0 -212 94.5t-50 223.5q26 121 129 206t222 85q134 0 211 -95t49 -225q-26 -120 -128 -204.5t-221 -84.5zM322 1237q-51 0 -95.5 -36t-54.5 -87q-9 -40 8.5 -65
t52.5 -25q50 0 95 35t55 84q9 41 -9 67.5t-52 26.5zM702 4q-138 0 -215 95t-49 227q26 123 128 207.5t225 84.5q138 0 215 -94.5t49 -226.5q-26 -123 -128 -208t-225 -85zM1395 4q-136 0 -214.5 95t-50.5 227q26 123 128.5 207.5t224.5 84.5q138 0 216 -94.5t50 -226.5
q-26 -123 -128.5 -208t-225.5 -85zM791 420q-53 0 -97.5 -36t-54.5 -87q-9 -41 8.5 -67.5t54.5 -26.5q51 0 96.5 36t55.5 87q9 41 -9 67.5t-54 26.5zM1483 420q-51 0 -96.5 -36t-55.5 -87q-9 -41 9.5 -67.5t54.5 -26.5q51 0 97 36t56 87q9 41 -10 67.5t-55 26.5z" />
    <glyph glyph-name="guilsinglleft" unicode="&#x2039;" horiz-adv-x="643" 
d="M344 1128l127 -116q20 -15 14 -25l-319 -330l178 -309q15 -15 6 -22l-178 -123q-5 -4 -12.5 1t-9.5 11l-285 438q-11 16 -8 21l465 465q5 4 12.5 -0.5t9.5 -10.5z" />
    <glyph glyph-name="guilsinglright" unicode="&#x203a;" horiz-adv-x="643" 
d="M-49 1022l182 119q4 4 12.5 -2.5t10.5 -12.5l268 -464q11 -16 8 -21l-465 -436q-9 -7 -24 8l-127 123q-18 18 -13 24l320 297l-164 342q-12 17 -8 23z" />
    <glyph glyph-name="Euro" unicode="&#x20ac;" horiz-adv-x="1214" 
d="M-143 770l37 174q10 6 12 6l137 8q54 102 126.5 186t166 150.5t212 103t251.5 36.5q176 0 303 -93q13 0 21 -8t5 -14l-149 -205q-6 -4 -14.5 1.5t-6.5 10.5q-100 41 -176 41q-142 0 -254.5 -60.5t-187.5 -162.5l303 6q9 0 18 -8.5t7 -13.5l-37 -174q0 -5 -0.5 -5.5
t-9.5 -0.5l-383 -9q-17 -58 -19 -82l363 9q9 0 18.5 -9.5t7.5 -15.5l-37 -172q-10 -8 -12 -8l-319 -6q37 -88 115.5 -138.5t195.5 -50.5q128 0 229 53q14 0 24.5 -7t8.5 -13l37 -223v-23q-154 -53 -315 -53q-138 0 -246 36t-176.5 101t-108.5 147.5t-53 182.5l-129 -6
q-9 0 -18 9t-7 15l35 172q2 8 4 8.5t8 0.5l105 8q4 30 16 82l-82 -8q-9 0 -18.5 8.5t-7.5 13.5z" />
    <glyph glyph-name="trademark" unicode="&#x2122;" horiz-adv-x="1323" 
d="M1120 1434h117q3 0 9 -7t5 -10l-129 -612h-112q-4 0 -10.5 6.5t-6.5 9.5l78 344l-227 -338q-1 -1 -2 0.5t-2 1.5h-97q-3 0 -11.5 4.5t-8.5 6.5l-90 334l-82 -369h-117q-3 0 -9.5 6.5t-6.5 9.5l131 613h119q2 0 11 -5t9 -6l123 -422l305 435q1 1 2 -0.5t2 -1.5zM549 1434
h-2q-3 0 -1 2q3 1 3 -2zM463 1409l-19 -90q-10 -8 -12 -8h-127l-104 -496q-1 -4 -1 -4.5t-1.5 -2t-3.5 -1.5h-7h-100q-9 0 -18 9t-7 15l101 480h-109q-7 0 -15.5 9t-6.5 15l18 90q8 9 10 9h377q9 0 18 -9.5t7 -15.5zM551 805h2q5 0 1 -1q-2 0 -3 1zM1122 805h2q2 1 -2 0z
" />
    <glyph glyph-name="minus" unicode="&#x2212;" horiz-adv-x="821" 
d="M598 791l-45 -211q-7 -7 -10 -7h-674q-9 0 -19 9t-8 14l45 211q1 4 1 4.5t1.5 2t3.5 1.5h7h673q9 0 18 -9t7 -15z" />
    <glyph glyph-name="infinity" unicode="&#x221e;" horiz-adv-x="1662" 
d="M885 262h-41q-3 0 -15 4.5t-12 5.5l-184 240l-299 -252q-1 -1 -2.5 -0.5t-3.5 1.5t-4 1h-41q-12 0 -36 3.5t-69.5 18t-79.5 38.5q-101 51 -142 147.5t-13 224.5q26 121 96 213.5t178 149.5q114 43 223 43h41q13 -2 27 -10l180 -240l305 252q1 1 2 0.5t2.5 -1.5t3.5 -1h41
q12 0 36 -3.5t69.5 -18t79.5 -38.5q102 -51 142.5 -147.5t12.5 -226.5q-51 -245 -274 -359q-114 -45 -223 -45zM831 680l132 -176q32 7 53 28q110 39 133 162q12 55 4.5 92.5t-37.5 61.5q-14 5 -32 8t-23 4zM496 680l-134 176q-40 -10 -55 -27q-105 -36 -131 -163
q-11 -54 -3 -90t38 -60q16 -4 34 -10t19 -6z" />
    <glyph glyph-name="notequal" unicode="&#x2260;" horiz-adv-x="1073" 
d="M846 827l-277 -6q-25 -39 -68 -100.5t-57 -83.5l342 6q9 0 18 -9.5t7 -15.5l-45 -215q-1 -6 -1.5 -6h-10.5h-475l-142 -215q-2 -4 -12 -4h-240q-11 0 -19.5 11t-4.5 20l129 188h-92q-9 0 -18 8.5t-7 14.5l45 215q10 8 12 8l228 6q18 28 59 87t66 98l-293 -7q-9 0 -18 9.5
t-7 15.5l45 213q1 4 1 4.5t1.5 2t3.5 1.5h7h426l120 187q2 4 13 4h239q12 0 21.5 -11t5.5 -20l-111 -160h142q9 0 17.5 -9t6.5 -15l-45 -213q-2 -8 -4 -8.5t-8 -0.5z" />
    <glyph glyph-name="lozenge" unicode="&#x25ca;" horiz-adv-x="991" 
d="M821 698l-616 -700q-8 -7 -17.5 -1.5t-11.5 13.5l-319 703q-7 14 -7 18l615 701q8 7 17.5 1t11.5 -14l321 -702q6 -12 6 -19zM406 1010l-275 -301q27 -59 69 -156t60 -137q49 54 138 156t132 149z" />
    <glyph glyph-name="Y.alt" horiz-adv-x="1312" 
d="M-2 1434h1284q14 0 24.5 -12t4.5 -21l-682 -725l-146 -666q-10 -8 -12 -8h-231q-9 0 -18 9.5t-7 15.5l141 649l-362 737q-4 6 -5.5 8.5t-2 6t2.5 5t9 1.5zM389 1227l143 -305l285 305h-428z" />
    <glyph glyph-name="W.alt" horiz-adv-x="2041" 
d="M2 1434l2001 -2q12 0 21.5 -11t5.5 -20l-871 -1440q-6 -8 -18.5 -2t-12.5 16l-190 1082l-657 -1096q-6 -9 -20 -2t-11 16l-256 1442q-2 14 -2 15q2 2 10 2zM1604 1184h-412l80 -568zM723 1176h-420l88 -562z" />
    <glyph glyph-name="A.alt" horiz-adv-x="1398" 
d="M1104 1182q51 -109 29 -240l-199 -934q-10 -8 -12 -8h-234q-9 0 -17.5 9.5t-6.5 15.5l49 229h-543l-53 -246q-1 -4 -1 -4.5t-1.5 -2t-3.5 -1.5h-7h-233q-9 0 -18 9.5t-7 15.5l199 933q3 16 10 43t34.5 88.5t66.5 116.5q206 228 514 228q104 0 185 -22.5t130 -61t77 -80
t42 -88.5zM764 498l96 458q2 4 4.5 21t4 45t-4.5 55q-55 90 -211 90q-190 0 -272 -120q-21 -21 -37.5 -47t-22.5 -42l-6 -16l-94 -444h543z" />
    <glyph glyph-name="C.alt" horiz-adv-x="933" 
d="M528 8l-4 -14q-120 2 -224.5 40.5t-180 106t-126 159.5t-62 201t11.5 230q40 191 168 353t309.5 256t372.5 94q14 0 24 -9t8 -16l-49 -233l-4 -15q-125 3 -244.5 -58t-204.5 -168t-112 -233q-38 -183 59 -309.5t275 -126.5q14 0 24.5 -8.5t8.5 -15.5z" />
    <glyph glyph-name="A.alt1" horiz-adv-x="1134" 
d="M831 0h-1120q-12 0 -21 11t-5 20l866 1439q6 10 19.5 3.5t13.5 -17.5l254 -1440q4 -9 3.5 -12.5t-10.5 -3.5zM100 236h428l-84 593z" />
    <glyph glyph-name="O.011" horiz-adv-x="534" 
d="M205 582h-234q-9 0 -18.5 9t-7.5 15l174 819q2 8 4 8.5t8 0.5h234q9 0 17.5 -9.5t6.5 -15.5l-174 -819q0 -6 -0.5 -7t-9.5 -1zM16 383q87 0 137 -61.5t31 -145.5q-15 -74 -76 -126t-133 -52q-90 0 -140.5 61.5t-33.5 145.5q17 74 79 126t136 52z" />
    <glyph glyph-name="V.001" horiz-adv-x="868" 
d="M786 991l-155 -121q-14 -8 -27 11l-229 262q-164 -127 -340 -279q-20 0 -31 17l-104 120q-20 20 -11 27l517 406q7 4 15.5 -0.5t10.5 -10.5l344 -405q20 -20 10 -27z" />
    <glyph glyph-name="F.alt" horiz-adv-x="1263" 
d="M156 1434h934q9 0 17.5 -9.5t6.5 -15.5l-49 -233q-2 -8 -4 -8.5t-8 -0.5h-934q-9 0 -18 9.5t-7 15.5l49 233q1 5 1.5 6t3 2t8.5 1zM-154 25l174 817q0 6 1 7t10 1h934q9 0 18.5 -9.5t7.5 -15.5l-49 -233q-10 -8 -12 -8h-690l-123 -576q-1 -4 -1 -4.5t-1.5 -2t-3.5 -1.5
h-7h-233q-9 0 -18 9.5t-7 15.5z" />
    <glyph glyph-name="D.alt" horiz-adv-x="1372" 
d="M156 1434h233q850 0 694 -732q-27 -126 -76.5 -229.5t-111 -175t-140.5 -126t-156.5 -86.5t-167.5 -51.5t-167 -26.5t-160 -7h-233q-9 0 -18 9.5t-7 15.5l297 1400q1 5 1.5 6t3 2t8.5 1zM815 713q16 74 16.5 136.5t-14 108t-36.5 82.5t-54.5 61t-66 41t-74 26.5t-74 14
t-70.5 5.5l293 -692q56 103 80 217zM303 858l-143 -602h49q162 0 307 72q-75 203 -213 530z" />
    <glyph glyph-name="E.alt" horiz-adv-x="1263" 
d="M332 1026h669q9 0 18 -9.5t7 -15.5l-47 -221q0 -2 -1 -4q0 -2 -3 -2h-6h-690l-27 -117h670q9 0 18.5 -8t7.5 -14l-47 -219q0 -6 -0.5 -7t-9.5 -1h-690l-31 -142h670q9 0 17.5 -9t6.5 -15l-49 -234q-10 -8 -12 -8h-934q-9 0 -18 9.5t-7 15.5l297 1400q1 5 1.5 6t3 2t8.5 1
h933q9 0 18 -9.5t7 -15.5l-49 -233q-2 -8 -4 -8.5t-8 -0.5h-691z" />
    <glyph glyph-name="X.alt" horiz-adv-x="1325" 
d="M1313 1401l-656 -690l83 -166l92 -184t80.5 -164.5t84.5 -180.5q18 -8 12 -12q-3 -2 -10 -2h-1286q-13 0 -22.5 12t-3.5 21l647 682l-340 696q-4 6 -5.5 8.5t-2 6t2.5 5t9 1.5h1286q14 0 24.5 -12t4.5 -21zM406 1188l133 -250q48 53 131 140t110 116zM598 238l-139 268
q-39 -44 -76 -84.5t-97.5 -103.5t-82.5 -87z" />
    <glyph glyph-name="M.alt" horiz-adv-x="1515" 
d="M1348 1409l-199 -938q-10 -8 -12 -8h-230q-9 0 -17.5 9t-6.5 15l88 396l-291 -375q-2 -2 -12 -2h-187q-3 0 -9.5 2.5t-12 6t-4.5 5.5l-146 379l-96 -428q-10 -8 -12 -8h-234q-7 0 -15.5 9t-6.5 15l198 938q1 6 1.5 6.5t2.5 1.5t7 1h217q3 0 9.5 -3t12 -6.5t4.5 -5.5
l230 -585q251 320 465 606q9 -6 16 -6h215q9 0 18 -9.5t7 -15.5zM1100 240l-49 -232q-1 -4 -1 -4.5t-1.5 -2t-3.5 -1.5h-7h-1169q-7 0 -16 9.5t-7 15.5l50 231q8 8 10 8h1169q9 0 18 -9t7 -15z" />
    <glyph glyph-name="A.alt2" horiz-adv-x="1142" 
d="M-37 0h-252q-12 0 -21 11t-5 20l858 1399q7 10 18.5 3t11.5 -18l265 -1399q4 -9 3.5 -12.5t-10.5 -3.5h-253q-4 0 -15 6t-8 10l-131 719l-447 -731q-3 -4 -14 -4z" />
    <glyph glyph-name="T.alt" horiz-adv-x="1138" 
d="M590 944h321q9 0 18 -8t7 -14l-45 -213q-1 -2 -1 -5q0 -4 -9 -4h-342l-148 -692q-8 -8 -10 -8h-236q-9 0 -17.5 9.5t-6.5 15.5l143 675h-319q-9 0 -18 9t-9 16l47 213q0 6 0.5 6h9.5h340l52 240h-320q-9 0 -17.5 9t-6.5 15l45 217q2 8 4 8.5t8 0.5h936q9 0 16.5 -9.5
t5.5 -15.5l-45 -217q-1 -2 -1 -5t-9 -3h-342z" />
    <glyph glyph-name="O.alt" horiz-adv-x="1751" 
d="M1579 1409l-297 -1397q-7 -8 -10 -8h-1397q-9 0 -19 9.5t-8 15.5l297 1396q1 5 1.5 6t3 2t8.5 1h1396q9 0 18 -9.5t7 -15.5zM1065 268l192 901h-892l-193 -901h893z" />
    <glyph glyph-name="H.alt" horiz-adv-x="1163" 
d="M739 1434h232q9 0 17.5 -9.5t6.5 -15.5l-196 -934q-1 -4 -1 -4.5t-1.5 -2t-3.5 -1.5h-7h-231q-9 0 -19 9.5t-8 15.5l70 325h-309l-72 -342q-10 -8 -12 -8h-236q-7 0 -16.5 9.5t-7.5 15.5l198 933q1 6 1.5 6.5t2.5 1.5t7 1h235q9 0 18 -9.5t7 -15.5l-68 -326h309l72 342
q2 8 4 8.5t8 0.5zM-72 233l-41 -200h779l41 200h-779z" />
    <glyph glyph-name="O.alt1" horiz-adv-x="1673" 
d="M807 1434q121 0 226.5 -37.5t181.5 -104.5t127 -159t62.5 -201t-11.5 -230q-30 -144 -113 -274t-196.5 -224t-255.5 -149t-285 -55q-100 0 -191 26t-161.5 74t-125.5 114.5t-85 148t-38 174.5t15 194q40 191 168.5 353t310 256t371.5 94zM559 264q193 0 359 137.5
t206 329.5q38 183 -58.5 309.5t-274.5 126.5q-126 0 -247 -62.5t-206.5 -169.5t-112.5 -233q-38 -183 59.5 -310.5t274.5 -127.5zM504 717l129 -174l219 174l-135 172z" />
    <glyph glyph-name="zero.alt" horiz-adv-x="1142" 
d="M541 1452q120 0 210 -59t128 -158.5t14 -214.5l-133 -627q-37 -173 -180 -293t-312 -120q-121 0 -212 59t-129.5 158t-14.5 213l133 626q37 174 181 295t315 121zM522 1188q-71 0 -133 -49t-74 -113l-98 -440l381 573q-29 29 -76 29zM283 246q71 0 133 49t76 113l94 430
l-377 -568q27 -24 74 -24z" />
    <glyph glyph-name="O.alt2" horiz-adv-x="1662" 
d="M807 1446q101 0 187 -22t150.5 -61t113.5 -94t79.5 -120.5t45.5 -139.5t13.5 -152.5t-18.5 -158.5q-23 -108 -72 -211t-125 -195t-170.5 -160.5t-217 -109t-256.5 -40.5q-102 0 -189 22t-152 61.5t-114.5 94t-79.5 119.5t-45 139t-13 151.5t19 157.5q23 110 71.5 213
t124.5 195.5t170.5 161.5t218 109t259.5 40zM1106 725q33 155 -15.5 279t-183.5 165l-215 -913q156 43 268 175.5t146 293.5zM233 696q-18 -72 -12.5 -144t28 -131.5t73 -105t122.5 -65.5l215 917q-159 -40 -275 -174t-151 -297z" />
    <glyph glyph-name="S.alt" horiz-adv-x="1081" 
d="M242 0q-16 0 -43 3.5t-73.5 16t-82.5 31.5q-108 52 -159 145.5t-31 211.5l14 75q1 1 4 3.5t5.5 4.5t2.5 3l227 168q-84 58 -117 149t-7 209q26 122 109 217.5t192 144t223 48.5q16 0 43.5 -3t76 -16.5t87.5 -34.5q114 -54 160 -152t18 -227l-12 -51q0 -1 -3 -3l-6 -4
t-4 -3l-223 -168q172 -120 123 -358q-40 -183 -193.5 -296.5t-330.5 -113.5zM248 991q-13 -63 11.5 -95.5t82.5 -45.5l287 217q-1 30 -10.5 45t-32.5 37q-58 12 -99 12q-84 0 -152.5 -45t-86.5 -125zM406 580l-285 -215q3 -52 44 -76.5t93 -24.5q86 0 155.5 48t86.5 126
q13 62 -11.5 95.5t-82.5 46.5z" />
    <glyph glyph-name="C.alt1" horiz-adv-x="1406" 
d="M547 266q98 0 189.5 38t160.5 104q16 0 31 -15l131 -166q16 -16 10 -30q-119 -93 -258.5 -145t-280.5 -52q-201 0 -351 98.5t-213 267t-21 365.5q40 191 168 353t309.5 256t372.5 94q155 0 276.5 -59.5t190.5 -162.5q7 0 13 -3.5t7.5 -7.5t-0.5 -7l-201 -164q-6 -3 -15 4
t-9 13q-105 120 -279 120q-126 0 -246.5 -62.5t-206 -169.5t-112.5 -233q-38 -183 59.5 -309.5t274.5 -126.5zM860 731q17 79 -23 133t-114 54q-89 0 -166 -63.5t-96 -152.5q-17 -78 23 -132t114 -54q89 0 166 63.5t96 151.5z" />
    <glyph glyph-name="W.alt1" horiz-adv-x="2097" 
d="M555 0h-254q-6 0 -17 6t-8 10l-280 1403q-1 2 -2 6q-2 5 -2.5 6.5t2 3t8.5 1.5h252q5 0 16.5 -6.5t10.5 -10.5l208 -1050l263 403q-80 400 -125 655q-18 9 2 9h252q5 0 16.5 -7t11.5 -10l52 -311l198 324q1 4 12 4h254q12 0 21.5 -11t5.5 -20l-416 -645q16 -75 40.5 -201
t39.5 -197l670 1070q1 4 12 4h252q12 0 21.5 -11t5.5 -20l-883 -1401q-3 -4 -14 -4h-252q-6 0 -17 6t-8 10l-78 400l-256 -412q-4 -4 -14 -4z" />
    <glyph glyph-name="O.alt3" horiz-adv-x="1525" 
d="M942 516l-29 -506q0 -10 -3.5 -10.5t-14.5 4.5l-399 227q-27 -13 -210 -100.5t-274 -134.5q-18 -1 -33 9.5t-12 21.5l195 489l-279 356q-23 23 -2 25l518 72l320 461q8 8 19.5 2.5t13.5 -15.5l131 -448l475 -72q12 -2 21.5 -15t2.5 -20zM291 731l108 -147q2 -1 3.5 -4.5
t3 -8.5t2.5 -6l-76 -182q17 8 58.5 28t68 34t51.5 30q23 -4 29 -10l168 -80q5 167 8 201l1 5q1 4 1 5l174 135l-176 29q-3 0 -14.5 7.5t-10.5 10.5l-45 162l-125 -174q-6 -6 -14 -6z" />
    <glyph glyph-name="N.alt" horiz-adv-x="1519" 
d="M1092 1434h231q9 0 18 -9.5t7 -15.5l-297 -1401q-1 -4 -1 -4.5t-1.5 -2t-3.5 -1.5h-7h-235q-2 0 -8.5 2t-12 5t-4.5 5l-223 459q-48 -53 -137 -149t-161.5 -176t-133.5 -152q-4 1 -9.5 3.5t-7.5 2.5h-235q-7 0 -16 9.5t-7 15.5l297 1400q1 6 1.5 6.5t2.5 1.5t7 1h237
q2 0 8.5 -2.5t12 -5.5t4.5 -5l456 -938l205 942q1 5 1.5 6t3 2t8.5 1zM324 952l-115 -497l237 237z" />
    <glyph glyph-name="S.alt1" horiz-adv-x="1034" 
d="M264 852h590q12 0 21.5 -11t3.5 -20l-514 -815q-3 -4 -13 -4h-254q-11 0 -19.5 11t-2.5 20l352 551h-592q-12 0 -21 10.5t-5 19.5l514 816q1 4 12 4h252q12 0 21 -11t5 -20z" />
    <glyph glyph-name="E.alt1" horiz-adv-x="1193" 
d="M1069 1409l-49 -233q-8 -9 -10 -9h-936q-9 0 -18 9.5t-7 15.5l49 233q1 5 1.5 6t3 2t8.5 1h936q7 0 15.5 -9.5t6.5 -15.5zM946 825l-49 -233q-8 -8 -10 -8h-936q-9 0 -19 9t-8 15l51 234q0 6 1 7t10 1h936q7 0 16.5 -9.5t7.5 -15.5zM762 0h-936q-9 0 -18 9.5t-7 15.5
l49 233q1 4 1 4.5t1.5 2t3.5 1.5h7h936q7 0 15.5 -9t6.5 -15l-49 -234q-8 -8 -10 -8z" />
    <glyph glyph-name="H.alt1" horiz-adv-x="1394" 
d="M973 1434h233q9 0 18 -9.5t7 -15.5l-297 -1401q-10 -8 -12 -8h-234q-9 0 -17.5 9.5t-6.5 15.5l69 325h-543l-73 -342q-1 -4 -1 -4.5t-1.5 -2t-3.5 -1.5h-7h-233q-9 0 -18 9.5t-7 15.5l297 1400q1 5 1.5 6t3 2t8.5 1h233q9 0 18 -9.5t7 -15.5l-68 -326h543l72 342
q2 8 4 8.5t8 0.5zM831 817h-542l-43 -201h542z" />
    <glyph glyph-name="l.001" horiz-adv-x="1148" 
d="M170 264h606q7 0 16 -9t7 -15l-49 -232q-1 -5 -1.5 -6t-2.5 -1.5t-7 -0.5h-868q-9 0 -18 9.5t-7 15.5l295 1388q1 4 1 4.5t1.5 2t3.5 1.5h7h233q7 0 16 -9t7 -15l-142 -670h586q9 0 18 -9.5t7 -15.5l-45 -213q-1 -4 -1 -4.5t-1.5 -2t-3.5 -1.5h-7h-606z" />
    <glyph glyph-name="M.alt1" horiz-adv-x="2093" 
d="M1210 1436h254q5 0 16.5 -6.5t10.5 -10.5l283 -1403q4 -9 3 -12.5t-12 -3.5h-252q-6 0 -16.5 6t-7.5 10l-211 1051l-262 -403q59 -281 125 -656q20 -8 -2 -8h-252q-3 0 -10 3t-12.5 7t-4.5 6l-57 297l-193 -309q-3 -4 -14 -4h-254q-12 0 -21.5 11t-5.5 20l416 645
q-36 169 -78 397l-669 -1069q-3 -4 -15 -4h-252q-12 0 -21 11t-5 20l882 1401q1 4 13 4h252q5 0 16 -6.5t10 -10.5l76 -399l258 412q2 4 12 4z" />
    <glyph glyph-name="O.alt4" horiz-adv-x="1593" 
d="M485 4q-121 0 -226.5 37.5t-181 104t-126 158.5t-62 200t10.5 229q40 191 167.5 352t308.5 255t372 94q120 0 224.5 -37.5t180 -104t126 -158.5t62 -200t-11.5 -229q-40 -190 -167 -351.5t-307.5 -255.5t-369.5 -94zM762 1305q-163 0 -319.5 -80.5t-267.5 -219
t-146 -300.5q-33 -156 14.5 -287t161 -207t266.5 -76q161 0 316.5 80t266 218t144.5 300q33 156 -13.5 287.5t-159 208t-263.5 76.5zM373 950q25 115 64.5 194t72.5 79q49 0 65 -89t-10 -212q-25 -116 -63.5 -194.5t-71.5 -78.5q-50 0 -66.5 89t9.5 212zM762 950
q25 117 63 195t72 78q47 0 63 -89t-10 -212q-25 -115 -63 -194t-70 -79q-50 0 -66 89t11 212zM530 223q-142 0 -248 69t-151 186.5t-16 254.5q2 2 12 2h96q9 0 17.5 -10t5.5 -20q-31 -149 48 -252t224 -103q158 0 294.5 112.5t170.5 270.5q2 2 10 2h97q9 0 17 -10t5 -20
q-27 -131 -115 -242t-212.5 -175.5t-254.5 -64.5z" />
    <glyph glyph-name="O.alt5" horiz-adv-x="1677" 
d="M1491 705l-549 -703q-1 -2 -12 -2h-811q-3 0 -10 2.5t-12 6t-3 5.5l-250 703q-1 2 -1 8t-1 8l549 701q1 2 12 2h811q3 0 10 -3t12.5 -6.5t4.5 -5.5l250 -700v-16zM825 264l367 461q-23 65 -79.5 217t-86.5 236l-518 -13q-300 -376 -361 -452l162 -449h516z" />
    <glyph glyph-name="A.alt3" horiz-adv-x="1142" 
d="M733 580l105 -564q4 -9 3.5 -12.5t-10.5 -3.5h-253q-4 0 -13 7t-8 11l-27 222l-149 -236q-3 -4 -12 -4h-197q-6 0 -17 6t-8 10l-41 224l-129 -236q-3 -4 -14 -4h-252q-12 0 -21 11t-5 20l858 1399q7 10 18.5 3t11.5 -18zM438 811l-149 -238l41 -217l149 217z" />
    <glyph glyph-name="A.alt4" horiz-adv-x="1277" 
d="M1210 1409l-49 -233q-2 -8 -4 -8.5t-8 -0.5l-455 -6q23 -125 67.5 -361t79 -427t62.5 -365q20 -8 -2 -8h-252q-6 0 -16.5 6t-7.5 10l-131 719l-445 -731q-3 -4 -14 -4h-252q-12 0 -21.5 11t-5.5 20l701 1136h-426q-9 0 -18 9.5t-7 15.5l49 233q1 5 1.5 6t3 2t8.5 1h1118
q9 0 17.5 -9.5t6.5 -15.5z" />
    <glyph glyph-name="O.alt6" horiz-adv-x="1654" 
d="M795 1432q120 0 225.5 -37.5t181 -104t126 -158.5t62 -200.5t-11.5 -229.5q-40 -191 -168 -353t-309 -255.5t-371 -93.5q-201 0 -350.5 98.5t-212 267t-20.5 365.5q40 191 167.5 352.5t308.5 255t372 93.5zM1112 731q38 181 -59.5 308.5t-274.5 127.5q-114 0 -231 -55
l440 -627q98 116 125 246zM211 702q-21 -92 -2.5 -171.5t62.5 -138t116 -92.5t160 -34q101 0 207 45q-264 378 -432 613q-88 -109 -111 -222z" />
    <glyph glyph-name="O.alt7" horiz-adv-x="2324" 
d="M1448 1434q121 0 226.5 -37.5t181.5 -104.5t127 -159t62.5 -201t-11.5 -230q-40 -191 -168 -353t-309.5 -255.5t-372.5 -93.5q-174 0 -305 74q-170 -74 -336 -74q-100 0 -191 26.5t-161.5 74t-125.5 114.5t-84.5 148t-38 174.5t14.5 193.5q40 191 168.5 353t310 256
t371.5 94q176 0 307 -74q173 74 334 74zM225 702q-38 -183 59.5 -309.5t274.5 -126.5q47 0 94 15q-104 210 -53 450q55 256 250 436h-59q-126 0 -247 -62.5t-206.5 -169.5t-112.5 -233zM1141 266h59q192 0 358.5 136.5t206.5 328.5q38 183 -59 309.5t-274 126.5
q-49 0 -95 -14q105 -212 54 -451q-55 -256 -250 -436zM1124 731q37 174 -47 299q-170 -141 -211 -328q-17 -88 -4 -164t53 -135q170 141 209 328z" />
    <glyph glyph-name="I.alt" horiz-adv-x="1150" 
d="M686 246h127q9 0 18 -9.5t7 -15.5l-45 -213q-1 -4 -1 -4.5t-1.5 -2t-3.5 -1.5h-7h-1013q-9 0 -18 9.5t-7 15.5l45 213q10 8 12 8h146l198 942h-125q-9 0 -17.5 9t-6.5 15l45 213q2 8 4 8.5t8 0.5h1014q9 0 18 -9.5t7 -15.5l-46 -213q-10 -8 -12 -8h-147zM418 1188
l-199 -942h195l198 942h-194z" />
    <glyph glyph-name="O.009" horiz-adv-x="2093" 
d="M1626 266h86q9 0 18 -9t7 -15l-49 -234q-1 -4 -1 -4.5t-1.5 -2t-3.5 -1.5h-7h-1870q-9 0 -17.5 9.5t-6.5 15.5l49 233q10 8 12 8h107l192 903h-86q-9 0 -18.5 9.5t-7.5 15.5l49 233q2 8 4 8.5t8 0.5h1870q9 0 19 -9.5t8 -15.5l-52 -233q-7 -8 -10 -9h-106zM608 1169h-192
l-193 -903h193zM1077 1169h-194l-193 -903h195zM1350 1169l-193 -903h195l192 903h-194z" />
    <glyph glyph-name="ampersand.alt" horiz-adv-x="1243" 
d="M975 139l-205 -166q-7 -7 -20 13l-123 139q-89 -72 -170.5 -110t-182.5 -38q-93 0 -169.5 28t-126.5 77t-82.5 114.5t-37.5 141t9 156.5q36 164 199 311q-38 51 -58 125.5t-4 144.5q31 145 154 247.5t266 102.5q161 0 252 -112t59 -266q-43 -194 -227 -293l94 -121
l47 205q1 4 1 4.5t1.5 2t3.5 1.5h7h231q9 0 18 -9.5t7 -15.5l-74 -350q-12 -51 -35 -106l154 -201q21 -16 12 -25zM414 1182q-56 0 -104 -39t-60 -96q-10 -47 11 -77t61 -30q56 0 105.5 39.5t61.5 95.5q9 47 -13 77t-62 30zM285 250q99 0 182 61l-244 305q-74 -64 -94 -157
q-19 -88 26 -148.5t130 -60.5z" />
    <glyph glyph-name="A.alt5" horiz-adv-x="1673" 
d="M852 1667q126 0 236 -39t189 -108t132 -164.5t65 -209t-12 -239.5q-9 -2 -10 -2h-233q-9 0 -17.5 10.5t-7.5 20.5q26 123 -6 226t-116 166.5t-204 72.5l244 -1385q4 -9 3.5 -12.5t-11.5 -3.5h-252q-3 0 -10 3t-12.5 7t-4.5 6l-30 150l-443 4q-77 -123 -100 -174
q-8 4 -14 4h-252q-12 0 -21.5 11t-5.5 20l193 291q-122 106 -173 266.5t-12 347.5q42 200 175.5 368t322.5 265.5t387 97.5zM295 584q325 524 516 819l-6 4q-127 -9 -247.5 -77.5t-207 -181t-114.5 -241.5q-18 -93 -2.5 -178t61.5 -145zM776 438l-63 365l-234 -352
q33 -10 88 -13h209z" />
    <glyph glyph-name="O.alt8" horiz-adv-x="1667" 
d="M801 1434q101 0 192 -26.5t161.5 -74.5t125.5 -115t84 -148t37 -174.5t-15 -193.5q-30 -143 -112.5 -273t-196 -223.5t-255 -148.5t-285.5 -55q-120 0 -225.5 37.5t-181 104t-126.5 158t-62.5 200t11.5 229.5q40 191 168 353t309 256t371 94zM553 266q193 0 359 137
t206 328q38 183 -59 309.5t-275 126.5q-126 0 -246.5 -62.5t-206 -169.5t-112.5 -233q-38 -181 59.5 -308.5t274.5 -127.5zM868 731q17 79 -23 133t-114 54q-88 0 -164.5 -63.5t-95.5 -152.5q-17 -78 23 -132t112 -54q89 0 166 63.5t96 151.5z" />
    <glyph glyph-name="X.alt1" horiz-adv-x="1169" 
d="M715 717l123 -701q4 -9 3.5 -12.5t-10.5 -3.5h-253q-4 0 -15 6t-8 10l-131 719l-447 -731q-3 -4 -14 -4h-252q-12 0 -21 11t-5 20l430 686l-127 700q-2 14 -2 15q2 2 10 2h231q6 0 17 -6.5t8 -10.5l74 -373l217 386q6 10 17 4t13 -17l60 -366q195 313 237 387q8 -4 13 -4
h233q11 0 20 -11t5 -20z" />
    <glyph glyph-name="a.alt" 
d="M63 160l-86 -156q-3 -4 -14 -4h-250q-11 0 -19.5 11t-4.5 20l856 1425q8 10 19.5 3.5t13.5 -17.5l253 -1426q4 -9 3.5 -12.5t-11.5 -3.5h-250q-7 0 -17 6t-7 10l-23 144h-463zM201 393l288 6q-51 395 -53 410z" />
    </font>
</defs>
</svg>
